<svg width="67" height="67" viewBox="0 0 67 67" fill="none" xmlns="http://www.w3.org/2000/svg">
<g filter="url(#filter0_d_411_4035)">
<rect x="9" y="9" width="49" height="49" rx="24.5" fill="white"/>
<path d="M34.0352 42.9802C34.0352 42.9802 34.0105 42.9967 33.9999 43C33.9894 42.9934 33.9823 42.9835 33.9647 42.9802C32.9767 42.4091 21.7879 35.7903 24.3919 29.3366C25.9197 25.5502 30.0092 25.438 32.0522 26.7816C33.2801 27.587 33.8588 28.891 33.9999 29.2442C34.1376 28.891 34.7162 27.587 35.9441 26.7816C37.9871 25.438 42.0802 25.5502 43.608 29.3366C46.212 35.7903 35.0267 42.4091 34.0352 42.9802Z" fill="#CECECE"/>
</g>
<defs>
<filter id="filter0_d_411_4035" x="0" y="0" width="67" height="67" filterUnits="userSpaceOnUse" color-interpolation-filters="sRGB">
<feFlood flood-opacity="0" result="BackgroundImageFix"/>
<feColorMatrix in="SourceAlpha" type="matrix" values="0 0 0 0 0 0 0 0 0 0 0 0 0 0 0 0 0 0 127 0" result="hardAlpha"/>
<feOffset/>
<feGaussianBlur stdDeviation="4.5"/>
<feComposite in2="hardAlpha" operator="out"/>
<feColorMatrix type="matrix" values="0 0 0 0 0.8875 0 0 0 0 0.8875 0 0 0 0 0.8875 0 0 0 1 0"/>
<feBlend mode="normal" in2="BackgroundImageFix" result="effect1_dropShadow_411_4035"/>
<feBlend mode="normal" in="SourceGraphic" in2="effect1_dropShadow_411_4035" result="shape"/>
</filter>
</defs>
</svg>
