<svg width="223" height="147" viewBox="0 0 223 147" fill="none" xmlns="http://www.w3.org/2000/svg">
<g clip-path="url(#clip0_766_4132)">
<path d="M110.274 91.8614C110.261 91.551 109.036 60.4614 114.866 29.7734L116.89 30.176C111.108 60.6116 112.321 91.4617 112.334 91.7702L110.275 91.8605L110.274 91.8614Z" fill="#898C96"/>
<path d="M120.746 94.9965C120.73 94.4503 119.029 40.2538 114.927 30.3763L116.827 29.5703C121.076 39.8006 122.737 92.6863 122.806 94.9321L120.746 94.9965V94.9965Z" fill="#898C96"/>
<path d="M132.009 92.7948L129.957 92.6106C129.964 92.5332 130.619 84.7007 129.101 73.1726C127.702 62.5508 124.117 46.5229 114.984 30.4922L116.77 29.4531C126.084 45.8035 129.733 62.1391 131.153 72.9634C132.693 84.7053 132.038 92.4715 132.01 92.7957L132.009 92.7948Z" fill="#898C96"/>
<path d="M141.983 90.0193L139.978 89.5394L140.981 89.7798L139.977 89.5421C139.991 89.4832 141.311 83.5077 138.921 73.3235C136.71 63.8993 130.782 48.8468 115.101 30.6579L116.655 29.2891C123.723 37.4873 129.454 45.7619 133.689 53.8837C137.087 60.4026 139.536 66.8396 140.968 73.0177C143.426 83.6265 142.044 89.7632 141.984 90.0193H141.983Z" fill="#898C96"/>
<path d="M108.228 92.1002C108.228 92.1002 138.305 86.1091 145.2 87.7091C152.096 89.3092 142.428 100.227 142.428 100.227L138.614 104.797L126.117 107.589L117.771 103.468L112.7 99.0807L108.228 92.1012V92.1002Z" fill="#00A6A1"/>
<path d="M118.363 82.576C117.296 82.7215 116.42 83.498 116.146 84.549C115.118 88.4805 112.457 99.1612 113.635 100.028C115.082 101.092 129.292 102.006 130.936 101.15C132.58 100.294 133.68 83.5275 132.167 82.8633C130.655 82.1992 130.867 83.1084 130.867 83.1084C130.867 83.1084 122.502 82.0104 118.363 82.576V82.576Z" fill="#2F8E73"/>
<path d="M90.0384 84.0805C89.9536 83.0341 90.752 82.1304 91.7901 82.0982C95.6535 81.9803 104.099 81.6708 104.807 82.6932C105.727 84.0225 107.072 91.0093 107.072 91.0093L90.5014 89.7796L90.0384 84.0805V84.0805Z" fill="#FAB516"/>
<path d="M117.427 81.6306C116.361 81.7762 115.485 82.5527 115.21 83.6037C114.182 87.5352 111.521 98.2159 112.7 99.0827C114.147 100.147 128.356 101.06 130.001 100.205C131.645 99.3489 133.68 83.5282 132.167 82.8631C130.654 82.1981 129.93 82.1631 129.93 82.1631C129.93 82.1631 121.566 81.0651 117.426 81.6306H117.427Z" fill="#FAB516"/>
<path d="M84.6503 91.8539C83.9531 90.053 84.91 88.033 86.7319 87.4425C87.6205 87.1542 88.6668 86.9838 89.8124 87.1155C93.2985 87.5144 107.307 88.4447 108.754 89.9075C110.201 91.3703 116.42 105.757 127.07 106.046C136.87 106.312 142.493 100.541 143.348 90.8388C143.217 85.1885 149.925 88.3793 148.591 90.5726C148.591 90.5726 149.22 111.946 120.818 113.306C92.6733 114.654 87.1667 98.3562 84.6503 91.8548V91.8539Z" fill="#007F79"/>
<path d="M114.142 147.002C135.715 147.002 153.203 145.405 153.203 143.435C153.203 141.464 135.715 139.867 114.142 139.867C92.5686 139.867 75.0801 141.464 75.0801 143.435C75.0801 145.405 92.5686 147.002 114.142 147.002Z" fill="#808796"/>
<path d="M116.47 146.284C139.33 146.284 157.861 144.686 157.861 142.716C157.861 140.746 139.33 139.148 116.47 139.148C93.6106 139.148 75.0791 140.746 75.0791 142.716C75.0791 144.686 93.6106 146.284 116.47 146.284Z" fill="#979CA4"/>
<path d="M96.4597 143.076C107.862 142.86 117.098 142.34 117.091 141.914C117.083 141.488 107.833 141.317 96.4312 141.532C85.0292 141.747 75.7925 142.267 75.8004 142.694C75.8083 143.12 85.0578 143.291 96.4597 143.076Z" fill="#808796"/>
<path d="M77.2852 142.478L91.873 116.586L95.0301 121.549L83.3669 141.934L77.2852 142.478Z" fill="#979CA4"/>
<path d="M81.2617 140.828C81.2617 140.828 94.4123 121.774 93.6248 119.968C92.8374 118.161 95.0293 121.551 95.0293 121.551L84.201 140.477L81.2617 140.828Z" fill="#808796"/>
<path d="M117.291 141.789C91.3249 125.671 79.0092 90.3228 76.9594 58.0984C74.2416 15.3609 106.32 14.9372 118.891 16.867C119.885 17.0199 120.758 16.1512 120.816 15.1324C120.873 14.1247 120.123 13.2561 119.131 13.1851C111.03 12.6067 77.5136 11.3346 74.2708 45.5505C72.4261 65.0162 78.8679 118.302 112.953 141.789H117.29H117.291Z" fill="#808796"/>
<path d="M123.88 114.025C115.863 114.025 109.063 110.996 104.132 105.204C100.615 101.073 98.1055 95.5922 96.876 89.3542C95.7477 83.6311 95.7541 77.3783 96.8924 71.7501C99.9556 56.6074 104.82 44.616 113.681 30.3594L115.427 31.4675C106.706 45.4966 101.921 57.2882 98.9121 72.1674C96.5579 83.8061 99.2201 96.2407 105.695 103.847C110.221 109.162 116.488 111.943 123.894 111.943C124.422 111.943 124.955 111.929 125.495 111.9L125.531 111.898H125.568C125.62 111.904 130.755 111.926 136.806 107.825L137.954 109.555C131.63 113.84 126.267 113.982 125.591 113.982H125.57C125.001 114.011 124.438 114.026 123.881 114.026L123.88 114.025Z" fill="#8A989E"/>
<path d="M122.241 114.289C119.914 114.289 118.178 114.056 117.718 113.988C117.162 114.015 116.616 114.028 116.081 114.028C105.394 114.028 99.0145 108.682 95.4965 104.061C89.0538 95.5998 87.0624 82.5674 90.5412 71.6325C95.5421 55.9113 102.708 43.1442 113.775 30.2344L115.332 31.5986C104.456 44.2855 97.415 56.8297 92.5035 72.2709C89.2234 82.5831 91.0826 94.8491 97.1307 102.792C100.535 107.263 106.871 112.474 117.718 111.903L117.828 111.898L117.935 111.915C117.995 111.925 124.076 112.877 129.568 111.243L130.15 113.241C127.378 114.065 124.525 114.289 122.242 114.289H122.241Z" fill="#8A989E"/>
<path d="M118.632 114.909C117.462 114.909 116.284 114.861 115.101 114.765C108.588 114.238 105.815 113.734 103.962 113.308C96.6637 111.634 90.8344 107.144 87.1031 100.323C84.8602 96.2227 83.4931 91.3978 83.1476 86.3683C82.8049 81.3683 83.4776 76.2652 85.0953 71.6088C89.9922 57.5097 99.6576 43.3969 113.826 29.6598C114.266 29.2075 115.395 28.5664 116.701 29.2324L115.773 31.0922C115.704 31.0563 115.495 30.9503 115.295 31.1217L115.264 31.1594L115.266 31.1493C101.326 44.6616 91.8296 58.5064 87.0393 72.2987C83.9469 81.2035 84.6624 91.5553 88.9068 99.315C92.3455 105.602 97.7091 109.738 104.418 111.277C106.096 111.662 108.845 112.171 115.265 112.689C120.111 113.081 124.859 112.629 129.374 111.347C136.546 109.31 139.498 106.232 139.527 106.201L141.031 107.625C140.899 107.767 137.719 111.141 129.932 113.352C126.285 114.388 122.497 114.909 118.632 114.909V114.909Z" fill="#8A989E"/>
<path d="M117.231 15.2266H115.244C114.881 15.2266 114.586 15.5243 114.586 15.8916V17.5156C114.586 17.8829 114.881 18.1807 115.244 18.1807H117.231C117.594 18.1807 117.889 17.8829 117.889 17.5156V15.8916C117.889 15.5243 117.594 15.2266 117.231 15.2266Z" fill="#808796"/>
<path d="M116.372 16.875H116.1C115.901 16.875 115.739 17.0383 115.739 17.2398V19.4643C115.739 19.6658 115.901 19.8291 116.1 19.8291H116.372C116.571 19.8291 116.733 19.6658 116.733 19.4643V17.2398C116.733 17.0383 116.571 16.875 116.372 16.875Z" fill="#808796"/>
<path d="M116.436 21.9453H116.035C115.872 21.9453 115.739 22.0793 115.739 22.2447V23.6365C115.739 23.8019 115.872 23.9359 116.035 23.9359H116.436C116.6 23.9359 116.733 23.8019 116.733 23.6365V22.2447C116.733 22.0793 116.6 21.9453 116.436 21.9453Z" fill="#808796"/>
<path d="M116.436 26.0938H116.035C115.872 26.0938 115.739 26.2278 115.739 26.3931V27.785C115.739 27.9503 115.872 28.0843 116.035 28.0843H116.436C116.6 28.0843 116.733 27.9503 116.733 27.785V26.3931C116.733 26.2278 116.6 26.0938 116.436 26.0938Z" fill="#808796"/>
<path d="M116.313 22.4039H116.162C115.487 22.4039 114.938 21.8494 114.938 21.1668V20.534C114.938 19.8523 115.486 19.2969 116.162 19.2969H116.313C116.987 19.2969 117.537 19.8514 117.537 20.534V21.1668C117.537 21.8484 116.988 22.4039 116.313 22.4039ZM116.162 19.938C115.836 19.938 115.572 20.2051 115.572 20.534V21.1668C115.572 21.4957 115.836 21.7628 116.162 21.7628H116.313C116.638 21.7628 116.902 21.4957 116.902 21.1668V20.534C116.902 20.2051 116.638 19.938 116.313 19.938H116.162Z" fill="#808796"/>
<path d="M116.313 22.4039H116.162C115.487 22.4039 114.938 21.8494 114.938 21.1668V20.534C114.938 19.8523 115.486 19.2969 116.162 19.2969H116.313C116.987 19.2969 117.537 19.8514 117.537 20.534V21.1668C117.537 21.8484 116.988 22.4039 116.313 22.4039ZM116.162 19.938C115.836 19.938 115.572 20.2051 115.572 20.534V21.1668C115.572 21.4957 115.836 21.7628 116.162 21.7628H116.313C116.638 21.7628 116.902 21.4957 116.902 21.1668V20.534C116.902 20.2051 116.638 19.938 116.313 19.938H116.162Z" fill="#808796"/>
<path d="M116.313 26.5758H116.162C115.487 26.5758 114.938 26.0212 114.938 25.3387V24.7058C114.938 24.0242 115.486 23.4688 116.162 23.4688H116.313C116.987 23.4688 117.537 24.0233 117.537 24.7058V25.3387C117.537 26.0203 116.988 26.5758 116.313 26.5758ZM116.162 24.1099C115.836 24.1099 115.572 24.377 115.572 24.7058V25.3387C115.572 25.6675 115.836 25.9347 116.162 25.9347H116.313C116.638 25.9347 116.902 25.6675 116.902 25.3387V24.7058C116.902 24.377 116.638 24.1099 116.313 24.1099H116.162V24.1099Z" fill="#808796"/>
<path d="M117.231 27.0156H115.244C114.881 27.0156 114.586 27.3134 114.586 27.6807V29.3047C114.586 29.672 114.881 29.9697 115.244 29.9697H117.231C117.594 29.9697 117.889 29.672 117.889 29.3047V27.6807C117.889 27.3134 117.594 27.0156 117.231 27.0156Z" fill="#808796"/>
<path d="M116.47 141.513L111.86 141.016L112.954 141.786H117.29L116.47 141.513Z" fill="#979CA4"/>
<path d="M157.986 142.715C157.986 144.685 139.454 146.283 116.595 146.283C116.595 146.283 149.433 146.283 149.41 141.674C149.4 139.704 116.595 139.148 116.595 139.148C139.454 139.148 157.986 140.746 157.986 142.716V142.715Z" fill="#808796"/>
<g opacity="0.71">
<path d="M119.272 13.8274C97.7206 12.5443 78.8665 20.5453 76.0466 44.2842C75.7249 46.9896 75.6183 49.7152 75.6219 52.44C75.8297 72.8065 80.7631 95.019 90.0858 113.119C93.4963 119.688 97.6404 125.927 102.614 131.394C104.943 133.968 107.495 136.384 110.18 138.576C110.852 139.114 111.549 139.667 112.242 140.177L113.292 140.952L113.196 141.092C108.881 138.134 104.909 134.628 101.404 130.729C95.6709 124.394 91.0701 117.053 87.3926 109.331C81.2926 96.4127 77.6097 82.4122 75.7987 68.2423C74.9511 61.2544 74.4772 54.1874 74.9347 47.1499C75.7076 35.4421 80.3393 24.8664 90.7493 18.8781C92.5348 17.8344 94.466 16.9547 96.4027 16.238C102.056 14.1867 108.091 13.4064 114.073 13.4221C115.813 13.4322 117.552 13.5133 119.283 13.6579L119.272 13.8283V13.8274Z" fill="#A8B2C4"/>
</g>
<path d="M123.88 114.025C115.863 114.025 109.063 110.996 104.132 105.204C100.615 101.073 98.1055 95.5922 96.876 89.3542C95.7477 83.6311 95.7541 77.3783 96.8924 71.7501C99.9556 56.6074 104.82 44.616 113.681 30.3594L115.427 31.4675C106.706 45.4966 101.921 57.2882 98.9121 72.1674C96.5579 83.8061 99.2201 96.2407 105.695 103.847C110.221 109.162 116.488 111.943 123.894 111.943C124.422 111.943 124.955 111.929 125.495 111.9L125.531 111.898H125.568C125.62 111.904 130.755 111.926 136.806 107.825L137.954 109.555C131.63 113.84 126.267 113.982 125.591 113.982H125.57C125.001 114.011 124.438 114.026 123.881 114.026L123.88 114.025Z" fill="#8A989E"/>
<path d="M122.241 114.289C119.914 114.289 118.178 114.056 117.718 113.988C117.162 114.015 116.616 114.028 116.081 114.028C105.394 114.028 99.0145 108.682 95.4965 104.061C89.0538 95.5998 87.0624 82.5674 90.5412 71.6325C95.5421 55.9113 102.708 43.1442 113.775 30.2344L115.332 31.5986C104.456 44.2855 97.415 56.8297 92.5035 72.2709C89.2234 82.5831 91.0826 94.8491 97.1307 102.792C100.535 107.263 106.871 112.474 117.718 111.903L117.828 111.898L117.935 111.915C117.995 111.925 124.076 112.877 129.568 111.243L130.15 113.241C127.378 114.065 124.525 114.289 122.242 114.289H122.241Z" fill="#8A989E"/>
<path d="M118.632 114.909C117.462 114.909 116.284 114.861 115.101 114.765C108.588 114.238 105.815 113.734 103.962 113.308C96.6637 111.634 90.8344 107.144 87.1031 100.323C84.8602 96.2227 83.4931 91.3978 83.1476 86.3683C82.8049 81.3683 83.4776 76.2652 85.0953 71.6088C89.9922 57.5097 99.6576 43.3969 113.826 29.6598C114.266 29.2075 115.395 28.5664 116.701 29.2324L115.773 31.0922C115.704 31.0563 115.495 30.9503 115.295 31.1217L115.264 31.1594L115.266 31.1493C101.326 44.6616 91.8296 58.5064 87.0393 72.2987C83.9469 81.2035 84.6624 91.5553 88.9068 99.315C92.3455 105.602 97.7091 109.738 104.418 111.277C106.096 111.662 108.845 112.171 115.265 112.689C120.111 113.081 124.859 112.629 129.374 111.347C136.546 109.31 139.498 106.232 139.527 106.201L141.031 107.625C140.899 107.767 137.719 111.141 129.932 113.352C126.285 114.388 122.497 114.909 118.632 114.909V114.909Z" fill="#8A989E"/>
<path opacity="0.72" d="M95.4965 104.062C97.3521 106.498 100.003 109.138 103.663 111.088C99.7664 110.064 96.345 108.145 93.5188 105.418C90.3672 104.462 87.1025 100.32 87.1025 100.32C90.8338 107.141 96.6631 111.631 103.962 113.306C105.814 113.73 108.588 114.236 115.101 114.763C116.284 114.859 117.461 114.907 118.631 114.907C122.497 114.907 126.284 114.385 129.931 113.35C137.718 111.138 140.898 107.765 141.03 107.622L139.526 106.198C139.512 106.214 138.724 107.035 136.989 108.106L136.805 107.829C130.754 111.929 125.619 111.906 125.566 111.902H125.492C124.953 111.931 124.42 111.945 123.891 111.945C119.011 111.945 114.625 110.738 110.906 108.392C108.61 108.067 104.131 105.207 104.131 105.207C106.574 108.076 109.476 110.266 112.757 111.747C108.276 111.203 104.758 109.591 102.033 107.613C99.3955 107.189 95.4956 104.061 95.4956 104.061L95.4965 104.062Z" fill="#5B6C71"/>
<path d="M127.291 112.072C123.593 112.072 119.883 110.942 116.456 108.752C112.188 106.025 108.435 101.663 105.606 96.1398C101.488 88.1037 99.9722 79.0157 101.221 69.8567C104.415 46.4283 111.009 34.4156 113.696 30.3377C114.197 29.5759 114.966 29.0693 115.858 28.9108C116.749 28.7524 117.641 28.9624 118.368 29.5041C123.438 33.2743 133.298 45.1037 140.388 57.6395C146.894 69.1419 153.584 85.4379 148.521 97.7554L148.503 97.796C144.469 106.543 138.392 111.041 129.377 111.953C128.683 112.033 127.988 112.074 127.291 112.074V112.072ZM116.43 30.9429C116.359 30.9429 116.286 30.9493 116.214 30.9622C115.882 31.0212 115.596 31.21 115.41 31.4928C112.802 35.4501 106.398 47.1385 103.261 70.1413C102.071 78.872 103.514 87.5316 107.435 95.1827C112.65 105.36 120.772 110.855 129.155 109.881C137.494 109.039 142.878 105.045 146.624 96.9356C148.625 92.0517 148.757 85.9537 147.014 78.8112C145.518 72.6772 142.686 65.9013 138.597 58.6721C130.915 45.0889 121.255 34.2378 117.145 31.1805C116.934 31.024 116.685 30.942 116.429 30.942L116.43 30.9429Z" fill="#4D5B5F"/>
<path d="M130.496 111.697C112.73 113.529 101.629 93.6127 101.122 77.8418C100.995 74.9687 101.158 72.0846 101.584 69.242C102.963 59.7339 105.114 50.2875 108.672 41.357C110.241 37.5159 112.024 33.7336 114.376 30.3125L114.524 30.4147C113.96 31.2779 113.435 32.1668 112.941 33.0732C111.944 34.8814 111.06 36.7504 110.249 38.6498C106.233 48.1781 103.904 58.3577 102.396 68.576C101.238 75.6881 101.765 83.0785 104.089 89.9023C107.33 99.438 114.179 108.884 124.395 111.15C125.887 111.477 127.42 111.631 128.949 111.607C129.459 111.598 129.97 111.568 130.477 111.517L130.497 111.697H130.496Z" fill="#808796"/>
</g>
<path d="M35.9045 113.575C32.0895 113.575 28.502 112.788 25.142 111.212C21.817 109.637 18.947 107.45 16.532 104.65C14.117 101.85 12.3845 98.595 11.3345 94.885L25.0895 91.21C25.5445 92.995 26.3495 94.535 27.5045 95.83C28.6945 97.125 30.0595 98.14 31.5995 98.875C33.1745 99.575 34.7845 99.925 36.4295 99.925C38.5995 99.925 40.577 99.4 42.362 98.35C44.182 97.3 45.617 95.8825 46.667 94.0975C47.752 92.3125 48.2945 90.335 48.2945 88.165C48.2945 85.995 47.752 84.0175 46.667 82.2325C45.617 80.4475 44.182 79.03 42.362 77.98C40.577 76.93 38.5995 76.405 36.4295 76.405C33.7695 76.405 31.5995 76.86 29.9195 77.77C28.2395 78.645 26.9795 79.485 26.1395 80.29L14.0645 76.615L16.3745 36.4H57.6395V49.735H24.2495L29.2895 45.01L27.7145 70.945L25.2995 68.005C27.1895 66.465 29.342 65.345 31.757 64.645C34.172 63.945 36.4295 63.595 38.5295 63.595C43.2895 63.595 47.472 64.6625 51.077 66.7975C54.717 68.8975 57.552 71.8025 59.582 75.5125C61.647 79.1875 62.6795 83.405 62.6795 88.165C62.6795 92.925 61.437 97.23 58.952 101.08C56.467 104.895 53.1945 107.94 49.1345 110.215C45.0745 112.455 40.6645 113.575 35.9045 113.575Z" fill="#01A6A1"/>
<path d="M184.904 113.575C181.089 113.575 177.502 112.788 174.142 111.212C170.817 109.637 167.947 107.45 165.532 104.65C163.117 101.85 161.384 98.595 160.334 94.885L174.089 91.21C174.544 92.995 175.349 94.535 176.504 95.83C177.694 97.125 179.059 98.14 180.599 98.875C182.174 99.575 183.784 99.925 185.429 99.925C187.599 99.925 189.577 99.4 191.362 98.35C193.182 97.3 194.617 95.8825 195.667 94.0975C196.752 92.3125 197.294 90.335 197.294 88.165C197.294 85.995 196.752 84.0175 195.667 82.2325C194.617 80.4475 193.182 79.03 191.362 77.98C189.577 76.93 187.599 76.405 185.429 76.405C182.769 76.405 180.599 76.86 178.919 77.77C177.239 78.645 175.979 79.485 175.139 80.29L163.064 76.615L165.374 36.4H206.639V49.735H173.249L178.289 45.01L176.714 70.945L174.299 68.005C176.189 66.465 178.342 65.345 180.757 64.645C183.172 63.945 185.429 63.595 187.529 63.595C192.289 63.595 196.472 64.6625 200.077 66.7975C203.717 68.8975 206.552 71.8025 208.582 75.5125C210.647 79.1875 211.679 83.405 211.679 88.165C211.679 92.925 210.437 97.23 207.952 101.08C205.467 104.895 202.194 107.94 198.134 110.215C194.074 112.455 189.664 113.575 184.904 113.575Z" fill="#01A6A1"/>
<defs>
<clipPath id="clip0_766_4132">
<rect width="84" height="134" fill="white" transform="translate(73.9854 13)"/>
</clipPath>
</defs>
</svg>
