<svg width="211" height="134" viewBox="0 0 211 134" fill="none" xmlns="http://www.w3.org/2000/svg">
<g clip-path="url(#clip0_661_4106)">
<path d="M102.274 78.8614C102.261 78.551 101.036 47.4614 106.866 16.7734L108.89 17.176C103.108 47.6116 104.321 78.4617 104.334 78.7702L102.275 78.8605L102.274 78.8614Z" fill="#898C96"/>
<path d="M112.746 81.9965C112.73 81.4503 111.029 27.2538 106.927 17.3763L108.827 16.5703C113.076 26.8006 114.737 79.6863 114.806 81.9321L112.746 81.9965V81.9965Z" fill="#898C96"/>
<path d="M124.009 79.7948L121.957 79.6106C121.964 79.5332 122.619 71.7007 121.101 60.1726C119.702 49.5508 116.117 33.5229 106.984 17.4922L108.77 16.4531C118.084 32.8035 121.733 49.1391 123.153 59.9634C124.693 71.7053 124.038 79.4715 124.01 79.7957L124.009 79.7948Z" fill="#898C96"/>
<path d="M133.983 77.0193L131.978 76.5394L132.981 76.7798L131.977 76.5421C131.991 76.4832 133.311 70.5077 130.921 60.3235C128.71 50.8993 122.782 35.8468 107.101 17.6579L108.655 16.2891C115.723 24.4873 121.454 32.7619 125.689 40.8837C129.087 47.4026 131.536 53.8396 132.968 60.0177C135.426 70.6265 134.044 76.7632 133.984 77.0193H133.983Z" fill="#898C96"/>
<path d="M100.228 79.1002C100.228 79.1002 130.305 73.1091 137.2 74.7091C144.096 76.3092 134.428 87.2275 134.428 87.2275L130.614 91.7973L118.117 94.5893L109.771 90.4681L104.7 86.0807L100.228 79.1012V79.1002Z" fill="#00A6A1"/>
<path d="M110.363 69.576C109.296 69.7215 108.42 70.498 108.146 71.549C107.118 75.4805 104.457 86.1612 105.635 87.028C107.082 88.0919 121.292 89.0057 122.936 88.1499C124.58 87.2942 125.68 70.5275 124.167 69.8633C122.655 69.1992 122.867 70.1084 122.867 70.1084C122.867 70.1084 114.502 69.0104 110.363 69.576V69.576Z" fill="#2F8E73"/>
<path d="M82.0384 71.0805C81.9536 70.0341 82.752 69.1304 83.7901 69.0982C87.6535 68.9803 96.0986 68.6708 96.8067 69.6932C97.7272 71.0225 99.0724 78.0093 99.0724 78.0093L82.5014 76.7796L82.0384 71.0805V71.0805Z" fill="#FAB516"/>
<path d="M109.427 68.6306C108.361 68.7762 107.485 69.5527 107.21 70.6037C106.182 74.5352 103.521 85.2159 104.7 86.0827C106.147 87.1466 120.356 88.0604 122.001 87.2046C123.645 86.3489 125.68 70.5282 124.167 69.8631C122.654 69.1981 121.93 69.1631 121.93 69.1631C121.93 69.1631 113.566 68.0651 109.426 68.6306H109.427Z" fill="#FAB516"/>
<path d="M76.6503 78.8539C75.9531 77.053 76.91 75.033 78.7319 74.4425C79.6205 74.1542 80.6668 73.9838 81.8124 74.1155C85.2985 74.5144 99.3067 75.4447 100.754 76.9075C102.201 78.3703 108.42 92.7567 119.07 93.046C128.87 93.3122 134.493 87.5412 135.348 77.8388C135.217 72.1885 141.925 75.3793 140.591 77.5726C140.591 77.5726 141.22 98.9459 112.818 100.306C84.6733 101.654 79.1667 85.3562 76.6503 78.8548V78.8539Z" fill="#007F79"/>
<path d="M106.142 134.002C127.715 134.002 145.203 132.405 145.203 130.435C145.203 128.464 127.715 126.867 106.142 126.867C84.5686 126.867 67.0801 128.464 67.0801 130.435C67.0801 132.405 84.5686 134.002 106.142 134.002Z" fill="#808796"/>
<path d="M108.47 133.284C131.33 133.284 149.861 131.686 149.861 129.716C149.861 127.746 131.33 126.148 108.47 126.148C85.6106 126.148 67.0791 127.746 67.0791 129.716C67.0791 131.686 85.6106 133.284 108.47 133.284Z" fill="#979CA4"/>
<path d="M88.4597 130.076C99.8617 129.86 109.098 129.34 109.091 128.914C109.083 128.488 99.8331 128.317 88.4312 128.532C77.0292 128.747 67.7925 129.267 67.8004 129.694C67.8083 130.12 77.0578 130.291 88.4597 130.076Z" fill="#808796"/>
<path d="M69.2852 129.478L83.873 103.586L87.0301 108.549L75.3669 128.934L69.2852 129.478Z" fill="#979CA4"/>
<path d="M73.2617 127.828C73.2617 127.828 86.4123 108.774 85.6248 106.968C84.8374 105.161 87.0293 108.551 87.0293 108.551L76.201 127.477L73.2617 127.828Z" fill="#808796"/>
<path d="M109.291 128.789C83.3249 112.671 71.0092 77.3228 68.9594 45.0984C66.2416 2.36089 98.3202 1.93716 110.891 3.86696C111.885 4.01987 112.758 3.15123 112.816 2.13245C112.873 1.12471 112.123 0.256071 111.131 0.185143C103.03 -0.393336 69.5136 -1.66544 66.2708 32.5505C64.4261 52.0162 70.8679 105.302 104.953 128.789H109.29H109.291Z" fill="#808796"/>
<path d="M115.88 101.025C107.863 101.025 101.063 97.9956 96.1316 92.2043C92.6145 88.073 90.1055 82.5922 88.876 76.3542C87.7477 70.6311 87.7541 64.3783 88.8924 58.7501C91.9556 43.6074 96.8197 31.616 105.681 17.3594L107.427 18.4675C98.7063 32.4966 93.9215 44.2882 90.9121 59.1674C88.5579 70.8061 91.2201 83.2407 97.6947 90.8466C102.221 96.1625 108.488 98.9425 115.894 98.9425C116.422 98.9425 116.955 98.9287 117.495 98.9001L117.531 98.8983H117.568C117.62 98.9038 122.755 98.9259 128.806 94.825L129.954 96.5549C123.63 100.84 118.267 100.982 117.591 100.982H117.57C117.001 101.011 116.438 101.026 115.881 101.026L115.88 101.025Z" fill="#8A989E"/>
<path d="M114.241 101.289C111.914 101.289 110.178 101.056 109.718 100.988C109.162 101.015 108.616 101.028 108.081 101.028C97.3943 101.028 91.0145 95.6819 87.4965 91.0614C81.0538 82.5998 79.0624 69.5674 82.5412 58.6325C87.5421 42.9113 94.7075 30.1442 105.775 17.2344L107.332 18.5986C96.4556 31.2855 89.415 43.8297 84.5035 59.2709C81.2234 69.5831 83.0826 81.8491 89.1307 89.7921C92.5347 94.2633 98.8708 99.4743 109.718 98.9032L109.828 98.8976L109.935 98.9151C109.995 98.9253 116.076 99.8768 121.568 98.2427L122.15 100.241C119.378 101.065 116.525 101.289 114.242 101.289H114.241Z" fill="#8A989E"/>
<path d="M110.632 101.909C109.462 101.909 108.284 101.861 107.101 101.765C100.588 101.238 97.815 100.734 95.9622 100.308C88.6637 98.6344 82.8344 94.1438 79.1031 87.3228C76.8602 83.2227 75.4931 78.3978 75.1476 73.3683C74.8049 68.3683 75.4776 63.2652 77.0953 58.6088C81.9922 44.5097 91.6576 30.3969 105.826 16.6598C106.266 16.2075 107.395 15.5664 108.701 16.2324L107.773 18.0922C107.704 18.0563 107.495 17.9503 107.295 18.1217L107.264 18.1594L107.266 18.1493C93.3264 31.6616 83.8296 45.5064 79.0393 59.2987C75.9469 68.2035 76.6624 78.5553 80.9068 86.315C84.3455 92.6018 89.7091 96.7378 96.4179 98.277C98.0958 98.6621 100.845 99.1705 107.265 99.6891C112.111 100.081 116.859 99.6293 121.374 98.347C128.546 96.3104 131.498 93.2319 131.527 93.2006L133.031 94.6247C132.899 94.7674 129.719 98.1407 121.932 100.352C118.285 101.388 114.497 101.909 110.632 101.909V101.909Z" fill="#8A989E"/>
<path d="M109.231 2.22656H107.244C106.881 2.22656 106.586 2.52432 106.586 2.89163V4.51561C106.586 4.88292 106.881 5.18068 107.244 5.18068H109.231C109.594 5.18068 109.889 4.88292 109.889 4.51561V2.89163C109.889 2.52432 109.594 2.22656 109.231 2.22656Z" fill="#808796"/>
<path d="M108.372 3.875H108.1C107.901 3.875 107.739 4.03831 107.739 4.23977V6.46434C107.739 6.6658 107.901 6.82911 108.1 6.82911H108.372C108.571 6.82911 108.733 6.6658 108.733 6.46434V4.23977C108.733 4.03831 108.571 3.875 108.372 3.875Z" fill="#808796"/>
<path d="M108.436 8.94531H108.035C107.872 8.94531 107.739 9.07935 107.739 9.24468V10.6365C107.739 10.8019 107.872 10.9359 108.035 10.9359H108.436C108.6 10.9359 108.733 10.8019 108.733 10.6365V9.24468C108.733 9.07935 108.6 8.94531 108.436 8.94531Z" fill="#808796"/>
<path d="M108.436 13.0938H108.035C107.872 13.0938 107.739 13.2278 107.739 13.3931V14.785C107.739 14.9503 107.872 15.0843 108.035 15.0843H108.436C108.6 15.0843 108.733 14.9503 108.733 14.785V13.3931C108.733 13.2278 108.6 13.0938 108.436 13.0938Z" fill="#808796"/>
<path d="M108.313 9.4039H108.162C107.487 9.4039 106.938 8.84937 106.938 8.1668V7.53397C106.938 6.85233 107.486 6.29688 108.162 6.29688H108.313C108.987 6.29688 109.537 6.8514 109.537 7.53397V8.1668C109.537 8.84845 108.988 9.4039 108.313 9.4039ZM108.162 6.93799C107.836 6.93799 107.572 7.20512 107.572 7.53397V8.1668C107.572 8.49565 107.836 8.76278 108.162 8.76278H108.313C108.638 8.76278 108.902 8.49565 108.902 8.1668V7.53397C108.902 7.20512 108.638 6.93799 108.313 6.93799H108.162Z" fill="#808796"/>
<path d="M108.313 9.4039H108.162C107.487 9.4039 106.938 8.84937 106.938 8.1668V7.53397C106.938 6.85233 107.486 6.29688 108.162 6.29688H108.313C108.987 6.29688 109.537 6.8514 109.537 7.53397V8.1668C109.537 8.84845 108.988 9.4039 108.313 9.4039ZM108.162 6.93799C107.836 6.93799 107.572 7.20512 107.572 7.53397V8.1668C107.572 8.49565 107.836 8.76278 108.162 8.76278H108.313C108.638 8.76278 108.902 8.49565 108.902 8.1668V7.53397C108.902 7.20512 108.638 6.93799 108.313 6.93799H108.162Z" fill="#808796"/>
<path d="M108.313 13.5758H108.162C107.487 13.5758 106.938 13.0212 106.938 12.3387V11.7058C106.938 11.0242 107.486 10.4688 108.162 10.4688H108.313C108.987 10.4688 109.537 11.0233 109.537 11.7058V12.3387C109.537 13.0203 108.988 13.5758 108.313 13.5758ZM108.162 11.1099C107.836 11.1099 107.572 11.377 107.572 11.7058V12.3387C107.572 12.6675 107.836 12.9347 108.162 12.9347H108.313C108.638 12.9347 108.902 12.6675 108.902 12.3387V11.7058C108.902 11.377 108.638 11.1099 108.313 11.1099H108.162V11.1099Z" fill="#808796"/>
<path d="M109.231 14.0156H107.244C106.881 14.0156 106.586 14.3134 106.586 14.6807V16.3047C106.586 16.672 106.881 16.9697 107.244 16.9697H109.231C109.594 16.9697 109.889 16.672 109.889 16.3047V14.6807C109.889 14.3134 109.594 14.0156 109.231 14.0156Z" fill="#808796"/>
<path d="M108.47 128.513L103.86 128.016L104.954 128.786H109.29L108.47 128.513Z" fill="#979CA4"/>
<path d="M149.986 129.715C149.986 131.685 131.454 133.283 108.595 133.283C108.595 133.283 141.433 133.283 141.41 128.674C141.4 126.704 108.595 126.148 108.595 126.148C131.454 126.148 149.986 127.746 149.986 129.716V129.715Z" fill="#808796"/>
<g opacity="0.71">
<path d="M111.272 0.82741C89.7206 -0.455746 70.8665 7.54533 68.0466 31.2842C67.7249 33.9896 67.6183 36.7152 67.6219 39.44C67.8297 59.8065 72.7631 82.019 82.0858 100.119C85.4963 106.688 89.6404 112.927 94.6139 118.394C96.9425 120.968 99.4954 123.384 102.18 125.576C102.852 126.114 103.549 126.667 104.242 127.177L105.292 127.952L105.196 128.092C100.881 125.134 96.9088 121.628 93.4045 117.729C87.6709 111.394 83.0701 104.053 79.3926 96.3309C73.2926 83.4127 69.6097 69.4122 67.7987 55.2423C66.9511 48.2544 66.4772 41.1874 66.9347 34.1499C67.7076 22.4421 72.3393 11.8664 82.7493 5.87805C84.5348 4.83439 86.466 3.9547 88.4027 3.23805C94.0561 1.18666 100.091 0.406446 106.073 0.422106C107.813 0.432238 109.552 0.513299 111.283 0.657919L111.272 0.828331V0.82741Z" fill="#A8B2C4"/>
</g>
<path d="M115.88 101.025C107.863 101.025 101.063 97.9956 96.1316 92.2043C92.6145 88.073 90.1055 82.5922 88.876 76.3542C87.7477 70.6311 87.7541 64.3783 88.8924 58.7501C91.9556 43.6074 96.8197 31.616 105.681 17.3594L107.427 18.4675C98.7063 32.4966 93.9215 44.2882 90.9121 59.1674C88.5579 70.8061 91.2201 83.2407 97.6947 90.8466C102.221 96.1625 108.488 98.9425 115.894 98.9425C116.422 98.9425 116.955 98.9287 117.495 98.9001L117.531 98.8983H117.568C117.62 98.9038 122.755 98.9259 128.806 94.825L129.954 96.5549C123.63 100.84 118.267 100.982 117.591 100.982H117.57C117.001 101.011 116.438 101.026 115.881 101.026L115.88 101.025Z" fill="#8A989E"/>
<path d="M114.241 101.289C111.914 101.289 110.178 101.056 109.718 100.988C109.162 101.015 108.616 101.028 108.081 101.028C97.3943 101.028 91.0145 95.6819 87.4965 91.0614C81.0538 82.5998 79.0624 69.5674 82.5412 58.6325C87.5421 42.9113 94.7075 30.1442 105.775 17.2344L107.332 18.5986C96.4556 31.2855 89.415 43.8297 84.5035 59.2709C81.2234 69.5831 83.0826 81.8491 89.1307 89.7921C92.5347 94.2633 98.8708 99.4743 109.718 98.9032L109.828 98.8976L109.935 98.9151C109.995 98.9253 116.076 99.8768 121.568 98.2427L122.15 100.241C119.378 101.065 116.525 101.289 114.242 101.289H114.241Z" fill="#8A989E"/>
<path d="M110.632 101.909C109.462 101.909 108.284 101.861 107.101 101.765C100.588 101.238 97.815 100.734 95.9622 100.308C88.6637 98.6344 82.8344 94.1438 79.1031 87.3228C76.8602 83.2227 75.4931 78.3978 75.1476 73.3683C74.8049 68.3683 75.4776 63.2652 77.0953 58.6088C81.9922 44.5097 91.6576 30.3969 105.826 16.6598C106.266 16.2075 107.395 15.5664 108.701 16.2324L107.773 18.0922C107.704 18.0563 107.495 17.9503 107.295 18.1217L107.264 18.1594L107.266 18.1493C93.3264 31.6616 83.8296 45.5064 79.0393 59.2987C75.9469 68.2035 76.6624 78.5553 80.9068 86.315C84.3455 92.6018 89.7091 96.7378 96.4179 98.277C98.0958 98.6621 100.845 99.1705 107.265 99.6891C112.111 100.081 116.859 99.6293 121.374 98.347C128.546 96.3104 131.498 93.2319 131.527 93.2006L133.031 94.6247C132.899 94.7674 129.719 98.1407 121.932 100.352C118.285 101.388 114.497 101.909 110.632 101.909V101.909Z" fill="#8A989E"/>
<path opacity="0.72" d="M87.4965 91.062C89.3521 93.4984 92.0034 96.1375 95.6627 98.0876C91.7664 97.0642 88.345 95.1445 85.5188 92.4179C82.3672 91.4618 79.1025 87.3203 79.1025 87.3203C82.8338 94.1414 88.6631 98.6311 95.9616 100.306C97.8145 100.73 100.588 101.236 107.101 101.763C108.284 101.859 109.461 101.907 110.631 101.907C114.497 101.907 118.284 101.385 121.931 100.35C129.718 98.1383 132.898 94.765 133.03 94.6222L131.526 93.1981C131.512 93.2138 130.724 94.0345 128.989 95.1058L128.805 94.8286C122.754 98.9286 117.619 98.9065 117.566 98.9019H117.492C116.953 98.9314 116.42 98.9452 115.891 98.9452C111.011 98.9452 106.625 97.7375 102.906 95.3923C100.61 95.0671 96.1311 92.207 96.1311 92.207C98.5737 95.0764 101.476 97.2659 104.757 98.7471C100.276 98.2027 96.7582 96.5907 94.0331 94.613C91.3955 94.1893 87.4956 91.0611 87.4956 91.0611L87.4965 91.062Z" fill="#5B6C71"/>
<path d="M119.291 99.0719C115.593 99.0719 111.883 97.9416 108.456 95.7521C104.188 93.0246 100.435 88.6629 97.6055 83.1398C93.4878 75.1037 91.9722 66.0157 93.2208 56.8567C96.4152 33.4283 103.009 21.4156 105.696 17.3377C106.197 16.5759 106.966 16.0693 107.858 15.9108C108.749 15.7524 109.641 15.9624 110.368 16.5041C115.438 20.2743 125.298 32.1037 132.388 44.6395C138.894 56.1419 145.584 72.4379 140.521 84.7554L140.503 84.796C136.469 93.5432 130.392 98.0411 121.377 98.9531C120.683 99.0332 119.988 99.0737 119.291 99.0737V99.0719ZM108.43 17.9429C108.359 17.9429 108.286 17.9493 108.214 17.9622C107.882 18.0212 107.596 18.21 107.41 18.4928C104.802 22.4501 98.3984 34.1385 95.2614 57.1413C94.0711 65.872 95.5139 74.5316 99.4347 82.1827C104.65 92.3604 112.772 97.8551 121.155 96.8814C129.494 96.0386 134.878 92.0454 138.624 83.9356C140.625 79.0517 140.757 72.9537 139.014 65.8112C137.518 59.6772 134.686 52.9013 130.597 45.6721C122.915 32.0889 113.255 21.2378 109.145 18.1805C108.934 18.024 108.685 17.942 108.429 17.942L108.43 17.9429Z" fill="#4D5B5F"/>
<path d="M122.496 98.6967C104.73 100.529 93.6287 80.6127 93.122 64.8418C92.9953 61.9687 93.1575 59.0846 93.5841 56.242C94.963 46.7339 97.1139 37.2875 100.672 28.357C102.241 24.5159 104.024 20.7336 106.376 17.3125L106.524 17.4147C105.96 18.2779 105.435 19.1668 104.941 20.0732C103.944 21.8814 103.06 23.7504 102.249 25.6498C98.2331 35.1781 95.9036 45.3577 94.3961 55.576C93.2378 62.6881 93.7645 70.0785 96.0886 76.9023C99.3305 86.438 106.179 95.8844 116.395 98.1504C117.887 98.4774 119.42 98.6313 120.949 98.6073C121.459 98.5981 121.97 98.5677 122.477 98.517L122.497 98.6967H122.496Z" fill="#808796"/>
</g>
<path d="M34.6147 100.653V88.2711H0V74.2308L25.104 21.0547H42.3561L17.2521 74.2308H34.6147V54.3312H49.8762V74.2308H56.954V88.2711H49.8762V100.653H34.6147Z" fill="#01A6A1"/>
<path d="M188.631 100.653V88.2711H154.017V74.2308L179.121 21.0547H196.373L171.269 74.2308H188.631V54.3312H203.893V74.2308H210.971V88.2711H203.893V100.653H188.631Z" fill="#01A6A1"/>
<defs>
<clipPath id="clip0_661_4106">
<rect width="84" height="134" fill="white" transform="translate(65.9854)"/>
</clipPath>
</defs>
</svg>
