<svg width="208" height="151" viewBox="0 0 208 151" fill="none" xmlns="http://www.w3.org/2000/svg">
<g clip-path="url(#clip0_891_3983)">
<path d="M102.274 95.8614C102.261 95.551 101.036 64.4614 106.866 33.7734L108.89 34.176C103.108 64.6116 104.321 95.4617 104.334 95.7702L102.275 95.8605L102.274 95.8614Z" fill="#898C96"/>
<path d="M112.746 98.9965C112.73 98.4503 111.029 44.2538 106.927 34.3763L108.827 33.5703C113.076 43.8006 114.737 96.6863 114.806 98.9321L112.746 98.9965V98.9965Z" fill="#898C96"/>
<path d="M124.009 96.7948L121.957 96.6106C121.964 96.5332 122.619 88.7007 121.101 77.1726C119.702 66.5508 116.117 50.5229 106.984 34.4922L108.77 33.4531C118.084 49.8035 121.733 66.1391 123.153 76.9634C124.693 88.7053 124.038 96.4715 124.01 96.7957L124.009 96.7948Z" fill="#898C96"/>
<path d="M133.983 94.0193L131.978 93.5394L132.981 93.7798L131.977 93.5421C131.991 93.4832 133.311 87.5077 130.921 77.3235C128.71 67.8993 122.782 52.8468 107.101 34.6579L108.655 33.2891C115.723 41.4873 121.454 49.7619 125.689 57.8837C129.087 64.4026 131.536 70.8396 132.968 77.0177C135.426 87.6265 134.044 93.7632 133.984 94.0193H133.983Z" fill="#898C96"/>
<path d="M100.228 96.1002C100.228 96.1002 130.305 90.1091 137.2 91.7091C144.096 93.3092 134.428 104.227 134.428 104.227L130.614 108.797L118.117 111.589L109.771 107.468L104.7 103.081L100.228 96.1012V96.1002Z" fill="#00A6A1"/>
<path d="M110.363 86.576C109.296 86.7215 108.42 87.498 108.146 88.549C107.118 92.4805 104.457 103.161 105.635 104.028C107.082 105.092 121.292 106.006 122.936 105.15C124.58 104.294 125.68 87.5275 124.167 86.8633C122.655 86.1992 122.867 87.1084 122.867 87.1084C122.867 87.1084 114.502 86.0104 110.363 86.576V86.576Z" fill="#2F8E73"/>
<path d="M82.0384 88.0805C81.9536 87.0341 82.752 86.1304 83.7901 86.0982C87.6535 85.9803 96.0986 85.6708 96.8067 86.6932C97.7272 88.0225 99.0724 95.0093 99.0724 95.0093L82.5014 93.7796L82.0384 88.0805V88.0805Z" fill="#FAB516"/>
<path d="M109.427 85.6306C108.361 85.7762 107.485 86.5527 107.21 87.6037C106.182 91.5352 103.521 102.216 104.7 103.083C106.147 104.147 120.356 105.06 122.001 104.205C123.645 103.349 125.68 87.5282 124.167 86.8631C122.654 86.1981 121.93 86.1631 121.93 86.1631C121.93 86.1631 113.566 85.0651 109.426 85.6306H109.427Z" fill="#FAB516"/>
<path d="M76.6503 95.8539C75.9531 94.053 76.91 92.033 78.7319 91.4425C79.6205 91.1542 80.6668 90.9838 81.8124 91.1155C85.2985 91.5144 99.3067 92.4447 100.754 93.9075C102.201 95.3703 108.42 109.757 119.07 110.046C128.87 110.312 134.493 104.541 135.348 94.8388C135.217 89.1885 141.925 92.3793 140.591 94.5726C140.591 94.5726 141.22 115.946 112.818 117.306C84.6733 118.654 79.1667 102.356 76.6503 95.8548V95.8539Z" fill="#007F79"/>
<path d="M106.142 151.002C127.715 151.002 145.203 149.405 145.203 147.435C145.203 145.464 127.715 143.867 106.142 143.867C84.5686 143.867 67.0801 145.464 67.0801 147.435C67.0801 149.405 84.5686 151.002 106.142 151.002Z" fill="#808796"/>
<path d="M108.47 150.284C131.33 150.284 149.861 148.686 149.861 146.716C149.861 144.746 131.33 143.148 108.47 143.148C85.6106 143.148 67.0791 144.746 67.0791 146.716C67.0791 148.686 85.6106 150.284 108.47 150.284Z" fill="#979CA4"/>
<path d="M88.4597 147.076C99.8617 146.86 109.098 146.34 109.091 145.914C109.083 145.488 99.8331 145.317 88.4312 145.532C77.0292 145.747 67.7925 146.267 67.8004 146.694C67.8083 147.12 77.0578 147.291 88.4597 147.076Z" fill="#808796"/>
<path d="M69.2852 146.478L83.873 120.586L87.0301 125.549L75.3669 145.934L69.2852 146.478Z" fill="#979CA4"/>
<path d="M73.2617 144.828C73.2617 144.828 86.4123 125.774 85.6248 123.968C84.8374 122.161 87.0293 125.551 87.0293 125.551L76.201 144.477L73.2617 144.828Z" fill="#808796"/>
<path d="M109.291 145.789C83.3249 129.671 71.0092 94.3228 68.9594 62.0984C66.2416 19.3609 98.3202 18.9372 110.891 20.867C111.885 21.0199 112.758 20.1512 112.816 19.1324C112.873 18.1247 112.123 17.2561 111.131 17.1851C103.03 16.6067 69.5136 15.3346 66.2708 49.5505C64.4261 69.0162 70.8679 122.302 104.953 145.789H109.29H109.291Z" fill="#808796"/>
<path d="M115.88 118.025C107.863 118.025 101.063 114.996 96.1316 109.204C92.6145 105.073 90.1055 99.5922 88.876 93.3542C87.7477 87.6311 87.7541 81.3783 88.8924 75.7501C91.9556 60.6074 96.8197 48.616 105.681 34.3594L107.427 35.4675C98.7063 49.4966 93.9215 61.2882 90.9121 76.1674C88.5579 87.8061 91.2201 100.241 97.6947 107.847C102.221 113.162 108.488 115.943 115.894 115.943C116.422 115.943 116.955 115.929 117.495 115.9L117.531 115.898H117.568C117.62 115.904 122.755 115.926 128.806 111.825L129.954 113.555C123.63 117.84 118.267 117.982 117.591 117.982H117.57C117.001 118.011 116.438 118.026 115.881 118.026L115.88 118.025Z" fill="#8A989E"/>
<path d="M114.241 118.289C111.914 118.289 110.178 118.056 109.718 117.988C109.162 118.015 108.616 118.028 108.081 118.028C97.3943 118.028 91.0145 112.682 87.4965 108.061C81.0538 99.5998 79.0624 86.5674 82.5412 75.6325C87.5421 59.9113 94.7075 47.1442 105.775 34.2344L107.332 35.5986C96.4556 48.2855 89.415 60.8297 84.5035 76.2709C81.2234 86.5831 83.0826 98.8491 89.1307 106.792C92.5347 111.263 98.8708 116.474 109.718 115.903L109.828 115.898L109.935 115.915C109.995 115.925 116.076 116.877 121.568 115.243L122.15 117.241C119.378 118.065 116.525 118.289 114.242 118.289H114.241Z" fill="#8A989E"/>
<path d="M110.632 118.909C109.462 118.909 108.284 118.861 107.101 118.765C100.588 118.238 97.815 117.734 95.9622 117.308C88.6637 115.634 82.8344 111.144 79.1031 104.323C76.8602 100.223 75.4931 95.3978 75.1476 90.3683C74.8049 85.3683 75.4776 80.2652 77.0953 75.6088C81.9922 61.5097 91.6576 47.3969 105.826 33.6598C106.266 33.2075 107.395 32.5664 108.701 33.2324L107.773 35.0922C107.704 35.0563 107.495 34.9503 107.295 35.1217L107.264 35.1594L107.266 35.1493C93.3264 48.6616 83.8296 62.5064 79.0393 76.2987C75.9469 85.2035 76.6624 95.5553 80.9068 103.315C84.3455 109.602 89.7091 113.738 96.4179 115.277C98.0958 115.662 100.845 116.171 107.265 116.689C112.111 117.081 116.859 116.629 121.374 115.347C128.546 113.31 131.498 110.232 131.527 110.201L133.031 111.625C132.899 111.767 129.719 115.141 121.932 117.352C118.285 118.388 114.497 118.909 110.632 118.909V118.909Z" fill="#8A989E"/>
<path d="M109.231 19.2266H107.244C106.881 19.2266 106.586 19.5243 106.586 19.8916V21.5156C106.586 21.8829 106.881 22.1807 107.244 22.1807H109.231C109.594 22.1807 109.889 21.8829 109.889 21.5156V19.8916C109.889 19.5243 109.594 19.2266 109.231 19.2266Z" fill="#808796"/>
<path d="M108.372 20.875H108.1C107.901 20.875 107.739 21.0383 107.739 21.2398V23.4643C107.739 23.6658 107.901 23.8291 108.1 23.8291H108.372C108.571 23.8291 108.733 23.6658 108.733 23.4643V21.2398C108.733 21.0383 108.571 20.875 108.372 20.875Z" fill="#808796"/>
<path d="M108.436 25.9453H108.035C107.872 25.9453 107.739 26.0793 107.739 26.2447V27.6365C107.739 27.8019 107.872 27.9359 108.035 27.9359H108.436C108.6 27.9359 108.733 27.8019 108.733 27.6365V26.2447C108.733 26.0793 108.6 25.9453 108.436 25.9453Z" fill="#808796"/>
<path d="M108.436 30.0938H108.035C107.872 30.0938 107.739 30.2278 107.739 30.3931V31.785C107.739 31.9503 107.872 32.0843 108.035 32.0843H108.436C108.6 32.0843 108.733 31.9503 108.733 31.785V30.3931C108.733 30.2278 108.6 30.0938 108.436 30.0938Z" fill="#808796"/>
<path d="M108.313 26.4039H108.162C107.487 26.4039 106.938 25.8494 106.938 25.1668V24.534C106.938 23.8523 107.486 23.2969 108.162 23.2969H108.313C108.987 23.2969 109.537 23.8514 109.537 24.534V25.1668C109.537 25.8484 108.988 26.4039 108.313 26.4039ZM108.162 23.938C107.836 23.938 107.572 24.2051 107.572 24.534V25.1668C107.572 25.4957 107.836 25.7628 108.162 25.7628H108.313C108.638 25.7628 108.902 25.4957 108.902 25.1668V24.534C108.902 24.2051 108.638 23.938 108.313 23.938H108.162Z" fill="#808796"/>
<path d="M108.313 26.4039H108.162C107.487 26.4039 106.938 25.8494 106.938 25.1668V24.534C106.938 23.8523 107.486 23.2969 108.162 23.2969H108.313C108.987 23.2969 109.537 23.8514 109.537 24.534V25.1668C109.537 25.8484 108.988 26.4039 108.313 26.4039ZM108.162 23.938C107.836 23.938 107.572 24.2051 107.572 24.534V25.1668C107.572 25.4957 107.836 25.7628 108.162 25.7628H108.313C108.638 25.7628 108.902 25.4957 108.902 25.1668V24.534C108.902 24.2051 108.638 23.938 108.313 23.938H108.162Z" fill="#808796"/>
<path d="M108.313 30.5758H108.162C107.487 30.5758 106.938 30.0212 106.938 29.3387V28.7058C106.938 28.0242 107.486 27.4688 108.162 27.4688H108.313C108.987 27.4688 109.537 28.0233 109.537 28.7058V29.3387C109.537 30.0203 108.988 30.5758 108.313 30.5758ZM108.162 28.1099C107.836 28.1099 107.572 28.377 107.572 28.7058V29.3387C107.572 29.6675 107.836 29.9347 108.162 29.9347H108.313C108.638 29.9347 108.902 29.6675 108.902 29.3387V28.7058C108.902 28.377 108.638 28.1099 108.313 28.1099H108.162V28.1099Z" fill="#808796"/>
<path d="M109.231 31.0156H107.244C106.881 31.0156 106.586 31.3134 106.586 31.6807V33.3047C106.586 33.672 106.881 33.9697 107.244 33.9697H109.231C109.594 33.9697 109.889 33.672 109.889 33.3047V31.6807C109.889 31.3134 109.594 31.0156 109.231 31.0156Z" fill="#808796"/>
<path d="M108.47 145.513L103.86 145.016L104.954 145.786H109.29L108.47 145.513Z" fill="#979CA4"/>
<path d="M149.986 146.715C149.986 148.685 131.454 150.283 108.595 150.283C108.595 150.283 141.433 150.283 141.41 145.674C141.4 143.704 108.595 143.148 108.595 143.148C131.454 143.148 149.986 144.746 149.986 146.716V146.715Z" fill="#808796"/>
<g opacity="0.71">
<path d="M111.272 17.8274C89.7206 16.5443 70.8665 24.5453 68.0466 48.2842C67.7249 50.9896 67.6183 53.7152 67.6219 56.44C67.8297 76.8065 72.7631 99.019 82.0858 117.119C85.4963 123.688 89.6404 129.927 94.6139 135.394C96.9425 137.968 99.4954 140.384 102.18 142.576C102.852 143.114 103.549 143.667 104.242 144.177L105.292 144.952L105.196 145.092C100.881 142.134 96.9088 138.628 93.4045 134.729C87.6709 128.394 83.0701 121.053 79.3926 113.331C73.2926 100.413 69.6097 86.4122 67.7987 72.2423C66.9511 65.2544 66.4772 58.1874 66.9347 51.1499C67.7076 39.4421 72.3393 28.8664 82.7493 22.8781C84.5348 21.8344 86.466 20.9547 88.4027 20.238C94.0561 18.1867 100.091 17.4064 106.073 17.4221C107.813 17.4322 109.552 17.5133 111.283 17.6579L111.272 17.8283V17.8274Z" fill="#A8B2C4"/>
</g>
<path d="M115.88 118.025C107.863 118.025 101.063 114.996 96.1316 109.204C92.6145 105.073 90.1055 99.5922 88.876 93.3542C87.7477 87.6311 87.7541 81.3783 88.8924 75.7501C91.9556 60.6074 96.8197 48.616 105.681 34.3594L107.427 35.4675C98.7063 49.4966 93.9215 61.2882 90.9121 76.1674C88.5579 87.8061 91.2201 100.241 97.6947 107.847C102.221 113.162 108.488 115.943 115.894 115.943C116.422 115.943 116.955 115.929 117.495 115.9L117.531 115.898H117.568C117.62 115.904 122.755 115.926 128.806 111.825L129.954 113.555C123.63 117.84 118.267 117.982 117.591 117.982H117.57C117.001 118.011 116.438 118.026 115.881 118.026L115.88 118.025Z" fill="#8A989E"/>
<path d="M114.241 118.289C111.914 118.289 110.178 118.056 109.718 117.988C109.162 118.015 108.616 118.028 108.081 118.028C97.3943 118.028 91.0145 112.682 87.4965 108.061C81.0538 99.5998 79.0624 86.5674 82.5412 75.6325C87.5421 59.9113 94.7075 47.1442 105.775 34.2344L107.332 35.5986C96.4556 48.2855 89.415 60.8297 84.5035 76.2709C81.2234 86.5831 83.0826 98.8491 89.1307 106.792C92.5347 111.263 98.8708 116.474 109.718 115.903L109.828 115.898L109.935 115.915C109.995 115.925 116.076 116.877 121.568 115.243L122.15 117.241C119.378 118.065 116.525 118.289 114.242 118.289H114.241Z" fill="#8A989E"/>
<path d="M110.632 118.909C109.462 118.909 108.284 118.861 107.101 118.765C100.588 118.238 97.815 117.734 95.9622 117.308C88.6637 115.634 82.8344 111.144 79.1031 104.323C76.8602 100.223 75.4931 95.3978 75.1476 90.3683C74.8049 85.3683 75.4776 80.2652 77.0953 75.6088C81.9922 61.5097 91.6576 47.3969 105.826 33.6598C106.266 33.2075 107.395 32.5664 108.701 33.2324L107.773 35.0922C107.704 35.0563 107.495 34.9503 107.295 35.1217L107.264 35.1594L107.266 35.1493C93.3264 48.6616 83.8296 62.5064 79.0393 76.2987C75.9469 85.2035 76.6624 95.5553 80.9068 103.315C84.3455 109.602 89.7091 113.738 96.4179 115.277C98.0958 115.662 100.845 116.171 107.265 116.689C112.111 117.081 116.859 116.629 121.374 115.347C128.546 113.31 131.498 110.232 131.527 110.201L133.031 111.625C132.899 111.767 129.719 115.141 121.932 117.352C118.285 118.388 114.497 118.909 110.632 118.909V118.909Z" fill="#8A989E"/>
<path opacity="0.72" d="M87.4965 108.062C89.3521 110.498 92.0034 113.138 95.6627 115.088C91.7664 114.064 88.345 112.145 85.5188 109.418C82.3672 108.462 79.1025 104.32 79.1025 104.32C82.8338 111.141 88.6631 115.631 95.9616 117.306C97.8145 117.73 100.588 118.236 107.101 118.763C108.284 118.859 109.461 118.907 110.631 118.907C114.497 118.907 118.284 118.385 121.931 117.35C129.718 115.138 132.898 111.765 133.03 111.622L131.526 110.198C131.512 110.214 130.724 111.035 128.989 112.106L128.805 111.829C122.754 115.929 117.619 115.906 117.566 115.902H117.492C116.953 115.931 116.42 115.945 115.891 115.945C111.011 115.945 106.625 114.738 102.906 112.392C100.61 112.067 96.1311 109.207 96.1311 109.207C98.5737 112.076 101.476 114.266 104.757 115.747C100.276 115.203 96.7582 113.591 94.0331 111.613C91.3955 111.189 87.4956 108.061 87.4956 108.061L87.4965 108.062Z" fill="#5B6C71"/>
<path d="M119.291 116.072C115.593 116.072 111.883 114.942 108.456 112.752C104.188 110.025 100.435 105.663 97.6055 100.14C93.4878 92.1037 91.9722 83.0157 93.2208 73.8567C96.4152 50.4283 103.009 38.4156 105.696 34.3377C106.197 33.5759 106.966 33.0693 107.858 32.9108C108.749 32.7524 109.641 32.9624 110.368 33.5041C115.438 37.2743 125.298 49.1037 132.388 61.6395C138.894 73.1419 145.584 89.4379 140.521 101.755L140.503 101.796C136.469 110.543 130.392 115.041 121.377 115.953C120.683 116.033 119.988 116.074 119.291 116.074V116.072ZM108.43 34.9429C108.359 34.9429 108.286 34.9493 108.214 34.9622C107.882 35.0212 107.596 35.21 107.41 35.4928C104.802 39.4501 98.3984 51.1385 95.2614 74.1413C94.0711 82.872 95.5139 91.5316 99.4347 99.1827C104.65 109.36 112.772 114.855 121.155 113.881C129.494 113.039 134.878 109.045 138.624 100.936C140.625 96.0517 140.757 89.9537 139.014 82.8112C137.518 76.6772 134.686 69.9013 130.597 62.6721C122.915 49.0889 113.255 38.2378 109.145 35.1805C108.934 35.024 108.685 34.942 108.429 34.942L108.43 34.9429Z" fill="#4D5B5F"/>
<path d="M122.496 115.697C104.73 117.529 93.6287 97.6127 93.122 81.8418C92.9953 78.9687 93.1575 76.0846 93.5841 73.242C94.963 63.7339 97.1139 54.2875 100.672 45.357C102.241 41.5159 104.024 37.7336 106.376 34.3125L106.524 34.4147C105.96 35.2779 105.435 36.1668 104.941 37.0732C103.944 38.8814 103.06 40.7504 102.249 42.6498C98.2331 52.1781 95.9036 62.3577 94.3961 72.576C93.2378 79.6881 93.7645 87.0785 96.0886 93.9023C99.3305 103.438 106.179 112.884 116.395 115.15C117.887 115.477 119.42 115.631 120.949 115.607C121.459 115.598 121.97 115.568 122.477 115.517L122.497 115.697H122.496Z" fill="#808796"/>
</g>
<path d="M176.8 118.43C172.84 118.43 169.063 117.642 165.47 116.065C161.877 114.452 158.742 112.197 156.065 109.3C153.425 106.403 151.537 102.993 150.4 99.07L164.92 95.22C165.69 98.1167 167.193 100.372 169.43 101.985C171.703 103.562 174.16 104.35 176.8 104.35C179.073 104.35 181.145 103.8 183.015 102.7C184.922 101.6 186.425 100.115 187.525 98.245C188.662 96.375 189.23 94.3033 189.23 92.03C189.23 88.62 188.057 85.705 185.71 83.285C183.4 80.8283 180.43 79.6 176.8 79.6C175.7 79.6 174.637 79.765 173.61 80.095C172.583 80.3883 171.593 80.81 170.64 81.36L163.93 69.59L189.12 48.69L190.22 51.88H153.48V37.8H202.98V51.88L183.4 70.8L183.29 66.62C187.837 67.3167 191.668 68.9117 194.785 71.405C197.938 73.8617 200.322 76.905 201.935 80.535C203.585 84.1283 204.41 87.96 204.41 92.03C204.41 97.0167 203.145 101.508 200.615 105.505C198.085 109.465 194.73 112.618 190.55 114.965C186.37 117.275 181.787 118.43 176.8 118.43Z" fill="#01A6A1"/>
<path d="M31.24 118.65C27.2433 118.65 23.485 117.825 19.965 116.175C16.4817 114.525 13.475 112.233 10.945 109.3C8.415 106.367 6.6 102.957 5.5 99.07L19.91 95.22C20.3867 97.09 21.23 98.7033 22.44 100.06C23.6867 101.417 25.1167 102.48 26.73 103.25C28.38 103.983 30.0667 104.35 31.79 104.35C34.0633 104.35 36.135 103.8 38.005 102.7C39.9117 101.6 41.415 100.115 42.515 98.245C43.6517 96.375 44.22 94.3033 44.22 92.03C44.22 89.7567 43.6517 87.685 42.515 85.815C41.415 83.945 39.9117 82.46 38.005 81.36C36.135 80.26 34.0633 79.71 31.79 79.71C29.0033 79.71 26.73 80.1867 24.97 81.14C23.21 82.0567 21.89 82.9367 21.01 83.78L8.36 79.93L10.78 37.8H54.01V51.77H19.03L24.31 46.82L22.66 73.99L20.13 70.91C22.11 69.2967 24.365 68.1233 26.895 67.39C29.425 66.6567 31.79 66.29 33.99 66.29C38.9767 66.29 43.3583 67.4083 47.135 69.645C50.9483 71.845 53.9183 74.8883 56.045 78.775C58.2083 82.625 59.29 87.0433 59.29 92.03C59.29 97.0167 57.9883 101.527 55.385 105.56C52.7817 109.557 49.3533 112.747 45.1 115.13C40.8467 117.477 36.2267 118.65 31.24 118.65Z" fill="#01A6A1"/>
<defs>
<clipPath id="clip0_891_3983">
<rect width="84" height="134" fill="white" transform="translate(65.9854 17)"/>
</clipPath>
</defs>
</svg>
