<svg width="48" height="48" viewBox="0 0 48 48" fill="none" xmlns="http://www.w3.org/2000/svg">
<circle cx="24" cy="24" r="24" fill="#FE6D60"/>
<path d="M27.1349 19.4545V22.0682H19.392V19.4545H27.1349ZM21.1644 32V18.5479C21.1644 17.6386 21.3414 16.8845 21.6953 16.2855C22.0547 15.6866 22.5447 15.2373 23.1655 14.9379C23.7862 14.6384 24.4914 14.4886 25.2809 14.4886C25.8145 14.4886 26.3018 14.5295 26.7429 14.6112C27.1894 14.6928 27.5215 14.7663 27.7393 14.8317L27.1186 17.4453C26.9825 17.4018 26.8137 17.3609 26.6122 17.3228C26.4162 17.2847 26.2147 17.2656 26.0078 17.2656C25.496 17.2656 25.1393 17.3854 24.9379 17.625C24.7364 17.8591 24.6357 18.1886 24.6357 18.6133V32H21.1644Z" fill="white"/>
</svg>
