<svg width="48" height="48" viewBox="0 0 48 48" fill="none" xmlns="http://www.w3.org/2000/svg">
<circle cx="24" cy="24" r="24" fill="#FE6D60"/>
<path d="M20.7273 22.125C20.6477 21.8485 20.536 21.6042 20.392 21.392C20.2481 21.1761 20.072 20.9943 19.8636 20.8466C19.6591 20.6951 19.4242 20.5795 19.1591 20.5C18.8977 20.4205 18.608 20.3807 18.2898 20.3807C17.6951 20.3807 17.1723 20.5284 16.7216 20.8239C16.2746 21.1193 15.9261 21.5492 15.6761 22.1136C15.4261 22.6742 15.3011 23.3598 15.3011 24.1705C15.3011 24.9811 15.4242 25.6705 15.6705 26.2386C15.9167 26.8068 16.2652 27.2405 16.7159 27.5398C17.1667 27.8352 17.6989 27.983 18.3125 27.983C18.8693 27.983 19.3447 27.8845 19.7386 27.6875C20.1364 27.4867 20.4394 27.2045 20.6477 26.8409C20.8598 26.4773 20.9659 26.0473 20.9659 25.5511L21.4659 25.625H18.4659V23.7727H23.3352V25.2386C23.3352 26.2614 23.1193 27.1402 22.6875 27.875C22.2557 28.6061 21.661 29.1705 20.9034 29.5682C20.1458 29.9621 19.2784 30.1591 18.3011 30.1591C17.2102 30.1591 16.2519 29.9186 15.4261 29.4375C14.6004 28.9527 13.9564 28.2652 13.4943 27.375C13.036 26.4811 12.8068 25.4205 12.8068 24.1932C12.8068 23.25 12.9432 22.4091 13.2159 21.6705C13.4924 20.928 13.8788 20.2992 14.375 19.7841C14.8712 19.2689 15.4489 18.8769 16.108 18.608C16.767 18.339 17.4811 18.2045 18.25 18.2045C18.9091 18.2045 19.5227 18.3011 20.0909 18.4943C20.6591 18.6837 21.1629 18.9527 21.6023 19.3011C22.0455 19.6496 22.4072 20.0644 22.6875 20.5455C22.9678 21.0227 23.1477 21.5492 23.2273 22.125H20.7273ZM28.5923 28.2273V20.1818H30.6264V28.2273H28.5923ZM25.5866 25.2216V23.1875H33.6321V25.2216H25.5866Z" fill="white"/>
</svg>
