<svg width="18" height="23" viewBox="0 0 18 23" fill="none" xmlns="http://www.w3.org/2000/svg">
<path fill-rule="evenodd" clip-rule="evenodd" d="M9 8C10.6569 8 12 6.65685 12 5C12 3.34315 10.6569 2 9 2C7.34315 2 6 3.34315 6 5C6 6.65685 7.34315 8 9 8ZM9 10C11.7614 10 14 7.76142 14 5C14 2.23858 11.7614 0 9 0C6.23858 0 4 2.23858 4 5C4 7.76142 6.23858 10 9 10Z" fill="#FE6D60"/>
<path fill-rule="evenodd" clip-rule="evenodd" d="M2.63604 15.636C4.32387 13.9482 6.61305 13 9 13C11.3869 13 13.6761 13.9482 15.364 15.636C17.0518 17.3239 18 19.6131 18 22C18 22.5523 17.5523 23 17 23C16.4477 23 16 22.5523 16 22C16 20.1435 15.2625 18.363 13.9497 17.0503C12.637 15.7375 10.8565 15 9 15C7.14349 15 5.36301 15.7375 4.05025 17.0503C2.7375 18.363 2 20.1435 2 22C2 22.5523 1.55228 23 1 23C0.447715 23 -1.19209e-07 22.5523 0 22C3.57628e-07 19.6131 0.948212 17.3239 2.63604 15.636Z" fill="#FE6D60"/>
</svg>
