<svg width="430" height="502" viewBox="0 0 430 502" fill="none" xmlns="http://www.w3.org/2000/svg">
<g clip-path="url(#clip0_588_4227)">
<path d="M416.102 185.024H13.5296C9.94263 185.02 6.50371 183.592 3.96731 181.053C1.43091 178.514 0.00414185 175.072 0 171.482V13.5419C0.00414185 9.95166 1.43091 6.50962 3.96731 3.97091C6.50371 1.43221 9.94263 0.00414561 13.5296 0H416.102C419.689 0.00414561 423.128 1.43221 425.664 3.97091C428.201 6.50962 429.628 9.95166 429.632 13.5419V171.482C429.628 175.072 428.201 178.514 425.664 181.053C423.128 183.592 419.689 185.02 416.102 185.024V185.024Z" fill="#F2F2F2"/>
<path d="M322.213 176.388H77.4316C59.1908 176.367 41.703 169.105 28.8048 156.195C15.9067 143.286 8.65144 125.782 8.63086 107.525V77.5083C8.65142 59.2509 15.9066 41.7471 28.8048 28.8372C41.703 15.9272 59.1907 8.66524 77.4316 8.64453H352.202C370.443 8.66524 387.93 15.9272 400.829 28.8372C413.727 41.7471 420.982 59.2509 421.003 77.5083C420.973 103.724 410.555 128.857 392.035 147.394C373.515 165.931 348.404 176.358 322.213 176.388Z" fill="white"/>
<path d="M259.069 53.856H97.2657C96.3402 53.856 95.4527 53.4881 94.7984 52.8331C94.144 52.1781 93.7764 51.2898 93.7764 50.3636C93.7764 49.4373 94.144 48.549 94.7984 47.894C95.4527 47.2391 96.3402 46.8711 97.2657 46.8711H259.069C259.994 46.8711 260.882 47.2391 261.536 47.894C262.191 48.549 262.558 49.4373 262.558 50.3636C262.558 51.2898 262.191 52.1781 261.536 52.8331C260.882 53.4881 259.994 53.856 259.069 53.856V53.856Z" fill="#E6E6E6"/>
<path d="M340.977 91.1197H97.2657C96.3402 91.1197 95.4527 90.7517 94.7984 90.0968C94.144 89.4418 93.7764 88.5535 93.7764 87.6272C93.7764 86.701 94.144 85.8126 94.7984 85.1577C95.4527 84.5027 96.3402 84.1348 97.2657 84.1348H340.977C341.902 84.1348 342.79 84.5027 343.444 85.1577C344.098 85.8126 344.466 86.701 344.466 87.6272C344.466 88.5535 344.098 89.4418 343.444 90.0968C342.79 90.7517 341.902 91.1197 340.977 91.1197V91.1197Z" fill="#E6E6E6"/>
<path d="M340.977 128.381H97.2657C96.3402 128.381 95.4527 128.013 94.7984 127.358C94.144 126.704 93.7764 125.815 93.7764 124.889C93.7764 123.963 94.144 123.074 94.7984 122.419C95.4527 121.764 96.3402 121.396 97.2657 121.396H340.977C341.902 121.396 342.79 121.764 343.444 122.419C344.098 123.074 344.466 123.963 344.466 124.889C344.466 125.815 344.098 126.704 343.444 127.358C342.79 128.013 341.902 128.381 340.977 128.381V128.381Z" fill="#E6E6E6"/>
<path d="M340.977 128.381H97.2657C96.3402 128.381 95.4527 128.013 94.7984 127.358C94.144 126.704 93.7764 125.815 93.7764 124.889C93.7764 123.963 94.144 123.074 94.7984 122.419C95.4527 121.764 96.3402 121.396 97.2657 121.396H340.977C341.902 121.396 342.79 121.764 343.444 122.419C344.098 123.074 344.466 123.963 344.466 124.889C344.466 125.815 344.098 126.704 343.444 127.358C342.79 128.013 341.902 128.381 340.977 128.381V128.381Z" fill="#E6E6E6"/>
<path d="M241.995 95.3954C242.034 96.4474 242.303 97.4781 242.782 98.4149C243.262 99.3517 243.941 100.172 244.772 100.817C245.603 101.463 246.565 101.918 247.59 102.152C248.616 102.385 249.68 102.39 250.708 102.167L264.015 124.017L269.678 111.988L256.174 93.0835C255.685 91.38 254.589 89.9151 253.093 88.9664C251.598 88.0176 249.806 87.651 248.058 87.936C246.311 88.221 244.728 89.1377 243.611 90.5125C242.493 91.8874 241.918 93.6247 241.995 95.3954H241.995Z" fill="#FFB6B6"/>
<path d="M341.854 158.016L295.997 133.119L281.532 119.536C281.532 119.536 275.244 117.85 277.558 115.804C279.873 113.758 273.277 111.784 273.277 111.784L265.512 104.492L254.479 112.306L257.672 117.261C257.672 117.261 257.452 125.463 261.941 123.885C266.43 122.307 265.308 129.109 265.308 129.109L292.103 170.682L341.854 158.016Z" fill="#3F3D56"/>
<path d="M206.487 134.56C231.225 134.56 251.279 114.488 251.279 89.7274C251.279 64.9669 231.225 44.8945 206.487 44.8945C181.748 44.8945 161.694 64.9669 161.694 89.7274C161.694 114.488 181.748 134.56 206.487 134.56Z" fill="#F6B6B0"/>
<path d="M341.996 484.569H332.682L328.25 448.613H341.996V484.569Z" fill="#FFB6B6"/>
<path d="M346.912 500.72H340.233L339.041 494.408L335.988 500.72H318.273C317.424 500.72 316.597 500.448 315.913 499.945C315.229 499.441 314.724 498.732 314.471 497.92C314.219 497.109 314.232 496.238 314.509 495.435C314.786 494.631 315.312 493.937 316.011 493.454L330.157 483.676V477.295L345.036 478.184L346.912 500.72Z" fill="#2F2E41"/>
<path d="M267.507 484.569H258.194L253.762 448.613H267.507V484.569Z" fill="#FFB6B6"/>
<path d="M272.423 500.72H265.744L264.552 494.408L261.498 500.72H243.784C242.935 500.72 242.108 500.448 241.424 499.945C240.74 499.441 240.235 498.732 239.982 497.92C239.729 497.109 239.743 496.238 240.019 495.435C240.296 494.631 240.823 493.937 241.521 493.454L255.668 483.676V477.295L270.547 478.184L272.423 500.72Z" fill="#2F2E41"/>
<path d="M332.114 212.637H285.106V266.202H332.114V212.637Z" fill="#FFB6B6"/>
<path d="M286.191 239.059L278.236 248.469L264.495 277.423L229.872 359.877L222.55 377.314L228.463 408.141C228.463 408.141 229.42 429.858 229.42 433.413C229.42 440.652 235.469 444.662 235.469 444.662L239.906 467.796L282.937 465.986C282.937 465.986 281.435 440.487 272.423 434.054C263.41 427.622 259.267 394.1 259.267 394.1L254.37 379.227L302.101 322.595L302.409 342.391L302.558 351.972C302.558 351.972 295.569 414.291 303.717 426.386C311.864 438.48 303.883 437.057 303.883 437.057L304.271 462.005L355.256 462.367L344.008 390.541C344.008 390.541 338.296 386.027 341.352 381.49C344.408 376.952 338.391 371.395 338.391 371.395L341.089 315.323C341.089 315.323 338.101 305.637 341.616 304.378C345.131 303.12 342.078 294.791 342.078 294.791L342.6 283.937L332.114 250.278L286.191 239.059Z" fill="#2F2E41"/>
<path d="M332.837 212.637L337.899 197.436L341.515 192.369L342.962 177.892C342.962 138.804 334.251 145.313 334.251 145.313L329.221 131.566L306.079 130.842L291.253 144.957L278.959 149.3L274.145 174.338L282.936 201.055L285.106 215.533C280.967 223.18 281.317 219.563 284.744 225.305L325.605 236.524C340.069 241.591 340.069 228.562 337.169 225.305C334.268 222.047 332.837 212.637 332.837 212.637Z" fill="#3F3D56"/>
<path d="M314.661 125.983C326.509 125.983 336.114 116.37 336.114 104.51C336.114 92.651 326.509 83.0371 314.661 83.0371C302.812 83.0371 293.207 92.651 293.207 104.51C293.207 116.37 302.812 125.983 314.661 125.983Z" fill="#FFB6B6"/>
<path d="M343.302 133.174C343.504 133.515 343.627 133.898 343.661 134.293C343.694 134.688 343.639 135.086 343.498 135.457C343.357 135.828 343.134 136.162 342.846 136.435C342.558 136.707 342.212 136.911 341.834 137.032C338.956 137.987 337.184 140.774 335.116 143.003C333.054 145.226 329.735 147.072 327.102 145.559C324.477 144.053 324.297 140.209 322.098 138.125C319.957 136.098 316.399 136.344 313.882 137.886L313.807 137.932C313.373 138.216 312.865 138.365 312.346 138.363C311.828 138.361 311.321 138.206 310.889 137.919C310.458 137.631 310.119 137.224 309.917 136.746C309.714 136.268 309.656 135.741 309.749 135.231C310.631 130.537 311.512 125.843 312.393 121.15C310.078 126.732 306.717 131.818 302.492 136.134C301.328 137.478 299.853 138.517 298.196 139.16C296.692 139.638 295.231 138.081 293.77 138.364C297.401 135.186 309.608 114.817 307.424 101.201C304.857 101.491 302.29 101.78 299.722 102.07C299.444 100.853 298.851 99.7324 298.001 98.8195C298.105 100.003 297.954 101.195 297.56 102.316C296.49 102.439 295.412 102.555 294.342 102.678C292.852 102.844 291.232 102.989 289.952 102.207C287.818 100.904 287.753 97.8206 288.361 95.3884C290.14 88.3164 295.535 82.4025 302.138 79.3045C308.741 76.2136 310.693 83.0974 317.65 80.897C331.391 76.5539 341.921 83.9806 345.631 97.7627C348.748 109.323 346.484 121.592 343.302 133.174Z" fill="#2F2E41"/>
<path d="M402.695 501.187H376.426L376.313 500.982C375.977 500.372 375.653 499.726 375.35 499.062C372.644 493.264 371.5 486.632 370.491 480.782L369.731 476.371C369.639 475.837 369.708 475.288 369.93 474.793C370.152 474.299 370.516 473.882 370.976 473.596C371.436 473.31 371.971 473.168 372.512 473.187C373.053 473.207 373.576 473.388 374.014 473.707C378.006 476.615 382 479.52 385.995 482.422C387.508 483.524 389.236 484.799 390.89 486.177C391.05 485.401 391.217 484.622 391.384 483.855C391.499 483.325 391.769 482.841 392.161 482.466C392.552 482.091 393.046 481.841 393.58 481.749C394.114 481.656 394.663 481.726 395.158 481.947C395.652 482.169 396.069 482.534 396.355 482.994L399.429 487.937C401.671 491.546 403.649 495.103 403.246 498.939C403.248 498.986 403.245 499.033 403.236 499.079C403.155 499.709 403.006 500.328 402.79 500.926L402.695 501.187Z" fill="#F0F0F0"/>
<path d="M429.063 501.756L179.433 501.999C179.184 501.998 178.945 501.898 178.769 501.721C178.594 501.545 178.495 501.305 178.495 501.056C178.495 500.807 178.594 500.567 178.769 500.391C178.945 500.214 179.184 500.114 179.433 500.113L429.063 499.869C429.312 499.87 429.55 499.97 429.726 500.147C429.902 500.324 430 500.563 430 500.813C430 501.062 429.902 501.301 429.726 501.478C429.55 501.655 429.312 501.755 429.063 501.756V501.756Z" fill="#CACACA"/>
<path d="M202.415 150.067L174.957 126.858C174.018 126.063 173.433 124.928 173.33 123.701C173.227 122.475 173.614 121.258 174.406 120.316L179.46 114.327C180.254 113.387 181.388 112.801 182.614 112.698C183.839 112.595 185.055 112.982 185.995 113.775L213.454 136.984C214.392 137.78 214.977 138.915 215.081 140.141C215.184 141.368 214.797 142.585 214.005 143.526L208.951 149.516C208.156 150.455 207.022 151.041 205.797 151.144C204.572 151.248 203.355 150.86 202.415 150.067V150.067Z" fill="#3F3D56"/>
<path d="M176.397 120.8C175.97 121.307 175.762 121.963 175.817 122.624C175.873 123.285 176.188 123.897 176.694 124.325L204.152 147.535C204.659 147.962 205.315 148.171 205.975 148.115C206.635 148.059 207.246 147.744 207.674 147.237L212.728 141.248C213.155 140.74 213.364 140.084 213.308 139.423C213.252 138.763 212.937 138.151 212.431 137.722L184.973 114.513C184.466 114.086 183.811 113.877 183.151 113.933C182.49 113.988 181.879 114.304 181.451 114.81L176.397 120.8Z" fill="white"/>
<path d="M192.517 129.822C192.422 129.956 192.297 130.065 192.152 130.142C192.007 130.219 191.846 130.261 191.682 130.264L187.368 130.363C187.229 130.367 187.092 130.342 186.962 130.292C186.833 130.242 186.715 130.167 186.615 130.071C186.514 129.975 186.434 129.861 186.378 129.734C186.322 129.607 186.292 129.47 186.288 129.331C186.285 129.193 186.309 129.055 186.359 128.925C186.41 128.796 186.485 128.678 186.58 128.577C186.676 128.477 186.791 128.396 186.918 128.34C187.044 128.284 187.181 128.254 187.32 128.251L190.142 128.186L187.362 120.845C187.264 120.583 187.273 120.293 187.388 120.038C187.504 119.783 187.715 119.584 187.976 119.485C188.238 119.385 188.528 119.394 188.783 119.509C189.038 119.623 189.237 119.834 189.337 120.096L192.645 128.833C192.705 128.991 192.726 129.162 192.707 129.329C192.687 129.497 192.628 129.658 192.534 129.798L192.517 129.822Z" fill="#F6B6B0"/>
<path d="M193.071 131.668C194.112 131.821 195.106 132.2 195.984 132.779C196.862 133.359 197.603 134.124 198.154 135.02C198.705 135.917 199.053 136.924 199.173 137.97C199.293 139.016 199.182 140.075 198.849 141.074L219.103 156.689L206.54 161.016L189.233 145.524C187.594 144.852 186.259 143.603 185.479 142.011C184.699 140.42 184.53 138.598 185.003 136.89C185.476 135.182 186.559 133.707 188.046 132.744C189.533 131.782 191.321 131.399 193.071 131.668L193.071 131.668Z" fill="#FFB6B6"/>
<path d="M298.515 139.389L246.659 171.301C246.659 171.301 225.752 163.558 229.838 159.973C233.924 156.389 220.916 153.966 220.916 153.966L206.546 144.289L198.208 153.989C198.208 153.989 199.727 169.744 202.312 167.016C204.898 164.288 208.762 171.74 208.762 171.74C208.762 171.74 209.904 180.061 217.263 177.967C224.622 175.873 244.368 197.822 244.368 197.822L308.187 173.999L298.515 139.389Z" fill="#3F3D56"/>
<path d="M204.911 107.711C204.31 107.711 203.717 107.571 203.18 107.302C202.642 107.033 202.174 106.642 201.814 106.16L192.316 93.4857C192.011 93.0785 191.789 92.6152 191.663 92.1221C191.537 91.6291 191.509 91.116 191.581 90.6121C191.653 90.1082 191.823 89.6235 192.082 89.1855C192.341 88.7476 192.684 88.365 193.091 88.0596C193.913 87.4429 194.945 87.1781 195.962 87.3235C196.465 87.3955 196.95 87.566 197.387 87.8254C197.825 88.0847 198.207 88.4277 198.512 88.8349L204.726 97.1264L220.684 73.1674C221.254 72.3121 222.14 71.7183 223.147 71.5167C224.154 71.3151 225.2 71.5222 226.054 72.0924C226.909 72.6626 227.502 73.5492 227.703 74.5572C227.905 75.5653 227.698 76.6121 227.128 77.4674L208.134 105.985C207.79 106.501 207.328 106.927 206.786 107.227C206.244 107.527 205.638 107.693 205.019 107.71C204.983 107.711 204.947 107.711 204.911 107.711Z" fill="white"/>
</g>
<defs>
<clipPath id="clip0_588_4227">
<rect width="430" height="502" fill="white"/>
</clipPath>
</defs>
</svg>
