<svg width="646" height="386" viewBox="0 0 646 386" fill="none" xmlns="http://www.w3.org/2000/svg">
<g clip-path="url(#clip0_588_4201)">
<path d="M494.593 381.634C486.322 374.65 481.299 363.616 482.616 352.875C483.934 342.133 492.093 332.259 502.678 329.978C513.263 327.697 525.328 334.011 528.543 344.345C530.312 324.422 532.351 303.664 542.949 286.698C552.546 271.335 569.167 260.343 587.181 258.376C605.195 256.41 624.161 263.837 635.395 278.047C646.63 292.257 649.381 312.916 641.512 329.23C635.716 341.248 625.037 350.192 613.848 357.468C577.693 380.783 534.33 390.264 491.737 384.167L494.593 381.634Z" fill="#F2F2F2"/>
<path d="M617.581 264.249C602.718 276.349 589.082 289.882 576.871 304.651C557.762 327.687 542.298 353.514 531.019 381.233C530.193 383.255 533.479 384.135 534.295 382.135C552.75 337.087 582.211 297.381 619.984 266.65C621.68 265.27 619.264 262.88 617.581 264.249Z" fill="white"/>
<path d="M207.958 379.737C219.317 370.143 226.217 354.989 224.408 340.236C222.598 325.482 211.391 311.92 196.853 308.787C182.315 305.654 165.743 314.326 161.327 328.52C158.897 301.156 156.097 272.645 141.54 249.342C128.359 228.241 105.53 213.143 80.788 210.442C56.0461 207.741 29.9961 217.942 14.5655 237.46C-0.865118 256.977 -4.64324 285.352 6.16396 307.759C14.1252 324.266 28.7927 336.551 44.1606 346.545C93.1894 378.43 154.01 391.728 211.881 383.216" fill="#F2F2F2"/>
<path d="M39.0326 218.508C59.4477 235.127 78.1764 253.714 94.9479 274C111.722 294.265 126.49 316.109 139.044 339.224C146.061 352.191 152.365 365.531 157.927 379.184C159.061 381.962 154.548 383.171 153.427 380.424C143.575 356.353 131.386 333.305 117.036 311.611C102.755 289.995 86.4103 269.814 68.2305 251.353C57.948 240.916 47.099 231.052 35.7328 221.806C33.403 219.91 36.7221 216.627 39.0326 218.508L39.0326 218.508Z" fill="white"/>
<path d="M463.71 385.155H192.687V107.235C192.687 48.1053 240.819 0 299.982 0H356.414C415.577 0 463.71 48.1053 463.71 107.235V385.155Z" fill="#F2F2F2"/>
<path d="M407.277 385.154H192.686V107.234C192.627 84.5768 199.805 62.4923 213.177 44.1959C213.669 43.5245 214.161 42.8617 214.668 42.2062C221.136 33.7284 228.832 26.2621 237.504 20.0538C237.994 19.6976 238.486 19.3476 238.985 18.9975C246.241 13.9789 254.09 9.87635 262.354 6.78313C262.844 6.59724 263.344 6.41098 263.844 6.23233C271.317 3.56673 279.065 1.7408 286.942 0.788271C287.431 0.721593 287.932 0.669416 288.434 0.617238C296.111 -0.203142 303.853 -0.203142 311.53 0.617238C312.03 0.669416 312.532 0.721586 313.026 0.788985C320.902 1.74158 328.647 3.56728 336.119 6.23237C336.619 6.41101 337.118 6.59726 337.61 6.78351C345.772 9.83771 353.529 13.8791 360.708 18.8174C361.207 19.1599 361.706 19.5099 362.198 19.8599C367.058 23.3276 371.624 27.1908 375.848 31.4101C379.235 34.7945 382.392 38.402 385.296 42.2084C385.802 42.8617 386.293 43.5245 386.785 44.1949C400.157 62.4915 407.336 84.5764 407.277 107.234V385.154Z" fill="#CCCCCC"/>
<path d="M389.828 260.851C396.389 260.851 401.708 255.535 401.708 248.977C401.708 242.42 396.389 237.104 389.828 237.104C383.266 237.104 377.947 242.42 377.947 248.977C377.947 255.535 383.266 260.851 389.828 260.851Z" fill="#F6B6B0"/>
<path d="M441.507 376.831H432.403L428.072 341.738L441.508 341.739L441.507 376.831Z" fill="#FFB8B8"/>
<path d="M425.901 374.23H443.457V385.278H414.847C414.847 383.827 415.133 382.391 415.688 381.05C416.244 379.71 417.058 378.492 418.084 377.466C419.111 376.44 420.329 375.627 421.67 375.071C423.012 374.516 424.449 374.23 425.901 374.23Z" fill="#2F2E41"/>
<path d="M486.801 376.831H477.697L473.366 341.738L486.802 341.739L486.801 376.831Z" fill="#FFB8B8"/>
<path d="M471.196 374.23H488.752V385.278H460.142C460.142 383.827 460.428 382.391 460.983 381.05C461.539 379.71 462.353 378.492 463.379 377.466C464.406 376.44 465.624 375.627 466.965 375.071C468.307 374.516 469.744 374.23 471.196 374.23Z" fill="#2F2E41"/>
<path d="M395.841 251.331C395.186 250.367 394.75 249.271 394.565 248.12C394.38 246.969 394.449 245.792 394.769 244.671C395.088 243.55 395.649 242.513 396.413 241.632C397.177 240.751 398.125 240.049 399.19 239.574L430.135 154.33L445.362 162.635L410.029 244.097C410.709 245.938 410.69 247.964 409.975 249.792C409.26 251.619 407.899 253.121 406.15 254.013C404.401 254.904 402.385 255.124 400.485 254.63C398.585 254.135 396.933 252.962 395.841 251.331Z" fill="#FFB8B8"/>
<path d="M482.151 267.348C481.139 266.769 480.267 265.974 479.596 265.021C478.924 264.068 478.47 262.98 478.266 261.832C478.061 260.685 478.11 259.507 478.41 258.381C478.71 257.254 479.254 256.208 480.003 255.314L470.416 165.141L487.745 165.932L491.729 254.629C493.148 255.986 494.019 257.815 494.178 259.771C494.337 261.727 493.773 263.673 492.593 265.241C491.412 266.809 489.697 267.889 487.772 268.278C485.848 268.666 483.848 268.335 482.151 267.348Z" fill="#FFB8B8"/>
<path d="M454.506 138.54C464.578 138.54 472.743 130.379 472.743 120.313C472.743 110.246 464.578 102.086 454.506 102.086C444.434 102.086 436.269 110.246 436.269 120.313C436.269 130.379 444.434 138.54 454.506 138.54Z" fill="#FFB8B8"/>
<path d="M482.035 246.839H427.053L427.119 246.412C427.218 245.773 436.918 182.265 429.764 161.488C429.046 159.446 429.109 157.211 429.941 155.213C430.773 153.215 432.315 151.595 434.27 150.665H434.27C444.496 145.852 464.126 139.926 480.693 154.308C483.131 156.46 485.035 159.148 486.254 162.162C487.473 165.175 487.974 168.431 487.717 171.671L482.035 246.839Z" fill="#F6B6B0"/>
<path d="M437.613 191.651L412.859 186.632L424.462 159.152C425.157 156.49 426.879 154.212 429.251 152.818C431.624 151.424 434.453 151.027 437.117 151.715C439.782 152.402 442.065 154.118 443.466 156.486C444.867 158.853 445.271 161.68 444.589 164.344L437.613 191.651Z" fill="#F6B6B0"/>
<path d="M469.316 200.97L467.828 166.876C466.699 160.467 470.37 154.409 476.016 153.418C481.663 152.432 487.177 156.877 488.311 163.333L493.905 195.19L469.316 200.97Z" fill="#F6B6B0"/>
<path d="M480.205 242.758C489.052 276.432 490.017 319.247 487.631 365.948L475.75 364.464L454.217 275.411L442.336 365.948L428.971 365.206C424.978 316.205 421.09 274.138 427.486 246.468L480.205 242.758Z" fill="#2F2E41"/>
<path d="M466.523 134.399C463.12 138.021 456.802 136.077 456.359 131.128C456.324 130.744 456.326 130.358 456.366 129.974C456.595 127.782 457.862 125.792 457.559 123.478C457.49 122.902 457.275 122.353 456.935 121.883C454.224 118.255 447.859 123.506 445.301 120.221C443.732 118.207 445.576 115.036 444.372 112.785C442.783 109.814 438.076 111.279 435.125 109.652C431.841 107.842 432.037 102.806 434.199 99.7432C436.835 96.0078 441.458 94.0145 446.022 93.7272C450.587 93.44 455.121 94.6732 459.382 96.3331C464.224 98.2191 469.026 100.825 472.006 105.081C475.629 110.256 475.978 117.213 474.166 123.264C473.063 126.945 469.301 131.441 466.523 134.399Z" fill="#2F2E41"/>
<path d="M623.71 385.632H75.5056C75.2715 385.632 75.0473 385.538 74.8821 385.373C74.7168 385.207 74.624 384.983 74.624 384.749C74.624 384.515 74.7168 384.291 74.8821 384.125C75.0473 383.959 75.2715 383.866 75.5056 383.865H623.71C623.944 383.866 624.168 383.959 624.334 384.125C624.499 384.291 624.592 384.515 624.592 384.749C624.592 384.983 624.499 385.207 624.334 385.373C624.168 385.538 623.944 385.632 623.71 385.632Z" fill="#3F3D56"/>
<path d="M348.246 304.637H251.717C250.446 304.644 249.224 304.146 248.319 303.254C247.414 302.361 246.9 301.146 246.891 299.876V84.5383C246.9 83.2678 247.414 82.053 248.319 81.1605C249.224 80.268 250.446 79.7706 251.717 79.7774H348.246C349.517 79.7706 350.739 80.268 351.644 81.1605C352.549 82.053 353.062 83.2678 353.072 84.5383V299.876C353.062 301.146 352.549 302.361 351.644 303.254C350.739 304.146 349.517 304.644 348.246 304.637Z" fill="white"/>
<path d="M353.072 149.453H246.891V150.937H353.072V149.453Z" fill="#CCCCCC"/>
<path d="M353.443 234.135H247.262V235.619H353.443V234.135Z" fill="#CCCCCC"/>
<path d="M281.79 79.7773H280.305V305.379H281.79V79.7773Z" fill="#CCCCCC"/>
<path d="M318.916 79.7773H317.431V305.379H318.916V79.7773Z" fill="#CCCCCC"/>
</g>
<defs>
<clipPath id="clip0_588_4201">
<rect width="646" height="386" fill="white"/>
</clipPath>
</defs>
</svg>
