<svg width="385" height="361" viewBox="0 0 385 361" fill="none" xmlns="http://www.w3.org/2000/svg">
<g clip-path="url(#clip0_588_4127)">
<path d="M339.794 158.094C339.751 156.605 339.128 155.191 338.055 154.153C336.983 153.115 335.547 152.535 334.052 152.536C333.748 152.541 333.445 152.571 333.147 152.626L323.111 135.359L312.53 137.353L328.843 159.525C329.168 160.743 329.887 161.819 330.89 162.586C331.892 163.354 333.121 163.768 334.385 163.766C335.104 163.758 335.814 163.608 336.475 163.326C337.137 163.044 337.736 162.635 338.238 162.123C338.741 161.61 339.137 161.004 339.405 160.338C339.672 159.673 339.806 158.961 339.797 158.244C339.797 158.194 339.796 158.144 339.794 158.094Z" fill="#A0616A"/>
<path d="M305.713 349.76L297.328 349.759L293.339 317.516L305.715 317.516L305.713 349.76Z" fill="#A0616A"/>
<path d="M306.008 358.48L280.223 358.479V358.153C280.223 355.5 281.28 352.955 283.162 351.079C285.045 349.202 287.597 348.148 290.259 348.148H290.26L294.97 344.586L303.757 348.149L306.008 348.149L306.008 358.48Z" fill="#2F2E41"/>
<path d="M314.548 301.729L308.898 307.905L282.312 289.116L290.653 280L314.548 301.729Z" fill="#A0616A"/>
<path d="M321.21 307.387L303.834 326.38L303.593 326.161C301.627 324.373 300.453 321.879 300.331 319.228C300.209 316.578 301.147 313.987 302.941 312.026L302.941 312.026L303.475 306.156L312.037 302.084L313.554 300.426L321.21 307.387Z" fill="#2F2E41"/>
<path d="M251.804 135.608L236.095 164.123L237.302 184.59L230.66 250.806L292.854 302.575L300.704 291.137L265.682 246.592L266.102 243.433C265.483 242.506 265.223 241.387 265.37 240.283C265.516 239.179 266.06 238.165 266.9 237.431C269.909 234.553 267.352 234.033 267.352 234.033L272.324 196.629L307.95 189.529L293.006 133.316L251.804 135.608Z" fill="#2F2E41"/>
<path d="M272.929 176.163L291.647 333.276L307.95 334.911V280.001C307.95 280.001 304.931 277.013 307.95 275.648C310.97 274.283 307.95 269.164 307.95 269.164V189.53L292.855 165.93L272.929 176.163Z" fill="#2F2E41"/>
<path d="M239.718 44.9336L225.226 50.3513L216.773 69.6141C216.773 69.6141 197.45 79.2455 204.696 92.4888C211.942 105.732 241.099 134.799 241.099 134.799C237.532 141.736 238.752 147.073 244.548 150.879C252.116 162.98 273.364 157.052 297.081 147.869C301.47 137.2 294.676 120.675 287.997 104.21L289.835 82.2554C289.835 82.2554 269.006 52.0387 265.682 52.1572C262.359 52.2756 249.379 50.9532 249.379 50.9532L239.718 44.9336Z" fill="#3F3D56"/>
<path d="M260.248 55.2278C261.494 54.0509 262.987 53.1641 264.618 52.631C266.249 52.0979 267.979 51.9318 269.682 52.1446C271.385 52.3575 273.02 52.9441 274.469 53.8621C275.917 54.7801 277.144 56.0068 278.06 57.4539L309.648 107.341C312.68 108.772 314.204 112 315.109 115.965C317.361 115.203 319.066 116.683 319.585 123.033L331.499 141.849L320.63 153.888L305.599 134.024C302.104 133.103 303.729 128.109 301.311 128.358C298.893 128.606 297.724 123.617 297.724 123.617C294.674 123.583 293.778 122.156 294.666 119.576L263.871 75.7041L260.248 55.2278Z" fill="#3F3D56"/>
<path d="M125.927 54.1074C126.388 55.5248 127.386 56.7069 128.708 57.4022C130.03 58.0974 131.572 58.2509 133.006 57.8301C133.296 57.74 133.578 57.6261 133.849 57.4896L148.354 71.2427L157.944 66.3606L136.031 49.6622C135.376 48.5847 134.381 47.7537 133.203 47.2989C132.024 46.844 130.728 46.7908 129.516 47.1477C128.828 47.3574 128.189 47.7 127.634 48.1561C127.079 48.6121 126.62 49.1726 126.282 49.8057C125.945 50.4387 125.736 51.1318 125.667 51.8454C125.598 52.559 125.671 53.2791 125.881 53.9647C125.896 54.0125 125.911 54.06 125.927 54.1074Z" fill="#A0616A"/>
<path d="M215.565 75.0336L195.639 81.0532L181.594 78.8279L178.444 76.5842C177.087 72.9276 174.353 71.2082 170.711 70.7674C170.711 70.7674 167.764 71.774 167.813 68.5881C167.863 65.4022 148.54 53.9648 148.54 53.9648L140.087 69.0139L150.956 82.2572C154.814 82.3759 157.191 81.8684 155.183 86.4709C156.002 90.9032 155.435 89.8744 158.747 89.9553L175.713 106.938L211.338 112.355L233.965 104.41L215.565 75.0336Z" fill="#3F3D56"/>
<path d="M220.523 44.2304C230.766 44.2304 239.07 35.9521 239.07 25.7402C239.07 15.5283 230.766 7.25 220.523 7.25C210.279 7.25 201.976 15.5283 201.976 25.7402C201.976 35.9521 210.279 44.2304 220.523 44.2304Z" fill="#A0616A"/>
<path d="M232.423 25.3801C232.407 25.174 232.386 24.9678 232.359 24.7617C232.333 24.97 232.355 25.1814 232.423 25.3801Z" fill="#2F2E41"/>
<path d="M194.712 13.0462C194.386 10.8278 195.626 8.31325 197.792 7.69798C199.142 7.31374 200.583 7.68199 201.984 7.7063C205.912 7.77252 212.895 1.24727 216.687 0.247581C220.487 -0.749272 225.404 1.33408 225.711 5.23811C235.426 2.35443 242.845 8.87868 243.298 19.168C243.652 27.2149 236.787 38.1825 229.548 41.7619C228.662 37.0793 231.945 30.0604 231.061 25.3827C230.907 24.094 230.49 22.8504 229.835 21.7289C229.11 20.656 227.78 19.8807 226.523 20.1978C226.01 20.3493 225.573 20.6869 225.297 21.144C225.022 21.601 224.928 22.1445 225.035 22.667C224.299 21.4214 223.263 20.3783 222.021 19.632C220.779 18.8858 219.37 18.46 217.921 18.3931C216.473 18.3261 215.03 18.6202 213.724 19.2487C212.418 19.8773 211.29 20.8204 210.442 21.9928L211.467 17.7863C208.866 20.6364 205.504 22.6873 201.774 23.6981C201.562 23.433 201.402 23.1303 201.303 22.806C201.195 22.4736 201.175 22.1191 201.245 21.7768C201.315 21.4345 201.473 21.1162 201.703 20.8526C201.2 21.24 200.782 21.7248 200.472 22.2778C200.163 22.8309 199.969 23.4407 199.902 24.0705C197.658 24.4573 195.349 24.0048 193.418 22.7996C191.556 21.5356 195.037 15.2646 194.712 13.0462Z" fill="#2F2E41"/>
<path d="M364.172 360.384H344.133L344.047 360.228C343.791 359.765 343.543 359.274 343.312 358.77C341.248 354.365 340.376 349.326 339.606 344.881L339.026 341.53C338.956 341.124 339.009 340.707 339.178 340.331C339.347 339.955 339.625 339.638 339.976 339.421C340.327 339.204 340.735 339.096 341.147 339.111C341.56 339.126 341.959 339.263 342.293 339.506C345.338 341.715 348.385 343.922 351.433 346.127C352.587 346.964 353.905 347.933 355.167 348.98C355.289 348.39 355.416 347.799 355.543 347.216C355.631 346.813 355.837 346.446 356.136 346.161C356.434 345.876 356.811 345.686 357.219 345.616C357.626 345.545 358.045 345.598 358.422 345.766C358.799 345.935 359.117 346.212 359.336 346.562L361.68 350.317C363.39 353.059 364.9 355.762 364.592 358.676C364.594 358.712 364.591 358.747 364.584 358.782C364.523 359.261 364.408 359.732 364.244 360.185L364.172 360.384Z" fill="#F0F0F0"/>
<path d="M384.285 360.816L193.865 361.001C193.675 361 193.493 360.924 193.359 360.79C193.225 360.656 193.149 360.474 193.149 360.285C193.149 360.095 193.225 359.913 193.359 359.779C193.493 359.645 193.675 359.569 193.865 359.568L384.285 359.383C384.475 359.384 384.657 359.46 384.791 359.594C384.925 359.728 385 359.91 385 360.1C385 360.289 384.925 360.471 384.791 360.605C384.657 360.739 384.475 360.815 384.285 360.816Z" fill="#CACACA"/>
<path d="M166.655 284.514H13.8879C10.2059 284.51 6.67585 283.05 4.07225 280.455C1.46865 277.859 0.00413612 274.34 0 270.669V66.0014C0.00418556 62.3307 1.46872 58.8116 4.07231 56.216C6.6759 53.6204 10.2059 52.1604 13.8879 52.1562H166.655C170.337 52.1604 173.867 53.6204 176.471 56.216C179.075 58.8116 180.539 62.3307 180.543 66.0014V270.669C180.539 274.34 179.075 277.859 176.471 280.455C173.867 283.05 170.337 284.51 166.655 284.514Z" fill="white"/>
<path d="M166.655 284.514H13.8879C10.2059 284.51 6.67585 283.05 4.07225 280.455C1.46865 277.859 0.00413612 274.34 0 270.669V66.0014C0.00418556 62.3307 1.46872 58.8116 4.07231 56.216C6.6759 53.6204 10.2059 52.1604 13.8879 52.1562H166.655C170.337 52.1604 173.867 53.6204 176.471 56.216C179.075 58.8116 180.539 62.3307 180.543 66.0014V270.669C180.539 274.34 179.075 277.859 176.471 280.455C173.867 283.05 170.337 284.51 166.655 284.514ZM13.8879 53.3602C10.5261 53.3639 7.30298 54.697 4.92578 57.0669C2.54858 59.4367 1.21142 62.6499 1.20765 66.0014V270.669C1.21147 274.021 2.54865 277.234 4.92584 279.604C7.30303 281.974 10.5261 283.307 13.8879 283.311H166.655C170.017 283.307 173.24 281.974 175.617 279.604C177.995 277.234 179.332 274.021 179.336 270.669V66.0014C179.332 62.6499 177.995 59.4367 175.618 57.0669C173.24 54.697 170.017 53.3639 166.655 53.3602H13.8879Z" fill="#E6E6E6"/>
<path d="M36.5311 119.73C39.5324 119.73 41.9655 117.304 41.9655 114.312C41.9655 111.32 39.5324 108.895 36.5311 108.895C33.5297 108.895 31.0967 111.32 31.0967 114.312C31.0967 117.304 33.5297 119.73 36.5311 119.73Z" fill="#CCCCCC"/>
<path d="M148.239 114.915H55.1028C54.9427 114.915 54.7891 114.851 54.6759 114.739C54.5626 114.626 54.499 114.473 54.499 114.313C54.499 114.153 54.5626 114 54.6759 113.887C54.7891 113.774 54.9427 113.711 55.1028 113.711H148.239C148.399 113.711 148.553 113.774 148.666 113.887C148.779 114 148.843 114.153 148.843 114.313C148.843 114.473 148.779 114.626 148.666 114.739C148.553 114.851 148.399 114.915 148.239 114.915Z" fill="#CCCCCC"/>
<path d="M36.8329 220.257C39.8342 220.257 42.2673 217.832 42.2673 214.84C42.2673 211.847 39.8342 209.422 36.8329 209.422C33.8315 209.422 31.3984 211.847 31.3984 214.84C31.3984 217.832 33.8315 220.257 36.8329 220.257Z" fill="#CCCCCC"/>
<path d="M36.5682 162.831C39.5695 162.831 42.0026 160.406 42.0026 157.414C42.0026 154.422 39.5695 151.996 36.5682 151.996C33.5669 151.996 31.1338 154.422 31.1338 157.414C31.1338 160.406 33.5669 162.831 36.5682 162.831Z" fill="#CCCCCC"/>
<path d="M147.031 129.722H122.878C122.238 129.722 121.623 129.468 121.17 129.017C120.717 128.565 120.463 127.953 120.463 127.314C120.463 126.676 120.717 126.063 121.17 125.611C121.623 125.16 122.238 124.906 122.878 124.906H147.031C147.672 124.906 148.286 125.16 148.739 125.611C149.192 126.063 149.446 126.676 149.446 127.314C149.446 127.953 149.192 128.565 148.739 129.017C148.286 129.468 147.672 129.722 147.031 129.722Z" fill="#F6B6B0"/>
<path d="M147.031 189.316H122.878C122.238 189.316 121.623 189.062 121.17 188.61C120.717 188.159 120.463 187.546 120.463 186.908C120.463 186.269 120.717 185.657 121.17 185.205C121.623 184.754 122.238 184.5 122.878 184.5H147.031C147.672 184.5 148.286 184.754 148.739 185.205C149.192 185.657 149.446 186.269 149.446 186.908C149.446 187.546 149.192 188.159 148.739 188.61C148.286 189.062 147.672 189.316 147.031 189.316Z" fill="#F6B6B0"/>
<path d="M129.639 84.8147H60.2639C58.5739 84.8147 56.953 84.1454 55.758 82.954C54.563 81.7627 53.8916 80.1469 53.8916 78.462C53.8916 76.7772 54.563 75.1614 55.758 73.97C56.953 72.7787 58.5739 72.1094 60.2639 72.1094H129.639C131.329 72.1094 132.95 72.7787 134.145 73.97C135.34 75.1614 136.012 76.7772 136.012 78.462C136.012 80.1469 135.34 81.7627 134.145 82.954C132.95 84.1454 131.329 84.8147 129.639 84.8147Z" fill="#F6B6B0"/>
<path d="M147.031 264.562H122.878C122.238 264.562 121.623 264.308 121.17 263.857C120.717 263.405 120.463 262.793 120.463 262.154C120.463 261.515 120.717 260.903 121.17 260.451C121.623 260 122.238 259.746 122.878 259.746H147.031C147.672 259.746 148.286 260 148.739 260.451C149.192 260.903 149.446 261.515 149.446 262.154C149.446 262.793 149.192 263.405 148.739 263.857C148.286 264.308 147.672 264.562 147.031 264.562Z" fill="#F6B6B0"/>
<path d="M142.327 249.753H61.0705C60.5576 249.747 60.0472 249.683 59.5491 249.561C58.0625 249.205 56.7399 248.359 55.7953 247.161C54.8506 245.962 54.3392 244.481 54.3438 242.957V215.423C54.3466 213.622 55.066 211.895 56.344 210.623C57.622 209.35 59.3544 208.634 61.161 208.633H142.327C143.421 208.63 144.499 208.893 145.468 209.399C145.854 209.599 146.219 209.836 146.558 210.108C147.366 210.739 148.02 211.546 148.468 212.467C148.916 213.388 149.148 214.399 149.144 215.423V242.957C149.142 244.759 148.423 246.486 147.145 247.76C145.867 249.034 144.134 249.751 142.327 249.753ZM61.161 209.837C59.6746 209.838 58.2492 210.426 57.1976 211.474C56.146 212.521 55.554 213.941 55.5514 215.423V242.957C55.5477 244.211 55.9687 245.43 56.7461 246.416C57.5235 247.403 58.612 248.099 59.8354 248.392C60.2422 248.491 60.659 248.544 61.0778 248.549H142.327C143.814 248.547 145.24 247.958 146.292 246.909C147.343 245.861 147.935 244.44 147.936 242.957V215.423C147.939 214.58 147.748 213.749 147.379 212.991C147.01 212.233 146.472 211.569 145.806 211.05C145.528 210.827 145.229 210.632 144.912 210.468C144.115 210.051 143.227 209.834 142.327 209.837H61.161Z" fill="#E6E6E6"/>
<path d="M136.881 249.154C140.57 240.215 144.457 231.364 148.541 222.602V237.458C145.756 241.682 142.534 245.602 138.928 249.154H136.881Z" fill="#E6E6E6"/>
<path d="M146.18 210.578C138.88 223.634 131.241 236.492 123.265 249.152H121.876C129.985 236.294 137.757 223.221 145.19 209.934C145.54 210.115 145.872 210.331 146.18 210.578Z" fill="#E6E6E6"/>
<path d="M92.6087 224.832C87.8381 233.241 82.5737 241.362 76.8429 249.152H68.5645C73.9868 242.566 79.4132 235.981 84.8435 229.395C86.4014 227.499 88.0921 225.513 90.4289 224.742L92.6087 224.832Z" fill="#E6E6E6"/>
<path d="M81.607 223.484C80.7436 224.381 79.9163 225.314 79.1374 226.283C77.4225 228.342 75.7318 230.418 74.0351 232.489C72.9784 233.777 71.9217 235.066 70.8771 236.354C70.5453 236.141 70.2304 235.904 69.9351 235.643C68.2667 234.2 67.2319 232.162 67.0524 229.967C66.8729 227.772 67.563 225.594 68.9748 223.9C70.3867 222.206 72.4079 221.13 74.6055 220.904C76.8031 220.678 79.0021 221.319 80.7315 222.689C81.0431 222.932 81.3358 223.197 81.607 223.484Z" fill="#F6B6B0"/>
<path d="M128.301 229.338L112.432 223.553L104.552 220.682C101.986 219.748 99.4259 218.683 96.7752 218.009C94.4699 217.352 92.0221 217.383 89.7346 218.099C87.6948 218.852 85.828 220.006 84.2458 221.494C83.5454 222.138 82.8671 222.802 82.2109 223.487C81.3475 224.384 80.5202 225.317 79.7413 226.286C78.0264 228.345 76.3357 230.421 74.639 232.492C73.5823 233.78 72.5256 235.068 71.481 236.357C67.9909 240.613 64.5209 244.879 61.0711 249.154C60.607 249.149 60.145 249.091 59.6943 248.98C63.2931 244.525 66.908 240.081 70.539 235.646C70.9556 235.129 71.3844 234.605 71.807 234.087C73.5762 231.926 75.3474 229.767 77.1207 227.61C78.4914 225.943 79.85 224.263 81.3354 222.692C81.4682 222.548 81.6011 222.409 81.7399 222.265C84.753 219.159 88.5148 216.414 93.0194 216.341C95.6702 216.299 98.2304 217.136 100.694 218.021C103.345 218.978 105.989 219.953 108.64 220.922L124.617 226.749L128.615 228.206C129.321 228.459 129.019 229.603 128.301 229.338Z" fill="#E6E6E6"/>
<path d="M76.7082 174.383H57.8759C56.8693 174.382 55.9042 173.983 55.1924 173.273C54.4806 172.564 54.0802 171.602 54.0791 170.598V153.035C54.0802 152.032 54.4806 151.069 55.1924 150.36C55.9042 149.65 56.8693 149.251 57.8759 149.25H76.7082C77.7148 149.251 78.6799 149.65 79.3917 150.36C80.1035 151.069 80.5039 152.032 80.505 153.035V170.598C80.5039 171.602 80.1035 172.564 79.3917 173.273C78.6799 173.983 77.7148 174.382 76.7082 174.383Z" fill="#E6E6E6"/>
<path d="M110.3 174.383H91.4677C90.4611 174.382 89.496 173.983 88.7842 173.273C88.0724 172.564 87.672 171.602 87.6709 170.598V153.035C87.672 152.032 88.0724 151.069 88.7842 150.36C89.496 149.65 90.4611 149.251 91.4677 149.25H110.3C111.307 149.251 112.272 149.65 112.984 150.36C113.695 151.069 114.096 152.032 114.097 153.035V170.598C114.096 171.602 113.695 172.564 112.983 173.273C112.272 173.983 111.307 174.382 110.3 174.383Z" fill="#E6E6E6"/>
<path d="M143.891 174.383H125.059C124.052 174.382 123.087 173.983 122.375 173.273C121.663 172.564 121.263 171.602 121.262 170.598V153.035C121.263 152.032 121.663 151.07 122.375 150.36C123.087 149.65 124.052 149.251 125.059 149.25H143.891C144.897 149.251 145.863 149.65 146.574 150.36C147.286 151.069 147.686 152.032 147.688 153.035V170.598C147.686 171.602 147.286 172.564 146.574 173.273C145.863 173.983 144.897 174.382 143.891 174.383Z" fill="#E6E6E6"/>
</g>
<defs>
<clipPath id="clip0_588_4127">
<rect width="385" height="361" fill="white"/>
</clipPath>
</defs>
</svg>
