<?xml version="1.0" encoding="utf-8"?>
<!-- Generator: Adobe Illustrator 26.3.1, SVG Export Plug-In . SVG Version: 6.00 Build 0)  -->
<svg version="1.1" id="Calque_1" xmlns="http://www.w3.org/2000/svg" xmlns:xlink="http://www.w3.org/1999/xlink" x="0px" y="0px"
	 viewBox="0 0 20 19" style="enable-background:new 0 0 20 19;" xml:space="preserve">
<style type="text/css">
	.st0{fill:#FFFFFF;}
</style>
<path class="st0" d="M10,1.7c2.6,0,2.8,0,3.8,0.1c0.9,0,1.4,0.2,1.8,0.3c0.5,0.2,0.8,0.4,1.1,0.7c0.4,0.3,0.6,0.6,0.7,1.1
	c0.1,0.3,0.3,0.8,0.3,1.8s0.1,1.3,0.1,3.8s0,2.8-0.1,3.8c0,0.9-0.2,1.4-0.3,1.8c-0.2,0.4-0.4,0.8-0.7,1.1c-0.4,0.3-0.7,0.5-1.1,0.7
	c-0.4,0.1-0.9,0.3-1.8,0.3c-1,0-1.3,0.1-3.8,0.1c-2.6,0-2.8,0-3.8-0.1c-0.9,0-1.4-0.2-1.8-0.3c-0.5-0.2-0.8-0.4-1.1-0.7
	c-0.4-0.3-0.6-0.6-0.7-1.1c-0.1-0.3-0.3-0.8-0.3-1.8S2.2,12,2.2,9.5s0-2.8,0.1-3.8c0-0.9,0.2-1.4,0.3-1.8C2.8,3.5,3,3.1,3.3,2.8
	S4,2.3,4.5,2.1C4.8,2,5.2,1.8,6.2,1.8C7.1,1.7,7.4,1.7,10,1.7z M10,0C7.4,0,7,0,6.1,0.1c-1,0-1.7,0.2-2.3,0.4
	C3.1,0.7,2.6,1.1,2.1,1.6C1.5,2.1,1.3,2.7,1,3.3C0.8,3.9,0.6,4.6,0.6,5.6c-0.1,1-0.1,1.3-0.1,3.9s0,2.9,0.1,3.9c0,1,0.2,1.7,0.5,2.3
	c0.3,0.6,0.6,1.2,1.1,1.7s1,0.9,1.7,1.1c0.6,0.2,1.3,0.4,2.3,0.4C7,19,7.4,19,10,19s2.9,0,3.9-0.1c1,0,1.7-0.2,2.3-0.4
	c0.7-0.2,1.1-0.6,1.7-1.1s0.9-1.1,1.1-1.7c0.2-0.6,0.4-1.3,0.5-2.3c0-1,0.1-1.3,0.1-3.9s0-2.9-0.1-3.9c0-1-0.2-1.7-0.5-2.3
	c-0.3-0.6-0.6-1.2-1.1-1.7c-0.6-0.5-1-0.9-1.7-1.1c-0.6-0.2-1.3-0.4-2.3-0.4C12.9,0,12.5,0,10,0L10,0z M10,4.6
	c-2.6,0-4.8,2.2-4.8,4.9s2.2,4.9,4.8,4.9s4.8-2.2,4.8-4.9S12.6,4.6,10,4.6z M10,12.7c-1.7,0-3.1-1.4-3.1-3.2c0-1.7,1.4-3.2,3.1-3.2
	s3.1,1.4,3.1,3.2C13.1,11.2,11.7,12.7,10,12.7z M16.1,4.4c0-0.6-0.5-1.1-1.1-1.1c-0.7,0-1.1,0.5-1.1,1.1s0.5,1.1,1.1,1.1
	C15.6,5.6,16.1,5.1,16.1,4.4z"/>
</svg>
