<svg width="48" height="48" viewBox="0 0 48 48" fill="none" xmlns="http://www.w3.org/2000/svg">
<circle cx="24" cy="24" r="24" fill="#FE6D60"/>
<path d="M21.1225 17.1818V31H18.201V17.1818H21.1225ZM26.3465 25.0085V31H23.4722V20.6364H26.2116V22.4648H26.333C26.5624 21.8621 26.947 21.3853 27.4868 21.0344C28.0265 20.6791 28.681 20.5014 29.4502 20.5014C30.1699 20.5014 30.7974 20.6589 31.3327 20.9737C31.8679 21.2886 32.284 21.7384 32.5809 22.3232C32.8778 22.9034 33.0262 23.5961 33.0262 24.4013V31H30.1519V24.9141C30.1564 24.2798 29.9945 23.785 29.6661 23.4297C29.3377 23.0698 28.8857 22.8899 28.3099 22.8899C27.9231 22.8899 27.5812 22.9731 27.2844 23.1396C26.992 23.306 26.7626 23.5489 26.5961 23.8683C26.4342 24.1831 26.351 24.5632 26.3465 25.0085Z" fill="white"/>
</svg>
