<svg width="19" height="19" viewBox="0 0 19 19" fill="none" xmlns="http://www.w3.org/2000/svg">
<path d="M0.313337 6.30849H4.25356V19H0.313337V6.30849ZM2.28345 0C3.54463 0 4.56689 1.02395 4.56689 2.28722C4.56689 3.55049 3.54463 4.57444 2.28345 4.57444C1.02226 4.57444 0 3.55049 0 2.28722C0 1.02395 1.01835 0 2.28345 0ZM6.72501 19H10.6574V12.7229C10.6574 11.0673 10.9707 9.46273 13.0192 9.46273C15.0676 9.46273 15.0676 11.3576 15.0676 12.8288V19H19V12.0403C19 8.62317 18.2637 5.99463 14.2804 5.99463C12.3651 5.99463 11.0804 7.04605 10.5556 8.04646H10.5007V6.31241H6.72501V19Z" fill="white"/>
</svg>
