<svg width="91" height="48" viewBox="0 0 91 48" fill="none" xmlns="http://www.w3.org/2000/svg">
<path d="M26.0316 24.0879C24.9044 24.0879 23.8972 23.9005 23.0159 23.5228C22.1317 23.1481 21.3851 22.6357 20.7761 21.9857C20.1642 21.3387 19.6958 20.5921 19.3679 19.7459C19.0399 18.8998 18.876 17.9892 18.876 17.0113C18.876 15.7143 19.1775 14.5578 19.7777 13.5448C20.378 12.5288 21.2153 11.7266 22.2869 11.1352C23.3585 10.5438 24.5794 10.248 25.9525 10.248C26.8924 10.248 27.7327 10.3944 28.4763 10.6843C29.2171 10.9771 29.8524 11.3665 30.3794 11.8554C30.9064 12.3444 31.3105 12.889 31.5916 13.4892C31.8726 14.0923 32.0132 14.6925 32.0132 15.2927C32.0132 16.2501 31.7877 16.9264 31.3368 17.3217C30.8859 17.7169 30.3326 17.9131 29.6738 17.9131H21.5286C21.511 18.7212 21.7306 19.4209 22.1903 20.0124C22.65 20.6038 23.2326 21.0605 23.9382 21.3797C24.6438 21.6988 25.3523 21.8598 26.0667 21.8598C26.5732 21.8598 27.0212 21.8306 27.4048 21.7749C27.7883 21.7193 28.1221 21.6432 28.4061 21.5495C28.6871 21.4558 28.9272 21.3621 29.1234 21.2684C29.3196 21.1747 29.504 21.081 29.6738 20.9873C29.8436 20.8936 30.0017 20.8292 30.154 20.7912C30.3033 20.7531 30.4643 20.7678 30.6342 20.8322C30.804 20.8995 30.9357 21.0254 31.0294 21.2128C31.1436 21.3621 31.2168 21.5056 31.2549 21.6344C31.2929 21.7661 31.3105 21.9067 31.3105 22.056C31.3105 22.3371 31.085 22.6328 30.6342 22.9431C30.1833 23.2535 29.5567 23.5199 28.7603 23.7454C27.961 23.9708 27.0534 24.085 26.0404 24.085L26.0316 24.0879ZM21.5227 16.2238H28.5993C28.9389 16.2238 29.1995 16.1769 29.3898 16.0832C29.5772 15.9895 29.6709 15.7348 29.6709 15.322C29.6709 14.8155 29.5099 14.3441 29.1907 13.9137C28.8716 13.4804 28.4354 13.1349 27.8791 12.8714C27.3257 12.6079 26.6816 12.4761 25.9496 12.4761C25.1415 12.4761 24.3949 12.6401 23.7098 12.968C23.0247 13.2959 22.4831 13.7439 22.0878 14.306C21.6926 14.8711 21.5052 15.5094 21.5227 16.2238Z" fill="#FE6E60"/>
<path d="M41.2533 24.0879C40.1261 24.0879 39.1189 23.9005 38.2376 23.5228C37.3534 23.1481 36.6068 22.6357 35.9978 21.9857C35.3859 21.3387 34.9174 20.5921 34.5895 19.7459C34.2616 18.8998 34.0977 17.9892 34.0977 17.0113C34.0977 15.7143 34.3992 14.5578 34.9994 13.5448C35.5996 12.5288 36.437 11.7266 37.5086 11.1352C38.5802 10.5438 39.8011 10.248 41.1742 10.248C42.1141 10.248 42.9544 10.3944 43.698 10.6843C44.4388 10.9771 45.0741 11.3665 45.6011 11.8554C46.1281 12.3444 46.5322 12.889 46.8132 13.4892C47.0943 14.0923 47.2348 14.6925 47.2348 15.2927C47.2348 16.2501 47.0094 16.9264 46.5585 17.3217C46.1076 17.7169 45.5543 17.9131 44.8955 17.9131H36.7503C36.7327 18.7212 36.9523 19.4209 37.412 20.0124C37.8716 20.6038 38.4543 21.0605 39.1599 21.3797C39.8655 21.6988 40.574 21.8598 41.2884 21.8598C41.7949 21.8598 42.2429 21.8306 42.6264 21.7749C43.01 21.7193 43.3438 21.6432 43.6278 21.5495C43.9088 21.4558 44.1489 21.3621 44.3451 21.2684C44.5412 21.1747 44.7257 21.081 44.8955 20.9873C45.0653 20.8936 45.2234 20.8292 45.3757 20.7912C45.525 20.7531 45.686 20.7678 45.8558 20.8322C46.0256 20.8995 46.1574 21.0254 46.2511 21.2128C46.3653 21.3621 46.4385 21.5056 46.4765 21.6344C46.5146 21.7661 46.5322 21.9067 46.5322 22.056C46.5322 22.3371 46.3067 22.6328 45.8558 22.9431C45.4049 23.2535 44.7784 23.5199 43.982 23.7454C43.1827 23.9708 42.2751 24.085 41.2621 24.085L41.2533 24.0879ZM36.7444 16.2238H43.821C44.1606 16.2238 44.4212 16.1769 44.6115 16.0832C44.7989 15.9895 44.8926 15.7348 44.8926 15.322C44.8926 14.8155 44.7315 14.3441 44.4124 13.9137C44.0933 13.4804 43.657 13.1349 43.1007 12.8714C42.5474 12.6079 41.9033 12.4761 41.1713 12.4761C40.3632 12.4761 39.6166 12.6401 38.9315 12.968C38.2464 13.2959 37.7047 13.7439 37.3095 14.306C36.9142 14.8711 36.7269 15.5094 36.7444 16.2238Z" fill="#FE6E60"/>
<path d="M14.6187 4.95682C14.5777 4.84556 14.5338 4.73138 14.4869 4.62305C14.4079 4.4386 14.323 4.25414 14.2322 4.07554C13.9394 3.50169 13.5734 2.96004 13.143 2.47109C13.0786 2.40082 13.0171 2.33056 12.9527 2.26614C12.9293 2.24272 12.9088 2.22223 12.8883 2.1988H12.8854C12.8415 2.15489 12.8034 2.11097 12.7566 2.07291C12.6248 1.93823 12.4843 1.81818 12.3408 1.69522C11.8724 1.30874 11.3483 0.972041 10.7656 0.705608C10.4758 0.570928 10.1713 0.453814 9.85509 0.357196C9.11434 0.128825 8.29455 0 7.40742 0C7.34593 0 7.28445 0 7.22296 0.00585567C7.15855 0.00292783 7.09707 0.00585567 7.03558 0.0087835H7.01509C6.9536 0.0117113 6.88919 0.0146392 6.82478 0.0204948C6.76329 0.0263505 6.69888 0.0322062 6.63447 0.0380618C6.55249 0.0468453 6.46758 0.052701 6.3856 0.0673402C6.30362 0.0761237 6.22165 0.087835 6.13967 0.102474C6.12503 0.105402 6.11332 0.10833 6.09868 0.111258C4.64062 0.368907 3.33187 1.05695 2.3042 2.0407C2.22808 2.1139 2.15781 2.18416 2.08462 2.26029C1.73035 2.62919 1.41122 3.03616 1.13893 3.47241C1.0306 3.64808 0.928123 3.82668 0.831505 4.01113C0.641195 4.38004 0.480165 4.76651 0.354268 5.16763C0.158103 5.76783 0.0409897 6.40317 0.0087835 7.05608C0.0087835 7.11756 0.00292783 7.17905 0.0087835 7.24346C0 7.30494 0 7.36936 0 7.43084V15.2335H5.79418C9.05579 15.2335 11.0877 14.4284 12.5487 13.0845C12.9849 12.6629 13.4007 12.1593 13.8164 11.5737C13.9541 11.3805 14.0946 11.1755 14.2322 10.9618C14.2761 10.8945 14.3171 10.8271 14.3581 10.7569C14.604 10.344 14.7943 9.89608 14.9173 9.43348C14.9407 9.35443 14.9583 9.2783 14.9759 9.19925C14.9847 9.16705 14.9905 9.13484 14.9964 9.10263C15.0022 9.07043 15.0081 9.03822 15.0139 9.00309C15.0198 8.97966 15.0198 8.95624 15.0256 8.93282C15.0286 8.9094 15.0344 8.8889 15.0374 8.86548C15.0403 8.83913 15.0461 8.81278 15.0491 8.78643C15.0491 8.75715 15.0549 8.72494 15.0608 8.69274C15.2159 7.46305 15.0608 6.16309 14.6187 4.95682ZM6.06354 11.6645H3.64515V7.71191C3.64515 5.41064 5.10321 3.56903 7.40449 3.56903C10.2445 3.56903 11.4742 5.64193 11.4742 7.71191C11.4742 10.3587 9.32515 11.6645 6.06354 11.6645ZM14.6187 4.95682C14.5777 4.84556 14.5338 4.73138 14.4869 4.62305C14.4079 4.4386 14.323 4.25414 14.2322 4.07554C13.9394 3.50169 13.5734 2.96004 13.143 2.47109C13.0786 2.40082 13.0171 2.33056 12.9527 2.26614C12.9293 2.24272 12.9088 2.22223 12.8883 2.1988H12.8854C12.8415 2.15489 12.8034 2.11097 12.7566 2.07291C12.6248 1.93823 12.4843 1.81818 12.3408 1.69522C11.8724 1.30874 11.3483 0.972041 10.7656 0.705608C10.4758 0.570928 10.1713 0.453814 9.85509 0.357196C9.11434 0.128825 8.29455 0 7.40742 0C7.34593 0 7.28445 0 7.22296 0.00585567C7.15855 0.00292783 7.09707 0.00585567 7.03558 0.0087835H7.01509C6.9536 0.0117113 6.88919 0.0146392 6.82478 0.0204948C6.76329 0.0263505 6.69888 0.0322062 6.63447 0.0380618C6.55249 0.0468453 6.46758 0.052701 6.3856 0.0673402C6.30362 0.0761237 6.22165 0.087835 6.13967 0.102474C6.12503 0.105402 6.11332 0.10833 6.09868 0.111258C2.84585 0.655835 0.421608 3.22062 0.052701 6.53785C0.0322062 6.71059 0.017567 6.88041 0.0087835 7.05608C0.0087835 7.11756 0.00292783 7.17905 0.0087835 7.24346C0 7.30494 0 7.36936 0 7.43084V15.2335H5.79418C9.05579 15.2335 11.0877 14.4284 12.5487 13.0845C12.9849 12.6629 13.4007 12.1593 13.8164 11.5737C13.9541 11.3805 14.0946 11.1755 14.2322 10.9618C14.2761 10.8945 14.3171 10.8271 14.3581 10.7569C14.604 10.344 14.7943 9.89608 14.9173 9.43348C14.9407 9.35443 14.9583 9.2783 14.9759 9.19925C14.9847 9.16705 14.9905 9.13484 14.9964 9.10263C15.0022 9.07043 15.0081 9.03822 15.0139 9.00309C15.0198 8.97966 15.0198 8.95624 15.0256 8.93282C15.0286 8.9094 15.0344 8.8889 15.0374 8.86548C15.0403 8.83913 15.0461 8.81278 15.0491 8.78643C15.0491 8.75715 15.0549 8.72494 15.0608 8.69274C15.2159 7.46305 15.0608 6.16309 14.6187 4.95682ZM6.06354 11.6645H3.64515V7.71191C3.64515 5.41064 5.10321 3.56903 7.40449 3.56903C10.2445 3.56903 11.4742 5.64193 11.4742 7.71191C11.4742 10.3587 9.32515 11.6645 6.06354 11.6645ZM15.3741 11.1609C16.2261 12.5311 16.6535 14.0419 16.6535 15.6551C16.6535 20.3367 12.8942 24.1751 6.59934 24.1751H0V16.3168H3.64515V20.7203H6.94482C11.4332 20.7203 13.752 17.2303 12.9644 14.1561L15.3741 11.1609Z" fill="#FE6E60"/>
<path d="M61.5866 28.6543C56.9724 28.6543 54.9668 32.0096 54.9521 35.3737C54.9521 35.3795 54.9521 35.3854 54.9521 35.3912V35.4088C54.9521 37.186 55.5465 38.5884 56.6181 39.6278C57.9385 41.0273 60.0027 41.9174 62.6553 41.9174H67.7116V35.4088C67.7116 31.6583 65.3372 28.6543 61.5866 28.6543ZM61.4929 31.0903C63.8615 31.0903 65.3577 32.9846 65.3577 35.3532V39.417H62.8719C59.5166 39.417 57.3061 38.0761 57.3061 35.3532C57.3061 33.2217 58.5709 31.0903 61.4929 31.0903Z" fill="#FE6E60"/>
<path d="M1.15064 41.7916C0.81101 41.7916 0.562144 41.7389 0.401113 41.6305C0.240082 41.5222 0.13468 41.3817 0.0790515 41.2031C0.0263505 41.0245 0 40.8107 0 40.5619V29.969C0 29.7377 0.0263505 29.5357 0.0790515 29.3658C0.131753 29.196 0.24301 29.0672 0.412824 28.9764C0.582639 28.8886 0.83736 28.8418 1.17406 28.8418C1.56639 28.8418 1.84746 28.9179 2.01728 29.0701C2.18709 29.2224 2.272 29.4859 2.272 29.8606L2.16367 31.0113C2.28957 30.7449 2.47695 30.4755 2.72581 30.2091C2.97468 29.9426 3.27332 29.6996 3.62173 29.4859C3.97014 29.2722 4.33905 29.1023 4.73138 28.9764C5.12371 28.8535 5.52482 28.7891 5.93472 28.7891C6.55835 28.7891 7.11463 28.9003 7.60651 29.1228C8.09546 29.3454 8.53756 29.6616 8.92989 30.0715C9.32222 30.4813 9.65307 30.9908 9.9195 31.5969C10.2767 31.0084 10.6544 30.5048 11.0555 30.0861C11.4566 29.6674 11.9104 29.3454 12.4199 29.1228C12.9293 28.9003 13.5032 28.7891 14.1444 28.7891C15.1779 28.7891 16.0387 29.0438 16.7267 29.5503C17.4118 30.0597 17.93 30.7712 18.2785 31.6905C18.6269 32.6099 18.7996 33.7107 18.7996 34.9931V40.5853C18.7996 40.8342 18.7733 41.0479 18.7206 41.2265C18.6679 41.4051 18.5595 41.5427 18.3985 41.6422C18.2375 41.7389 17.9798 41.7886 17.6226 41.7886C17.2654 41.7886 17.0254 41.7359 16.8468 41.6276C16.6682 41.5193 16.5569 41.3787 16.513 41.2001C16.4691 41.0215 16.4456 40.8078 16.4456 40.559V34.9668C16.4456 34.1821 16.3461 33.4941 16.1499 32.9056C15.9538 32.3171 15.6698 31.8633 15.295 31.5412C14.9202 31.2192 14.4284 31.0611 13.8223 31.0611C13.1811 31.0611 12.6131 31.2221 12.1242 31.5412C11.6323 31.8633 11.2546 32.3142 10.9882 32.891C10.7217 33.4707 10.587 34.1616 10.587 34.9639V40.6087C10.587 40.8752 10.5343 41.1094 10.426 41.3055C10.3177 41.5017 10.1596 41.6393 9.94585 41.7213C9.73212 41.8004 9.46568 41.815 9.14362 41.7623C8.87719 41.7447 8.66931 41.6774 8.52878 41.5603C8.38531 41.4461 8.29748 41.3026 8.26235 41.1328C8.22721 40.963 8.20964 40.7727 8.20964 40.559V34.9668C8.20964 34.1821 8.11595 33.4941 7.92857 32.9056C7.74119 32.3171 7.45426 31.8633 7.07365 31.5412C6.6901 31.2192 6.19529 31.0611 5.58923 31.0611C4.94804 31.0611 4.38004 31.225 3.89109 31.5559C3.39921 31.8867 3.02152 32.3464 2.75509 32.9349C2.48866 33.5234 2.35398 34.2026 2.35398 34.9668V40.5853C2.35398 40.8342 2.32763 41.0479 2.27493 41.2265C2.22223 41.4051 2.11097 41.5427 1.94115 41.6422C1.77134 41.7389 1.50783 41.7886 1.15064 41.7886V41.7916Z" fill="#FE6D60"/>
<path d="M26.3068 38.4303L22.3279 29.5122C22.1317 29.0847 21.9238 28.8212 21.7013 28.7216C21.4759 28.625 21.1597 28.6631 20.7498 28.8417C20.3223 29.0378 20.0764 29.2545 20.0149 29.4858C19.9534 29.7171 20.012 30.0275 20.1876 30.4198L25.0361 41.2791L26.3068 44.125L27.5804 41.2791L26.3068 38.4303ZM32.6016 29.4858C32.5372 29.2545 32.2942 29.0378 31.8667 28.8417C31.4539 28.6631 31.1377 28.625 30.9152 28.7216C30.6927 28.8212 30.4819 29.0847 30.2857 29.5122L26.3068 38.4303L25.0361 41.2791L23.1974 45.4015C23.0013 45.8114 22.9398 46.1335 23.0101 46.3648C23.0832 46.5961 23.3321 46.801 23.7596 46.9796C24.1695 47.1582 24.4828 47.2168 24.6965 47.1523C24.9102 47.0909 25.1064 46.8449 25.285 46.4175L26.3068 44.125L27.5804 41.2791L32.426 30.4198C32.6046 30.0275 32.6631 29.7171 32.6016 29.4858Z" fill="#FE6D60"/>
<path d="M35.5325 41.7916C35.1928 41.7916 34.944 41.7389 34.7829 41.6305C34.6219 41.5222 34.5165 41.3817 34.4609 41.2031C34.4082 41.0245 34.3818 40.8107 34.3818 40.5619V29.969C34.3818 29.7377 34.4082 29.5357 34.4609 29.3658C34.5136 29.196 34.6248 29.0672 34.7947 28.9764C34.9645 28.8886 35.2192 28.8418 35.5559 28.8418C35.9482 28.8418 36.2293 28.9179 36.3991 29.0701C36.5689 29.2224 36.6538 29.4859 36.6538 29.8606L36.5455 31.0113C36.6714 30.7449 36.8588 30.4755 37.1076 30.2091C37.3565 29.9426 37.6552 29.6996 38.0036 29.4859C38.352 29.2722 38.7209 29.1023 39.1132 28.9764C39.5055 28.8535 39.9067 28.7891 40.3166 28.7891C40.9402 28.7891 41.4965 28.9003 41.9883 29.1228C42.4773 29.3454 42.9194 29.6616 43.3117 30.0715C43.7041 30.4813 44.0349 30.9908 44.3013 31.5969C44.6585 31.0084 45.0362 30.5048 45.4373 30.0861C45.8384 29.6674 46.2923 29.3454 46.8017 29.1228C47.3111 28.9003 47.885 28.7891 48.5262 28.7891C49.5597 28.7891 50.4205 29.0438 51.1085 29.5503C51.7937 30.0597 52.3119 30.7712 52.6603 31.6905C53.0087 32.6099 53.1815 33.7107 53.1815 34.9931V40.5853C53.1815 40.8342 53.1551 41.0479 53.1024 41.2265C53.0497 41.4051 52.9414 41.5427 52.7803 41.6422C52.6193 41.7389 52.3617 41.7886 52.0045 41.7886C51.6473 41.7886 51.4072 41.7359 51.2286 41.6276C51.05 41.5193 50.9387 41.3787 50.8948 41.2001C50.8509 41.0215 50.8275 40.8078 50.8275 40.559V34.9668C50.8275 34.1821 50.7279 33.4941 50.5318 32.9056C50.3356 32.3171 50.0516 31.8633 49.6768 31.5412C49.3021 31.2192 48.8102 31.0611 48.2041 31.0611C47.5629 31.0611 46.9949 31.2221 46.506 31.5412C46.0141 31.8633 45.6364 32.3142 45.37 32.891C45.1036 33.4707 44.9689 34.1616 44.9689 34.9639V40.6087C44.9689 40.8752 44.9162 41.1094 44.8078 41.3055C44.6995 41.5017 44.5414 41.6393 44.3277 41.7213C44.114 41.8004 43.8475 41.815 43.5255 41.7623C43.259 41.7447 43.0511 41.6774 42.9106 41.5603C42.7671 41.4461 42.6793 41.3026 42.6442 41.1328C42.609 40.963 42.5915 40.7727 42.5915 40.559V34.9668C42.5915 34.1821 42.4978 33.4941 42.3104 32.9056C42.123 32.3171 41.8361 31.8633 41.4555 31.5412C41.0719 31.2192 40.5771 31.0611 39.9711 31.0611C39.3299 31.0611 38.7619 31.225 38.2729 31.5559C37.7811 31.8867 37.4034 32.3464 37.1369 32.9349C36.8705 33.5234 36.7358 34.2026 36.7358 34.9668V40.5853C36.7358 40.8342 36.7095 41.0479 36.6568 41.2265C36.6041 41.4051 36.4928 41.5427 36.323 41.6422C36.1532 41.7389 35.8897 41.7886 35.5325 41.7886V41.7916Z" fill="#FE6D60"/>
<path d="M69.8636 29.1386L72.4313 29.165L76.1497 29.1123C76.3985 29.1123 76.6123 29.1357 76.7909 29.1796C76.9695 29.2235 77.1071 29.3319 77.2066 29.5017C77.3032 29.6715 77.353 29.9262 77.353 30.2629C77.353 30.5996 77.3091 30.8573 77.2183 31.0241C77.1305 31.194 76.9958 31.3052 76.8172 31.3579C76.6386 31.4106 76.4249 31.437 76.176 31.437L72.5104 31.3843L69.808 31.437C69.4332 31.4194 69.1785 31.3228 69.0468 31.1413C68.9121 30.9627 68.8477 30.6699 68.8477 30.26C68.8477 29.8501 68.9267 29.5837 69.0877 29.4051C69.2488 29.2265 69.5064 29.1386 69.8636 29.1386ZM75.8569 41.7927C75.0195 41.7927 74.3051 41.7137 73.7166 41.5526C73.1281 41.3916 72.6509 41.1427 72.2849 40.8031C71.919 40.4635 71.6555 40.0243 71.4944 39.4797C71.3334 38.9352 71.2543 38.2618 71.2543 37.4595V25.6633C71.2543 25.3969 71.2807 25.1743 71.3334 24.9957C71.3861 24.8171 71.4944 24.6795 71.6555 24.58C71.8165 24.4834 72.0653 24.4336 72.405 24.4336C72.7446 24.4336 73.0023 24.4834 73.1809 24.58C73.3594 24.6795 73.4766 24.8171 73.5293 24.9957C73.582 25.1743 73.6083 25.3793 73.6083 25.6106V37.4625C73.6083 37.9251 73.6493 38.2969 73.7284 38.5721C73.8074 38.8502 73.9333 39.0581 74.1031 39.2016C74.2729 39.3451 74.4984 39.4329 74.7853 39.468C75.0693 39.5032 75.4177 39.5207 75.8276 39.5207C76.1116 39.5207 76.3458 39.5471 76.5244 39.5998C76.703 39.6525 76.8377 39.7608 76.9255 39.9218C77.0134 40.0829 77.0602 40.3229 77.0602 40.645C77.0602 40.9846 77.0105 41.2394 76.9138 41.4062C76.8172 41.5731 76.6738 41.6815 76.4864 41.7283C76.299 41.7722 76.0882 41.7956 75.8569 41.7956V41.7927Z" fill="#FE6D60"/>
<path d="M85.3287 41.9233C84.26 41.9233 83.3056 41.7447 82.4653 41.3875C81.6279 41.0303 80.9165 40.5443 80.3397 39.9295C79.76 39.3146 79.3149 38.6061 79.0016 37.8039C78.6884 37.0016 78.5332 36.1379 78.5332 35.2098C78.5332 33.9801 78.8172 32.8822 79.3881 31.9189C79.9591 30.9557 80.7525 30.1944 81.7685 29.6323C82.7844 29.0701 83.9438 28.7891 85.2467 28.7891C86.1397 28.7891 86.9361 28.9267 87.6417 29.2048C88.3444 29.483 88.9475 29.8519 89.4482 30.3145C89.9459 30.7771 90.3294 31.2953 90.5988 31.8662C90.8652 32.4371 90.9999 33.0081 90.9999 33.579C90.9999 34.4896 90.7862 35.1307 90.3587 35.5055C89.9313 35.8803 89.4042 36.0677 88.7806 36.0677H81.0482C81.0306 36.8347 81.2385 37.4994 81.6777 38.0615C82.1139 38.6237 82.6673 39.057 83.3348 39.3585C84.0024 39.663 84.6758 39.8124 85.3551 39.8124C85.8352 39.8124 86.2597 39.786 86.6257 39.7333C86.9917 39.6806 87.3079 39.6103 87.5743 39.5196C87.8408 39.4317 88.0692 39.341 88.2565 39.2531C88.4439 39.1653 88.6167 39.0745 88.7777 38.9867C88.9387 38.8989 89.091 38.8345 89.2315 38.7993C89.375 38.7642 89.5272 38.7759 89.6853 38.8403C89.8463 38.9018 89.9693 39.0248 90.0601 39.2004C90.1655 39.3439 90.2387 39.4786 90.2738 39.6015C90.3089 39.7274 90.3265 39.8592 90.3265 40.0027C90.3265 40.2691 90.1128 40.5502 89.6853 40.8459C89.2579 41.1416 88.6635 41.3934 87.9052 41.6071C87.1469 41.8208 86.2861 41.9292 85.3228 41.9292L85.3287 41.9233ZM81.0482 34.4603H87.7617C88.0838 34.4603 88.3327 34.4164 88.5113 34.3256C88.6899 34.2378 88.7777 33.9947 88.7777 33.6024C88.7777 33.1223 88.6254 32.6743 88.3239 32.2644C88.0194 31.8545 87.6066 31.5237 87.0795 31.2748C86.5525 31.0259 85.9435 30.9 85.2467 30.9C84.4796 30.9 83.7711 31.0552 83.1211 31.3685C82.4711 31.6818 81.9588 32.1034 81.584 32.6392C81.2092 33.175 81.0306 33.781 81.0482 34.4573V34.4603Z" fill="#FE6D60"/>
</svg>
