<svg width="16" height="16" viewBox="0 0 16 16" fill="none" xmlns="http://www.w3.org/2000/svg">
<path d="M14 8.375H2C1.50288 8.37552 1.02627 8.57323 0.674751 8.92475C0.323234 9.27627 0.125522 9.75288 0.125 10.25V11.75C0.125549 12.182 0.275048 12.6006 0.548292 12.9353C0.821535 13.2699 1.20181 13.5001 1.625 13.587V14.75C1.625 14.8495 1.66451 14.9448 1.73484 15.0152C1.80516 15.0855 1.90054 15.125 2 15.125C2.09946 15.125 2.19484 15.0855 2.26516 15.0152C2.33549 14.9448 2.375 14.8495 2.375 14.75V13.625H13.625V14.75C13.625 14.8495 13.6645 14.9448 13.7348 15.0152C13.8052 15.0855 13.9005 15.125 14 15.125C14.0995 15.125 14.1948 15.0855 14.2652 15.0152C14.3355 14.9448 14.375 14.8495 14.375 14.75V13.587C14.7982 13.5001 15.1785 13.2699 15.4517 12.9353C15.725 12.6006 15.8745 12.182 15.875 11.75V10.25C15.8745 9.75288 15.6768 9.27627 15.3252 8.92475C14.9737 8.57323 14.4971 8.37552 14 8.375ZM15.125 11.75C15.1247 12.0483 15.006 12.3342 14.7951 12.5451C14.5842 12.756 14.2983 12.8747 14 12.875H2C1.70173 12.8747 1.41577 12.756 1.20486 12.5451C0.993957 12.3342 0.875326 12.0483 0.875 11.75V10.25C0.875326 9.95173 0.993957 9.66577 1.20486 9.45486C1.41577 9.24396 1.70173 9.12533 2 9.125H14C14.2983 9.12533 14.5842 9.24396 14.7951 9.45486C15.006 9.66577 15.1247 9.95173 15.125 10.25V11.75ZM2 7.25C1.87432 7.25462 1.74906 7.26728 1.625 7.2879V2.75C1.62552 2.25288 1.82323 1.77627 2.17475 1.42475C2.52627 1.07323 3.00288 0.875522 3.5 0.875H12.5C12.9971 0.875522 13.4737 1.07323 13.8252 1.42475C14.1768 1.77627 14.3745 2.25288 14.375 2.75V7.2879C14.2509 7.26728 14.1257 7.25462 14 7.25H13.625V2.75C13.6247 2.45173 13.506 2.16577 13.2951 1.95486C13.0842 1.74396 12.7983 1.62533 12.5 1.625H3.5C3.20173 1.62533 2.91577 1.74396 2.70486 1.95486C2.49396 2.16577 2.37533 2.45173 2.375 2.75V7.25H2ZM12.875 7.25H12.125C12.1247 6.95173 12.006 6.66577 11.7951 6.45486C11.5842 6.24396 11.2983 6.12533 11 6.125H9.5C9.20173 6.12533 8.91577 6.24396 8.70486 6.45486C8.49396 6.66577 8.37533 6.95173 8.375 7.25H7.625C7.62467 6.95173 7.50604 6.66577 7.29514 6.45486C7.08423 6.24396 6.79827 6.12533 6.5 6.125H5C4.70173 6.12533 4.41577 6.24396 4.20486 6.45486C3.99396 6.66577 3.87533 6.95173 3.875 7.25H3.125C3.12552 6.75288 3.32323 6.27627 3.67475 5.92475C4.02627 5.57323 4.50288 5.37552 5 5.375H6.5C6.79216 5.37575 7.08007 5.44503 7.34058 5.57728C7.6011 5.70952 7.82696 5.90104 8 6.13645C8.17304 5.90104 8.3989 5.70952 8.65942 5.57728C8.91993 5.44503 9.20784 5.37575 9.5 5.375H11C11.4971 5.37552 11.9737 5.57323 12.3252 5.92475C12.6768 6.27627 12.8745 6.75288 12.875 7.25Z" fill="#01A6A1"/>
</svg>
