<svg width="17" height="23" viewBox="0 0 17 23" fill="none" xmlns="http://www.w3.org/2000/svg">
<g clip-path="url(#clip0_403_4084)">
<path d="M11.2018 13.6367H5.79719C5.66631 13.6367 5.54079 13.6901 5.44825 13.785C5.3557 13.88 5.30371 14.0088 5.30371 14.143V15.9308C5.30436 16.6248 5.5733 17.2901 6.05152 17.7809C6.52973 18.2716 7.17816 18.5477 7.85452 18.5485H9.14449C9.8209 18.5477 10.4694 18.2717 10.9477 17.7809C11.426 17.2902 11.695 16.6248 11.6958 15.9308V14.143C11.6958 14.0765 11.683 14.0106 11.6582 13.9492C11.6334 13.8877 11.597 13.8319 11.5511 13.7848C11.5052 13.7378 11.4507 13.7005 11.3908 13.6751C11.3309 13.6497 11.2667 13.6367 11.2018 13.6367ZM10.7083 15.9308C10.7078 16.3564 10.5428 16.7643 10.2496 17.0652C9.95632 17.3661 9.55873 17.5353 9.144 17.5359H7.85452C7.43984 17.5353 7.0423 17.366 6.74912 17.0651C6.45594 16.7642 6.29107 16.3563 6.29068 15.9308V14.6494H10.7083V15.9308Z" fill="#01A6A1"/>
<path d="M5.87199 3.74156C5.93667 3.74596 6.00156 3.73724 6.06295 3.71591C6.12435 3.69457 6.18104 3.66104 6.2298 3.61721C6.27856 3.57339 6.31843 3.52015 6.34713 3.46051C6.37582 3.40088 6.39279 3.33603 6.39706 3.26967L6.42173 2.88284C6.47805 2.37463 6.71248 1.90474 7.08135 1.56068C7.45023 1.21662 7.92841 1.02184 8.42685 1.01261C8.92528 1.00338 9.41 1.18034 9.79074 1.51052C10.1715 1.8407 10.4223 2.30161 10.4964 2.8074L10.5418 3.28537C10.554 3.41017 10.611 3.52587 10.7016 3.61006C10.7922 3.69425 10.9101 3.74093 11.0323 3.74105C11.0481 3.74105 11.0639 3.74105 11.0817 3.74105C11.1463 3.73471 11.209 3.71537 11.2662 3.68414C11.3235 3.65291 11.3742 3.61041 11.4155 3.55906C11.4567 3.50771 11.4877 3.44852 11.5066 3.38488C11.5256 3.32123 11.5321 3.25438 11.5258 3.18815L11.4799 2.69753L11.477 2.67323C11.3701 1.92157 10.9998 1.23567 10.4354 0.744033C9.87102 0.252393 9.1513 -0.0112601 8.41106 0.00246309C7.67082 0.0161863 6.96085 0.306344 6.41415 0.818582C5.86744 1.33082 5.52152 2.02999 5.44118 2.78512C5.44118 2.79221 5.44118 2.79981 5.44118 2.80689L5.41601 3.20486C5.40786 3.33789 5.45117 3.46885 5.53653 3.56933C5.6219 3.6698 5.74243 3.73169 5.87199 3.74156Z" fill="#01A6A1"/>
<path d="M16.5065 11.125H12.3435L11.6955 4.63147C11.6833 4.50658 11.6263 4.3908 11.5356 4.3066C11.4448 4.2224 11.3269 4.17578 11.2045 4.17578H5.79596C5.67371 4.17591 5.55585 4.22258 5.46523 4.30677C5.3746 4.39096 5.31766 4.50666 5.30544 4.63147L4.65601 11.125H0.493483C0.362603 11.125 0.237084 11.1783 0.144538 11.2733C0.0519918 11.3682 0 11.497 0 11.6313C0 11.7656 0.0519918 11.8944 0.144538 11.9893C0.237084 12.0843 0.362603 12.1376 0.493483 12.1376H2.79805V20.0635C2.79896 20.8421 3.10081 21.5885 3.63738 22.139C4.17395 22.6895 4.90143 22.9992 5.66025 23.0002H11.3397C12.0986 22.9992 12.8261 22.6895 13.3626 22.139C13.8992 21.5885 14.201 20.8421 14.202 20.0635V12.1376H16.5065C16.6374 12.1376 16.7629 12.0843 16.8555 11.9893C16.948 11.8944 17 11.7656 17 11.6313C17 11.497 16.948 11.3682 16.8555 11.2733C16.7629 11.1783 16.6374 11.125 16.5065 11.125ZM13.215 20.0635C13.215 20.5738 13.0174 21.0632 12.6657 21.424C12.3141 21.7848 11.8371 21.9875 11.3397 21.9875H5.66025C5.16291 21.9875 4.68593 21.7848 4.33426 21.424C3.98258 21.0632 3.78502 20.5738 3.78502 20.0635V12.1376H5.10163C5.22439 12.1383 5.34297 12.0919 5.43422 12.0077C5.52547 11.9234 5.58284 11.8073 5.59511 11.6819L6.24404 5.18842H10.7579L11.4069 11.6819C11.4191 11.8073 11.4765 11.9234 11.5677 12.0077C11.659 12.0919 11.7776 12.1383 11.9003 12.1376H13.217L13.215 20.0635Z" fill="#01A6A1"/>
</g>
<defs>
<clipPath id="clip0_403_4084">
<rect width="17" height="23" fill="white"/>
</clipPath>
</defs>
</svg>
