<svg width="24" height="18" viewBox="0 0 24 18" fill="none" xmlns="http://www.w3.org/2000/svg">
<path d="M11.9054 0.552734C7.97113 0.552734 4.03747 2.05151 1.04016 5.04883C0.968177 5.11794 0.910712 5.20071 0.871124 5.29231C0.831537 5.38391 0.810624 5.48248 0.809609 5.58226C0.808595 5.68204 0.827499 5.78102 0.865216 5.8734C0.902933 5.96578 0.958704 6.04971 1.02926 6.12027C1.09982 6.19083 1.18375 6.2466 1.27613 6.28431C1.36851 6.32203 1.46749 6.34094 1.56727 6.33992C1.66705 6.33891 1.76562 6.31799 1.85722 6.27841C1.94882 6.23882 2.03159 6.18135 2.1007 6.10938C7.52208 0.688002 16.2897 0.688002 21.7111 6.10938C21.7802 6.18135 21.8629 6.23882 21.9545 6.27841C22.0461 6.31799 22.1447 6.33891 22.2445 6.33992C22.3443 6.34093 22.4432 6.32203 22.5356 6.28431C22.628 6.2466 22.7119 6.19083 22.7825 6.12027C22.8531 6.04971 22.9088 5.96578 22.9465 5.8734C22.9843 5.78102 23.0032 5.68204 23.0021 5.58226C23.0011 5.48248 22.9802 5.38391 22.9406 5.29231C22.901 5.20071 22.8436 5.11794 22.7716 5.04883C19.7743 2.05151 15.8396 0.552734 11.9054 0.552734ZM11.9054 5.0127C9.11238 5.0127 6.32004 6.07558 4.19348 8.20215C4.1215 8.27126 4.06403 8.35403 4.02444 8.44563C3.98485 8.53723 3.96394 8.6358 3.96293 8.73558C3.96191 8.83536 3.98082 8.93434 4.01853 9.02672C4.05625 9.11911 4.11202 9.20303 4.18258 9.27359C4.25314 9.34415 4.33707 9.39992 4.42945 9.43764C4.52183 9.47536 4.62081 9.49426 4.72059 9.49325C4.82037 9.49223 4.91894 9.47132 5.01054 9.43173C5.10214 9.39214 5.18491 9.33467 5.25402 9.2627C8.93389 5.58283 14.8779 5.58283 18.5577 9.2627C18.6268 9.33467 18.7096 9.39214 18.8012 9.43173C18.8928 9.47131 18.9914 9.49223 19.0912 9.49324C19.1909 9.49426 19.2899 9.47535 19.3823 9.43763C19.4747 9.39992 19.5586 9.34415 19.6292 9.27359C19.6997 9.20303 19.7555 9.1191 19.7932 9.02672C19.8309 8.93434 19.8498 8.83536 19.8488 8.73558C19.8478 8.6358 19.8269 8.53723 19.7873 8.44563C19.7477 8.35403 19.6903 8.27126 19.6183 8.20215C17.4917 6.07558 14.6984 5.0127 11.9054 5.0127ZM11.9054 9.47168C10.2536 9.47168 8.60165 10.0996 7.34582 11.3555C7.20518 11.4962 7.12622 11.6871 7.12632 11.8861C7.12641 12.0851 7.20554 12.2759 7.34631 12.4165C7.48707 12.5571 7.67794 12.6361 7.87693 12.636C8.07591 12.6359 8.26671 12.5568 8.40734 12.416C10.3457 10.4777 13.4661 10.4777 15.4044 12.416C15.4735 12.488 15.5563 12.5455 15.6479 12.585C15.7395 12.6246 15.8381 12.6456 15.9378 12.6466C16.0376 12.6476 16.1366 12.6287 16.229 12.591C16.3214 12.5532 16.4053 12.4975 16.4759 12.4269C16.5464 12.3564 16.6022 12.2724 16.6399 12.18C16.6776 12.0877 16.6965 11.9887 16.6955 11.8889C16.6945 11.7891 16.6736 11.6905 16.634 11.599C16.5944 11.5074 16.5369 11.4246 16.465 11.3555C15.2091 10.0996 13.5571 9.47168 11.9054 9.47168ZM12.0001 14C11.4697 14 10.961 14.2107 10.5859 14.5858C10.2108 14.9609 10.0001 15.4696 10.0001 16C10.0001 16.5304 10.2108 17.0391 10.5859 17.4142C10.961 17.7893 11.4697 18 12.0001 18C12.5305 18 13.0393 17.7893 13.4143 17.4142C13.7894 17.0391 14.0001 16.5304 14.0001 16C14.0001 15.4696 13.7894 14.9609 13.4143 14.5858C13.0393 14.2107 12.5305 14 12.0001 14Z" fill="#01A6A1"/>
</svg>
