<svg width="63" height="56" viewBox="0 0 63 56" fill="none" xmlns="http://www.w3.org/2000/svg">
<path d="M55.6477 13.2056L53.996 9.37181C53.8942 9.13541 53.7051 8.94739 53.4682 8.84687L49.5563 7.18748L53.4814 5.46298C53.7094 5.36282 53.8919 5.18118 53.993 4.95362L55.6477 1.23099L57.3024 4.95362C57.4035 5.18118 57.5859 5.36281 57.8139 5.46298L61.7391 7.18748L57.8272 8.84687C57.5903 8.94739 57.4012 9.13541 57.2993 9.37181L55.6477 13.2056ZM55.6477 54.7527L53.9953 50.9762C53.8929 50.7422 53.7048 50.5562 53.4697 50.4565L49.5563 48.7964L53.4784 47.0732C53.71 46.9715 53.8945 46.7857 53.9946 46.5534L55.6477 42.7162L57.3008 46.5534C57.4009 46.7857 57.5853 46.9715 57.817 47.0732L61.7391 48.7964L57.8257 50.4565C57.5905 50.5562 57.4025 50.7422 57.3001 50.9762L55.6477 54.7527Z" stroke="#01A6A1" stroke-linecap="round" stroke-linejoin="round"/>
<path d="M15.015 33.7754L14.856 33.4322L14.5096 33.2801L2.48692 28L14.5096 22.7199L14.856 22.5678L15.015 22.2246L20.5 10.3798L25.985 22.2246L26.144 22.5678L26.4904 22.7199L38.5131 28L26.4904 33.2801L26.144 33.4322L25.985 33.7754L20.5 45.6202L15.015 33.7754Z" stroke="#01A6A1" stroke-width="2"/>
</svg>
