<svg width="91" height="85" viewBox="0 0 91 85" fill="none" xmlns="http://www.w3.org/2000/svg">
<path d="M27.5 8.66025C34.8205 4.43376 38.4808 2.32051 42.5 2.32051C46.5192 2.32051 50.1795 4.43376 57.5 8.66026L64.3061 12.5897C71.6266 16.8162 75.2868 18.9295 77.2965 22.4103C79.3061 25.891 79.3061 30.1175 79.3061 38.5705V46.4295C79.3061 54.8825 79.3061 59.109 77.2965 62.5897C75.2868 66.0705 71.6266 68.1838 64.3061 72.4103L57.5 76.3397C50.1795 80.5662 46.5192 82.6795 42.5 82.6795C38.4808 82.6795 34.8205 80.5662 27.5 76.3397L20.6939 72.4103C13.3734 68.1838 9.71316 66.0705 7.70354 62.5897C5.69392 59.109 5.69392 54.8825 5.69392 46.4295V38.5705C5.69392 30.1175 5.69392 25.891 7.70354 22.4103C9.71316 18.9295 13.3734 16.8162 20.6939 12.5897L27.5 8.66025Z" fill="#19CDB8" fill-opacity="0.3"/>
<g clip-path="url(#clip0_813_4082)">
<path d="M81.7568 26.7125H76.4564V19.1326C76.4564 18.0355 75.5638 17.1428 74.4667 17.1428H70.0513C68.9541 17.1428 68.0614 18.0355 68.0614 19.1326V19.6504H63.774V16.9897C63.774 15.8926 62.8813 15 61.7842 15H57.3687C56.2716 15 55.3789 15.8926 55.3789 16.9897V17.1428H51.0275C49.9304 17.1428 49.0377 18.0355 49.0377 19.1326V26.7126H33.7898C32.9227 26.7126 32.1077 27.0503 31.4946 27.6634C30.8814 28.2765 30.5438 29.0917 30.5439 29.9588L30.5442 36.7833H30.0787C28.38 36.7833 26.998 38.1652 26.998 39.864C26.998 41.5627 28.38 42.9446 30.0787 42.9446H30.5444L30.5445 45.6192H30.0787C28.38 45.6192 26.998 47.0011 26.998 48.6998C26.998 50.3986 28.38 51.7805 30.0787 51.7805H30.5446L30.5448 54.455H30.0787C28.38 54.455 26.998 55.8369 26.998 57.5357C26.998 59.2344 28.38 60.6163 30.0787 60.6163H30.5449L30.545 63.2909H30.0787C28.38 63.2909 26.998 64.6728 26.998 66.3715C26.998 68.0703 28.38 69.4522 30.0787 69.4522H30.5452L30.5454 79.6289C30.5454 79.6309 30.5457 79.633 30.5457 79.635C30.5157 81.0539 31.0422 82.3935 32.0316 83.4104C33.0291 84.4356 34.3661 85.0003 35.7965 85.0003H80.7412C83.0912 85.0003 85.0028 83.0885 85.0028 80.7386V74.7884V72.287V29.9585C85.0028 28.1687 83.5467 26.7125 81.7568 26.7125ZM70.1153 19.1965H74.4028V26.7126H70.1153V21.6402V19.1965ZM68.0616 21.7042V26.7126H63.7741V21.7042H68.0616ZM57.4329 17.0538H61.7204V21.6402V26.7126H57.4329V19.1326V17.0538ZM51.0917 19.1965H55.3792V26.7126H51.0917V19.1965ZM29.0517 39.8638C29.0517 39.2976 29.5123 38.837 30.0786 38.837H32.6548C33.2211 38.837 33.6817 39.2976 33.6817 39.8638C33.6817 40.4301 33.2211 40.8907 32.6548 40.8907H30.0786C29.5124 40.8907 29.0517 40.43 29.0517 39.8638ZM29.0517 48.6997C29.0517 48.1334 29.5123 47.6728 30.0786 47.6728H32.6548C33.2211 47.6728 33.6817 48.1334 33.6817 48.6997C33.6817 49.266 33.2211 49.7266 32.6548 49.7266H30.0786C29.5124 49.7266 29.0517 49.266 29.0517 48.6997ZM29.0517 57.5355C29.0517 56.9692 29.5123 56.5087 30.0786 56.5087H32.6548C33.2211 56.5087 33.6817 56.9692 33.6817 57.5355C33.6817 58.1018 33.2211 58.5624 32.6548 58.5624H30.0786C29.5124 58.5624 29.0517 58.1017 29.0517 57.5355ZM29.0517 66.3714C29.0517 65.8051 29.5123 65.3445 30.0786 65.3445H32.6548C33.2211 65.3445 33.6817 65.8051 33.6817 66.3714C33.6817 66.9377 33.2211 67.3983 32.6548 67.3983H30.0786C29.5124 67.3983 29.0517 66.9375 29.0517 66.3714ZM82.949 80.7383C82.949 81.9558 81.9586 82.9462 80.7412 82.9462H35.7964C34.9253 82.9462 34.1111 82.6023 33.5034 81.9778C32.896 81.3536 32.5747 80.5292 32.5987 79.6566C32.6456 77.9427 34.1195 76.5483 35.8843 76.5483H46.2617C46.8288 76.5483 47.2886 76.0886 47.2886 75.5215C47.2886 74.9543 46.8288 74.4946 46.2617 74.4946H35.8843C34.6534 74.4946 33.5097 74.9167 32.5989 75.6215L32.5988 69.4518H32.6548C34.3535 69.4518 35.7354 68.0698 35.7354 66.3711C35.7354 64.6724 34.3535 63.2905 32.6548 63.2905H32.5987L32.5985 60.6159H32.6548C34.3535 60.6159 35.7354 59.234 35.7354 57.5353C35.7354 55.8365 34.3535 54.4546 32.6548 54.4546H32.5984L32.5983 51.7801H32.6548C34.3535 51.7801 35.7354 50.3982 35.7354 48.6994C35.7354 47.0007 34.3535 45.6188 32.6548 45.6188H32.5981L32.598 42.9442H32.6548C34.3535 42.9442 35.7354 41.5623 35.7354 39.8636C35.7354 38.1648 34.3535 36.7829 32.6548 36.7829H32.5978L32.5976 29.9583C32.5976 29.6398 32.7216 29.3405 32.9467 29.1153C33.1719 28.89 33.4712 28.7661 33.7897 28.7661H81.7566C82.414 28.7661 82.9489 29.3009 82.9489 29.9584V72.2866C82.9489 73.5041 81.9584 74.4946 80.7411 74.4946H53.3658H50.638C50.0709 74.4946 49.6111 74.9543 49.6111 75.5215C49.6111 76.0886 50.0709 76.5483 50.638 76.5483H53.3658H80.7411C81.5487 76.5483 82.3047 76.3224 82.9489 75.9307V80.7383H82.949Z" fill="black"/>
<path d="M79.8688 64.1406C80.4359 64.1406 80.8956 63.6808 80.8956 63.1137V31.8472C80.8956 31.2801 80.4359 30.8203 79.8688 30.8203H39.8169C39.5446 30.8203 39.2834 30.9285 39.0908 31.1211C38.8982 31.3138 38.79 31.5749 38.79 31.8473L38.7903 39.7298C38.7903 40.2969 39.2501 40.7567 39.8172 40.7567C40.3843 40.7567 40.8441 40.2969 40.8441 39.7298L40.8438 32.8742H78.8417V62.087H71.1147V58.8574C71.1147 58.2902 70.6549 57.8305 70.0878 57.8305C69.5207 57.8305 69.0609 58.2902 69.0609 58.8574V62.087H64.3779V59.6053C64.3779 57.1045 62.3434 55.0701 59.8426 55.0701C57.342 55.0701 55.3074 57.1045 55.3074 59.6053V62.0868H50.6244V50.7119L59.8426 43.2349L69.0609 50.712V54.4812C69.0609 55.0483 69.5207 55.5081 70.0878 55.5081C70.6549 55.5081 71.1147 55.0483 71.1147 54.4812V52.1214C71.9545 52.345 72.8862 52.0768 73.4683 51.3593L74.4849 50.106C74.8674 49.6343 75.0435 49.0419 74.9805 48.4378C74.9175 47.8337 74.623 47.2904 74.1514 46.9077L61.7833 36.8758C60.6588 35.9635 59.0265 35.9634 57.902 36.8758L45.5338 46.9077C45.0621 47.2903 44.7676 47.8337 44.7046 48.4378C44.6416 49.0419 44.8177 49.6343 45.2003 50.106L46.2169 51.3593C46.6657 51.9126 47.3226 52.1997 47.9849 52.1997C48.1815 52.1997 48.3784 52.1736 48.5706 52.1224V62.0868H40.8446L40.8441 44.1058C40.8441 43.5387 40.3843 43.079 39.8172 43.079C39.2501 43.079 38.7903 43.5387 38.7903 44.1058L38.791 63.1155C38.791 63.3915 38.9022 63.6558 39.0992 63.849C39.2913 64.0372 39.5494 64.1424 39.8179 64.1424C39.8249 64.1424 39.832 64.1424 39.839 64.1422C39.8937 64.1411 39.9485 64.1406 40.0035 64.1406H79.8688ZM47.8122 50.0655L46.7956 48.8121C46.7481 48.7537 46.7433 48.692 46.7477 48.6507C46.7519 48.6093 46.7695 48.5501 46.8279 48.5025L59.1961 38.4705C59.3836 38.3185 59.6132 38.2425 59.8429 38.2425C60.0727 38.2425 60.3024 38.3185 60.4898 38.4706L72.8579 48.5025C72.9164 48.5501 72.9339 48.6092 72.9381 48.6507C72.9425 48.692 72.9377 48.7535 72.8902 48.8121L71.8737 50.0653C71.7972 50.1597 71.6585 50.174 71.5643 50.0976L60.49 41.1152C60.1129 40.8093 59.5733 40.8094 59.1963 41.1152L48.1218 50.0976C48.0273 50.174 47.8885 50.1597 47.8122 50.0655ZM57.3614 59.6053C57.3614 58.237 58.4746 57.1238 59.8429 57.1238C61.2111 57.1238 62.3244 58.237 62.3244 59.6053V62.0868H57.3614V59.6053Z" fill="black"/>
<path d="M56.3345 49.0586C55.7674 49.0586 55.3076 49.5184 55.3076 50.0855C55.3076 50.6526 55.7674 51.1124 56.3345 51.1124H63.3513C63.9184 51.1124 64.3781 50.6526 64.3781 50.0855C64.3781 49.5184 63.9184 49.0586 63.3513 49.0586H56.3345Z" fill="black"/>
</g>
<defs>
<clipPath id="clip0_813_4082">
<rect width="70" height="70" fill="white" transform="translate(21 15)"/>
</clipPath>
</defs>
</svg>
