<svg width="22" height="22" viewBox="0 0 22 22" fill="none" xmlns="http://www.w3.org/2000/svg">
<path d="M11.0007 21C5.48562 21 1 16.5143 1 11C1 5.48571 5.48562 1 11.0007 1C16.5158 1 21 5.48571 21 11C21 16.5143 16.5144 21 11.0007 21ZM11.0007 1.57143C5.80427 1.57143 1.57674 5.80143 1.57674 11C1.57674 16.1986 5.80427 20.4286 11.0007 20.4286C16.1972 20.4286 20.4233 16.1986 20.4233 11C20.4233 5.80143 16.1957 1.57143 11.0007 1.57143Z" fill="#01A6A1" stroke="#01A6A1" stroke-width="0.4"/>
<path d="M8.64167 14.5589C8.58104 14.559 8.52193 14.5401 8.47275 14.505C8.42357 14.4698 8.38682 14.4202 8.36772 14.3632L6.85809 9.81749C6.83923 9.76047 6.83897 9.69901 6.85734 9.64182C6.87572 9.58464 6.9118 9.53464 6.96047 9.49892L10.8131 6.65321C10.8626 6.61712 10.9225 6.59766 10.984 6.59766C11.0454 6.59766 11.1053 6.61712 11.1548 6.65321L15.0478 9.43892C15.097 9.47399 15.1337 9.52349 15.1529 9.58042C15.172 9.63734 15.1726 9.6988 15.1545 9.75606L13.7127 14.3275C13.6944 14.3851 13.6582 14.4354 13.6092 14.4714C13.5603 14.5073 13.5011 14.527 13.4402 14.5275L8.65032 14.5632L8.64167 14.5589ZM7.47088 9.83464L8.85507 13.9861L13.2239 13.9532L14.5446 9.78035L10.989 7.23749L7.47088 9.83464Z" fill="#01A6A1" stroke="#01A6A1" stroke-width="0.4"/>
<path d="M10.9759 7.16881C10.8994 7.16881 10.826 7.1387 10.772 7.08512C10.7179 7.03154 10.6875 6.95887 10.6875 6.88309V4.02595C10.6875 3.95017 10.7179 3.8775 10.772 3.82392C10.826 3.77034 10.8994 3.74023 10.9759 3.74023C11.0524 3.74023 11.1257 3.77034 11.1798 3.82392C11.2339 3.8775 11.2642 3.95017 11.2642 4.02595V6.88309C11.2642 6.95887 11.2339 7.03154 11.1798 7.08512C11.1257 7.1387 11.0524 7.16881 10.9759 7.16881Z" fill="#01A6A1" stroke="#01A6A1" stroke-width="0.4"/>
<path d="M10.9766 4.30576C10.9039 4.30589 10.8339 4.27885 10.7805 4.23004L8.20967 1.84576C8.17798 1.82148 8.15174 1.79094 8.13262 1.75606C8.1135 1.72119 8.10193 1.68275 8.09863 1.64319C8.09534 1.60364 8.1004 1.56384 8.11349 1.52633C8.12658 1.48882 8.14741 1.45443 8.17466 1.42534C8.20191 1.39625 8.23497 1.3731 8.27175 1.35738C8.30853 1.34165 8.34821 1.33368 8.38827 1.33399C8.42832 1.3343 8.46787 1.34287 8.5044 1.35916C8.54093 1.37546 8.57363 1.39911 8.60042 1.42861L11.1741 3.81147C11.2164 3.85066 11.2458 3.90155 11.2584 3.95751C11.2711 4.01347 11.2665 4.07191 11.2452 4.12523C11.2239 4.17855 11.1868 4.22428 11.1389 4.25648C11.091 4.28867 11.0345 4.30584 10.9766 4.30576V4.30576Z" fill="#01A6A1" stroke="#01A6A1" stroke-width="0.4"/>
<path d="M10.9759 4.30505C10.9181 4.30486 10.8617 4.28748 10.8141 4.25517C10.7664 4.22287 10.7296 4.17712 10.7085 4.12386C10.6873 4.0706 10.6828 4.01228 10.6955 3.95646C10.7083 3.90063 10.7376 3.84988 10.7798 3.81077L13.3535 1.42791C13.3808 1.4007 13.4134 1.37923 13.4493 1.36478C13.4852 1.35033 13.5236 1.34319 13.5624 1.34378C13.6011 1.34438 13.6393 1.35271 13.6747 1.36827C13.7102 1.38383 13.7421 1.4063 13.7685 1.43434C13.795 1.46238 13.8155 1.49541 13.8287 1.53147C13.842 1.56753 13.8479 1.60587 13.8459 1.6442C13.8439 1.68254 13.8341 1.72008 13.8171 1.75459C13.8001 1.7891 13.7763 1.81986 13.7471 1.84505L11.1734 4.22934C11.1196 4.27849 11.049 4.30555 10.9759 4.30505Z" fill="#01A6A1" stroke="#01A6A1" stroke-width="0.4"/>
<path d="M7.1326 10.0143C7.10362 10.0144 7.07484 10.0096 7.04753 9.99999L4.27051 9.14285C4.19747 9.12011 4.13654 9.06956 4.10112 9.00232C4.06569 8.93507 4.05868 8.85664 4.08163 8.78427C4.10457 8.71191 4.15559 8.65154 4.22346 8.61644C4.29133 8.58134 4.3705 8.5744 4.44353 8.59713L7.21911 9.45427C7.28507 9.47457 7.34149 9.51765 7.3781 9.57568C7.41472 9.63371 7.42909 9.70283 7.41862 9.77047C7.40814 9.83811 7.37351 9.89978 7.32102 9.94426C7.26853 9.98874 7.20167 10.0131 7.1326 10.0128V10.0143Z" fill="#01A6A1" stroke="#01A6A1" stroke-width="0.4"/>
<path d="M1.29595 10.8643C1.23162 10.8653 1.16879 10.845 1.11746 10.8066C1.06613 10.7682 1.02924 10.7138 1.01267 10.6522C0.99609 10.5906 1.00078 10.5253 1.02598 10.4667C1.05119 10.408 1.09546 10.3594 1.15176 10.3286L4.21282 8.6143C4.24577 8.59554 4.28212 8.58339 4.31981 8.57855C4.35749 8.57371 4.39577 8.57627 4.43246 8.58609C4.46914 8.5959 4.50352 8.61278 4.53362 8.63576C4.56372 8.65874 4.58896 8.68737 4.60789 8.72001C4.62683 8.75266 4.63909 8.78867 4.64397 8.82601C4.64886 8.86335 4.64627 8.90127 4.63637 8.93762C4.62646 8.97397 4.60942 9.00803 4.58623 9.03785C4.56304 9.06768 4.53414 9.09268 4.5012 9.11144L1.43292 10.8272C1.3911 10.8507 1.34402 10.8634 1.29595 10.8643V10.8643Z" fill="#01A6A1" stroke="#01A6A1" stroke-width="0.4"/>
<path d="M4.35707 9.1513C4.30176 9.15131 4.24761 9.13556 4.20108 9.10593C4.15455 9.07629 4.11761 9.03402 4.09465 8.98416L2.62396 5.79987C2.59203 5.73092 2.58905 5.65222 2.61568 5.58109C2.64232 5.50996 2.69638 5.45223 2.76598 5.42059C2.83558 5.38895 2.91501 5.386 2.9868 5.41239C3.05859 5.43878 3.11686 5.49235 3.14879 5.5613L4.61949 8.74702C4.63516 8.78125 4.64387 8.8182 4.6451 8.85577C4.64634 8.89334 4.64008 8.93078 4.62669 8.96595C4.61329 9.00112 4.59302 9.03332 4.56705 9.06071C4.54107 9.08811 4.50989 9.11015 4.4753 9.12559C4.43817 9.14235 4.39787 9.15112 4.35707 9.1513V9.1513Z" fill="#01A6A1" stroke="#01A6A1" stroke-width="0.4"/>
<path d="M6.91204 16.9466C6.85921 16.9464 6.80746 16.9318 6.76244 16.9044C6.71742 16.877 6.68086 16.8378 6.65676 16.7912C6.63265 16.7447 6.62193 16.6924 6.62576 16.6402C6.62959 16.588 6.64782 16.5378 6.67846 16.4952L8.40869 14.108C8.45399 14.0484 8.52103 14.0087 8.59549 13.9974C8.66994 13.9861 8.7459 14.0042 8.80712 14.0477C8.86833 14.0911 8.90995 14.1566 8.92306 14.2301C8.93618 14.3036 8.91975 14.3793 8.87729 14.4409L7.14707 16.828C7.12023 16.8649 7.08491 16.8949 7.04404 16.9155C7.00316 16.9361 6.95791 16.9468 6.91204 16.9466Z" fill="#01A6A1" stroke="#01A6A1" stroke-width="0.4"/>
<path d="M7.5989 20.387C7.53123 20.3882 7.46526 20.3659 7.41254 20.3239C7.35982 20.2818 7.32371 20.2227 7.31053 20.157L6.63429 16.7141C6.61957 16.6396 6.6353 16.5625 6.67803 16.4995C6.72075 16.4365 6.78697 16.393 6.86211 16.3784C6.93725 16.3638 7.01516 16.3794 7.07871 16.4217C7.14225 16.464 7.18622 16.5296 7.20094 16.6041L7.88294 20.0441C7.89028 20.081 7.8902 20.1189 7.88272 20.1557C7.87523 20.1926 7.86049 20.2276 7.83933 20.2588C7.81817 20.29 7.791 20.3167 7.7594 20.3375C7.72779 20.3582 7.69236 20.3726 7.65513 20.3798C7.63672 20.3843 7.61785 20.3867 7.5989 20.387V20.387Z" fill="#01A6A1" stroke="#01A6A1" stroke-width="0.4"/>
<path d="M3.4351 17.3607C3.35862 17.3653 3.28345 17.3395 3.22612 17.2892C3.1688 17.2388 3.13401 17.1679 3.12943 17.0922C3.12484 17.0164 3.15082 16.9419 3.20165 16.8851C3.25249 16.8283 3.32401 16.7938 3.40049 16.7893L6.88402 16.375C6.9605 16.3661 7.03742 16.3877 7.09785 16.435C7.15829 16.4822 7.19729 16.5514 7.20628 16.6272C7.21526 16.7029 7.1935 16.7791 7.14577 16.839C7.09805 16.8989 7.02827 16.9375 6.95179 16.9464L3.4697 17.3607H3.4351Z" fill="#01A6A1" stroke="#01A6A1" stroke-width="0.4"/>
<path d="M15.1201 16.9187C15.0745 16.9186 15.0295 16.9078 14.9889 16.8872C14.9483 16.8666 14.9132 16.8367 14.8865 16.8001L13.1462 14.4044C13.1015 14.3428 13.0832 14.2661 13.0955 14.1913C13.1079 14.1164 13.1497 14.0494 13.2118 14.0051C13.274 13.9608 13.3513 13.9427 13.4269 13.9549C13.5025 13.9671 13.5701 14.0085 13.6148 14.0701L15.3551 16.4658C15.3997 16.5274 15.4177 16.6039 15.4053 16.6787C15.3928 16.7534 15.3509 16.8202 15.2888 16.8644C15.2397 16.8996 15.1807 16.9186 15.1201 16.9187V16.9187Z" fill="#01A6A1" stroke="#01A6A1" stroke-width="0.4"/>
<path d="M18.604 17.3329H18.5694L15.0859 16.9172C15.0094 16.9081 14.9397 16.8693 14.8921 16.8093C14.8446 16.7493 14.823 16.673 14.8321 16.5972C14.8413 16.5215 14.8805 16.4524 14.9411 16.4052C15.0016 16.3581 15.0786 16.3367 15.1551 16.3458L18.6387 16.7601C18.7151 16.7646 18.7867 16.7991 18.8375 16.8559C18.8883 16.9127 18.9143 16.9872 18.9097 17.0629C18.9051 17.1387 18.8703 17.2096 18.813 17.26C18.7557 17.3103 18.6805 17.3361 18.604 17.3315V17.3329Z" fill="#01A6A1" stroke="#01A6A1" stroke-width="0.4"/>
<path d="M14.4399 20.3595C14.4212 20.3609 14.4024 20.3609 14.3837 20.3595C14.3464 20.3523 14.311 20.3379 14.2794 20.3171C14.2478 20.2964 14.2206 20.2696 14.1995 20.2384C14.1783 20.2073 14.1635 20.1722 14.1561 20.1354C14.1486 20.0986 14.1485 20.0606 14.1558 20.0238L14.8422 16.5709C14.8569 16.4964 14.9009 16.4308 14.9644 16.3885C15.0279 16.3462 15.1059 16.3306 15.181 16.3452C15.2561 16.3598 15.3224 16.4033 15.3651 16.4663C15.4078 16.5293 15.4235 16.6064 15.4088 16.6809L14.7225 20.128C14.7098 20.1931 14.6746 20.2518 14.6231 20.294C14.5715 20.3362 14.5068 20.3594 14.4399 20.3595Z" fill="#01A6A1" stroke="#01A6A1" stroke-width="0.4"/>
<path d="M14.8826 9.95503C14.8137 9.95492 14.7471 9.93034 14.6948 9.88575C14.6426 9.84115 14.6082 9.77949 14.598 9.71195C14.5877 9.6444 14.6021 9.57544 14.6388 9.51756C14.6754 9.45968 14.7317 9.41672 14.7976 9.39646L17.5371 8.54932C17.5738 8.53575 17.6128 8.52971 17.6519 8.53158C17.691 8.53345 17.7293 8.54319 17.7645 8.5602C17.7997 8.57721 17.831 8.60114 17.8565 8.63053C17.8821 8.65991 17.9013 8.69414 17.9131 8.73113C17.9248 8.76812 17.9289 8.8071 17.9249 8.84568C17.921 8.88426 17.9092 8.92165 17.8902 8.95556C17.8712 8.98948 17.8454 9.0192 17.8145 9.04294C17.7835 9.06667 17.748 9.08391 17.7101 9.0936L14.9691 9.94217C14.9413 9.95131 14.912 9.95565 14.8826 9.95503Z" fill="#01A6A1" stroke="#01A6A1" stroke-width="0.4"/>
<path d="M17.6285 9.1068C17.587 9.10684 17.5461 9.09756 17.5088 9.07966C17.4742 9.06422 17.4431 9.04217 17.4171 9.01478C17.3911 8.98739 17.3708 8.95518 17.3574 8.92002C17.344 8.88485 17.3378 8.84741 17.339 8.80984C17.3403 8.77227 17.349 8.73531 17.3646 8.70108L18.8353 5.5168C18.851 5.48266 18.8734 5.45191 18.9011 5.42633C18.9288 5.40074 18.9613 5.38081 18.9968 5.36768C19.0323 5.35455 19.07 5.34847 19.1079 5.34979C19.1457 5.35111 19.183 5.3598 19.2174 5.37537C19.2519 5.39094 19.2829 5.41308 19.3087 5.44054C19.3346 5.46799 19.3547 5.50021 19.3679 5.53536C19.3812 5.57052 19.3873 5.60791 19.386 5.64542C19.3847 5.68292 19.3759 5.7198 19.3602 5.75394L17.8895 8.93966C17.8666 8.9893 17.8299 9.03142 17.7837 9.06104C17.7374 9.09066 17.6836 9.10654 17.6285 9.1068Z" fill="#01A6A1" stroke="#01A6A1" stroke-width="0.4"/>
<path d="M20.6899 10.8193C20.6394 10.8196 20.5897 10.8068 20.5457 10.7821L17.4847 9.06785C17.4179 9.02997 17.3691 8.96737 17.349 8.89382C17.3288 8.82028 17.339 8.74183 17.3773 8.67571C17.4155 8.6096 17.4787 8.56124 17.5529 8.54128C17.6271 8.52132 17.7063 8.53139 17.773 8.56928L20.8341 10.2836C20.8897 10.3148 20.9332 10.3633 20.9579 10.4217C20.9826 10.48 20.987 10.5448 20.9705 10.6059C20.954 10.6671 20.9175 10.721 20.8667 10.7594C20.816 10.7977 20.7538 10.8183 20.6899 10.8179V10.8193Z" fill="#01A6A1" stroke="#01A6A1" stroke-width="0.4"/>
</svg>
