<svg width="21" height="20" viewBox="0 0 21 20" fill="none" xmlns="http://www.w3.org/2000/svg">
<path d="M6.1875 13.8125C6.37812 13.8125 6.56094 13.7368 6.69573 13.602C6.83052 13.4672 6.90625 13.2844 6.90625 13.0938V12.375H7.625C7.81562 12.375 7.99844 12.2993 8.13323 12.1645C8.26802 12.0297 8.34375 11.8469 8.34375 11.6562C8.34375 11.4656 8.26802 11.2828 8.13323 11.148C7.99844 11.0132 7.81562 10.9375 7.625 10.9375H6.90625V10.2188C6.90625 10.0281 6.83052 9.84531 6.69573 9.71052C6.56094 9.57572 6.37812 9.5 6.1875 9.5C5.99688 9.5 5.81406 9.57572 5.67927 9.71052C5.54448 9.84531 5.46875 10.0281 5.46875 10.2188V10.9375H4.75C4.55938 10.9375 4.37656 11.0132 4.24177 11.148C4.10698 11.2828 4.03125 11.4656 4.03125 11.6562C4.03125 11.8469 4.10698 12.0297 4.24177 12.1645C4.37656 12.2993 4.55938 12.375 4.75 12.375H5.46875V13.0938C5.46875 13.2844 5.54448 13.4672 5.67927 13.602C5.81406 13.7368 5.99688 13.8125 6.1875 13.8125Z" fill="#01A6A1"/>
<path d="M14.8125 9.5C14.6703 9.5 14.5314 9.54215 14.4132 9.62113C14.295 9.70011 14.2029 9.81236 14.1485 9.9437C14.0941 10.075 14.0798 10.2195 14.1076 10.359C14.1353 10.4984 14.2037 10.6265 14.3043 10.727C14.4048 10.8275 14.5329 10.896 14.6723 10.9237C14.8117 10.9514 14.9562 10.9372 15.0876 10.8828C15.2189 10.8284 15.3311 10.7363 15.4101 10.6181C15.4891 10.4999 15.5313 10.3609 15.5313 10.2188C15.5313 10.0281 15.4555 9.84531 15.3207 9.71052C15.1859 9.57572 15.0031 9.5 14.8125 9.5Z" fill="#01A6A1"/>
<path d="M16.25 12.375C16.4406 12.375 16.6234 12.2993 16.7582 12.1645C16.893 12.0297 16.9688 11.8469 16.9688 11.6562C16.9688 11.4656 16.893 11.2828 16.7582 11.148C16.6234 11.0132 16.4406 10.9375 16.25 10.9375C16.0594 10.9375 15.8766 11.0132 15.7418 11.148C15.607 11.2828 15.5312 11.4656 15.5312 11.6562C15.5312 11.8469 15.607 12.0297 15.7418 12.1645C15.8766 12.2993 16.0594 12.375 16.25 12.375Z" fill="#01A6A1"/>
<path d="M14.8125 12.375C14.6703 12.375 14.5314 12.4172 14.4132 12.4961C14.295 12.5751 14.2029 12.6874 14.1485 12.8187C14.0941 12.95 14.0798 13.0945 14.1076 13.234C14.1353 13.3734 14.2037 13.5015 14.3043 13.602C14.4048 13.7025 14.5329 13.771 14.6723 13.7987C14.8117 13.8264 14.9562 13.8122 15.0876 13.7578C15.2189 13.7034 15.3311 13.6113 15.4101 13.4931C15.4891 13.3749 15.5313 13.2359 15.5313 13.0938C15.5313 12.9031 15.4555 12.7203 15.3207 12.5855C15.1859 12.4507 15.0031 12.375 14.8125 12.375Z" fill="#01A6A1"/>
<path d="M13.375 10.9375C13.2328 10.9375 13.0939 10.9797 12.9757 11.0586C12.8575 11.1376 12.7654 11.2499 12.711 11.3812C12.6566 11.5125 12.6423 11.657 12.6701 11.7965C12.6978 11.9359 12.7662 12.064 12.8668 12.1645C12.9673 12.265 13.0954 12.3335 13.2348 12.3612C13.3742 12.3889 13.5187 12.3747 13.6501 12.3203C13.7814 12.2659 13.8936 12.1738 13.9726 12.0556C14.0516 11.9374 14.0938 11.7984 14.0938 11.6562C14.0938 11.4656 14.018 11.2828 13.8832 11.148C13.7484 11.0132 13.5656 10.9375 13.375 10.9375Z" fill="#01A6A1"/>
<path d="M18.5862 7.48032C18.2782 6.74152 17.7213 6.1338 17.0122 5.7625C16.2088 5.45534 15.3391 5.36366 14.4894 5.49657C14.0367 5.54206 13.5907 5.6385 13.1597 5.78407C12.9728 5.84157 12.7931 5.91344 12.6206 5.98532C12.1735 6.18448 11.7023 6.32462 11.219 6.40219V5.78407C11.2209 4.67331 11.663 3.60859 12.4485 2.82317C13.2339 2.03774 14.2986 1.59565 15.4094 1.59375H16.969C17.1597 1.59375 17.3425 1.51803 17.4773 1.38324C17.6121 1.24845 17.6878 1.06563 17.6878 0.875005C17.6878 0.68438 17.6121 0.501563 17.4773 0.366772C17.3425 0.23198 17.1597 0.156255 16.969 0.156255H15.4094C14.67 0.155309 13.9378 0.300231 13.2546 0.58272C12.5713 0.865208 11.9506 1.27971 11.4278 1.80249C10.905 2.32527 10.4905 2.94605 10.208 3.62928C9.92552 4.3125 9.7806 5.04475 9.78155 5.78407V6.625C9.78202 6.7267 9.80407 6.82715 9.84623 6.91969C9.8109 7.0038 9.79375 7.09443 9.79592 7.18563C9.79592 7.37625 9.87165 7.55907 10.0064 7.69386C10.1412 7.82865 10.324 7.90438 10.5147 7.90438C11.4373 7.90373 12.35 7.71288 13.1956 7.34375L13.6125 7.17844C13.9459 7.06834 14.2907 6.99602 14.6403 6.96282C15.2322 6.86778 15.8382 6.91459 16.4084 7.09938C16.8187 7.3413 17.1333 7.71686 17.2997 8.16313C18.4497 10.4272 20.0165 13.5178 18.5719 16.4503C18.3161 16.9587 17.9894 17.4282 17.6015 17.8447C17.5025 17.9536 17.3796 18.0382 17.2424 18.0918C17.1053 18.1454 16.9576 18.1666 16.8109 18.1538C16.71 18.1472 16.6106 18.1254 16.5162 18.0891C16.0913 17.8976 15.7262 17.5945 15.4597 17.2122C15.1959 16.8862 14.9023 16.5854 14.5828 16.3138C14.0655 15.8914 13.4694 15.5762 12.829 15.3866C12.1021 15.2229 11.3603 15.1338 10.6153 15.1206C9.79885 15.1175 8.98441 15.2019 8.18592 15.3722C7.59803 15.5429 7.05216 15.8341 6.58311 16.2275C6.32328 16.4642 6.08292 16.7213 5.86436 16.9966C5.62904 17.3001 5.36155 17.5772 5.06655 17.8231C4.92242 17.9506 4.74992 18.0418 4.56342 18.0891C4.4656 18.1017 4.36656 18.1017 4.26873 18.0891C3.91114 18.0499 3.57581 17.8961 3.3128 17.6506C2.96506 17.3213 2.69922 16.9152 2.53655 16.4647L2.4503 16.2706C1.04873 13.3022 2.59405 10.2619 3.60748 8.24219C3.80571 7.73 4.17356 7.30127 4.64967 7.0275C5.20953 6.84942 5.80515 6.81482 6.38186 6.92688C6.73122 6.96158 7.07582 7.03387 7.40967 7.1425C7.50113 7.18225 7.59986 7.20252 7.69958 7.20204C7.7993 7.20155 7.89783 7.18033 7.9889 7.1397C8.07998 7.09908 8.1616 7.03995 8.22858 6.96607C8.29556 6.89219 8.34644 6.80519 8.37797 6.71058C8.40951 6.61598 8.42101 6.51585 8.41175 6.41656C8.40249 6.31727 8.37267 6.22099 8.32419 6.13385C8.27571 6.04671 8.20962 5.97061 8.13013 5.91039C8.05065 5.85017 7.9595 5.80715 7.86248 5.78407C7.43187 5.6371 6.98566 5.54063 6.5328 5.49657C5.69417 5.34481 4.83014 5.42177 4.03155 5.71938C3.25259 6.12294 2.63967 6.78672 2.29936 7.59532C1.22842 9.75157 -0.57564 13.2806 1.09905 16.8816L1.17811 17.0541C1.43322 17.7134 1.84522 18.3005 2.37842 18.7647C2.88772 19.1906 3.51986 19.4424 4.18248 19.4834C4.42324 19.5021 4.66542 19.4851 4.90123 19.4331C5.30425 19.3382 5.67879 19.1485 5.99373 18.8797C6.36309 18.5771 6.69812 18.2348 6.9928 17.8591C7.16241 17.6469 7.34738 17.4475 7.54623 17.2625C7.8488 17.0078 8.20137 16.8192 8.58123 16.7091C9.86671 16.4254 11.1986 16.4254 12.484 16.7091C12.9298 16.8425 13.3449 17.0623 13.7059 17.3559C13.9653 17.5749 14.2057 17.8153 14.4247 18.0747C14.846 18.6424 15.412 19.0867 16.0634 19.3613C16.2804 19.4444 16.5077 19.4976 16.739 19.5194H16.9547C17.2859 19.5189 17.6135 19.4496 17.9166 19.316C18.2197 19.1824 18.4918 18.9873 18.7156 18.7431C19.1662 18.2309 19.5458 17.6604 19.844 17.0469C21.6265 13.4747 19.7937 9.86657 18.5862 7.48032Z" fill="#01A6A1"/>
</svg>
