<svg width="22" height="22" viewBox="0 0 22 22" fill="none" xmlns="http://www.w3.org/2000/svg">
<path d="M2.99957 21.5H7.07129C6.98473 21.1779 6.98056 20.8393 7.05914 20.5151L7.06292 20.5H4.98681C5.3175 20.0697 5.49766 19.5427 5.49957 19C5.4988 18.424 5.29945 17.8658 4.93513 17.4197C4.57081 16.9735 4.0638 16.6665 3.49957 16.5506V7.5166C5.39707 7.64576 7.1749 8.49004 8.47413 9.87899C9.77336 11.2679 10.4972 13.0981 10.4996 15V15.1561C10.8251 15.0636 11.1612 15.0129 11.4996 15.0052V15C11.496 12.8343 10.6663 10.7515 9.17966 9.17668C7.69301 7.60182 5.66148 6.65355 3.49957 6.52533V5C3.50069 4.07209 3.8698 3.1825 4.52593 2.52637C5.18207 1.87023 6.07165 1.50112 6.99957 1.5H8.11676C8.85148 1.49933 9.56773 1.73018 10.1638 2.15978C10.7598 2.58937 11.2053 3.19585 11.4371 3.89307L14.4996 13.0811V16.5H11.5611C11.0034 16.4993 10.4615 16.6854 10.0219 17.0286C9.58235 17.3718 9.27038 17.8523 9.1358 18.3936L8.51471 20.8789C8.49628 20.9526 8.49489 21.0295 8.51064 21.1038C8.5264 21.1781 8.55888 21.2479 8.60562 21.3077C8.65236 21.3676 8.71213 21.416 8.78039 21.4494C8.84865 21.4827 8.92361 21.5 8.99957 21.5H20.9996C21.0755 21.5 21.1505 21.4827 21.2187 21.4494C21.287 21.416 21.3468 21.3676 21.3935 21.3077C21.4403 21.2479 21.4727 21.1781 21.4885 21.1038C21.5042 21.0295 21.5029 20.9526 21.4844 20.8789L20.8633 18.3936C20.7288 17.8523 20.4168 17.3718 19.9772 17.0286C19.5376 16.6854 18.9957 16.4993 18.438 16.5H15.4996V13C15.4995 12.9462 15.4908 12.8928 15.4737 12.8418L12.3853 3.57666C12.0875 2.68025 11.5148 1.90049 10.7485 1.34817C9.9822 0.795856 9.06134 0.499076 8.11676 0.500002H6.99957C5.80649 0.501302 4.66265 0.975825 3.81902 1.81946C2.97539 2.66309 2.50087 3.80693 2.49957 5V16.5506C1.89264 16.6746 1.35337 17.0195 0.986273 17.5185C0.619176 18.0175 0.450403 18.635 0.512666 19.2513C0.574928 19.8676 0.863792 20.4389 1.32327 20.8543C1.78274 21.2698 2.3801 21.4999 2.99957 21.5ZM18.438 17.5C18.7726 17.4997 19.0977 17.6113 19.3615 17.8171C19.6252 18.023 19.8125 18.3111 19.8936 18.6357L20.3594 20.5H9.63971L10.1055 18.6357C10.1866 18.3111 10.3739 18.023 10.6377 17.8171C10.9014 17.6113 11.2265 17.4997 11.5611 17.5H18.438ZM2.99957 17.5C3.29624 17.5 3.58625 17.588 3.83292 17.7528C4.0796 17.9176 4.27185 18.1519 4.38539 18.426C4.49892 18.7001 4.52862 19.0017 4.47074 19.2926C4.41287 19.5836 4.27001 19.8509 4.06023 20.0607C3.85045 20.2704 3.58317 20.4133 3.2922 20.4712C3.00123 20.5291 2.69963 20.4994 2.42554 20.3858C2.15145 20.2723 1.91718 20.08 1.75236 19.8334C1.58754 19.5867 1.49957 19.2967 1.49957 19C1.5 18.6023 1.65818 18.221 1.93939 17.9398C2.2206 17.6586 2.60187 17.5004 2.99957 17.5Z" fill="#01A6A1"/>
</svg>
