<svg width="22" height="22" viewBox="0 0 22 22" fill="none" xmlns="http://www.w3.org/2000/svg">
<path d="M7.85 0.5C5.54159 0.5 3.65 2.39159 3.65 4.7C3.65 6.51754 4.82454 8.07232 6.45 8.65322V13.45C6.45 13.9874 6.65594 14.4777 6.99072 14.85H4.91123C5.42682 14.3717 5.75 13.6892 5.75 12.925C5.75 11.4677 4.58233 10.3 3.125 10.3C1.66767 10.3 0.5 11.4677 0.5 12.925C0.5 13.7796 0.903471 14.5323 1.52949 15.0106C0.924871 15.2871 0.5 15.8949 0.5 16.6V17.3C0.500009 17.3928 0.536887 17.4818 0.602523 17.5475C0.668159 17.6131 0.757177 17.65 0.85 17.65H2.95V21.15C2.94934 21.1964 2.95791 21.2424 2.97521 21.2855C2.9925 21.3285 3.01818 21.3677 3.05074 21.4007C3.08331 21.4337 3.12211 21.46 3.1649 21.4779C3.20769 21.4958 3.25362 21.505 3.3 21.505C3.34638 21.505 3.39231 21.4958 3.4351 21.4779C3.47789 21.46 3.51669 21.4337 3.54926 21.4007C3.58182 21.3677 3.6075 21.3285 3.62479 21.2855C3.64209 21.2424 3.65066 21.1964 3.65 21.15V17.65H4.35V21.15C4.34934 21.1964 4.35791 21.2424 4.37521 21.2855C4.3925 21.3285 4.41818 21.3677 4.45074 21.4007C4.48331 21.4337 4.52211 21.46 4.5649 21.4779C4.60769 21.4958 4.65362 21.505 4.7 21.505C4.74638 21.505 4.7923 21.4958 4.83509 21.4779C4.87789 21.46 4.91669 21.4337 4.94926 21.4007C4.98182 21.3677 5.0075 21.3285 5.02479 21.2855C5.04209 21.2424 5.05066 21.1964 5.05 21.15V17.65H6.1C6.14638 17.6507 6.19243 17.6421 6.23547 17.6248C6.2785 17.6075 6.31768 17.5818 6.35071 17.5493C6.38374 17.5167 6.40996 17.4779 6.42786 17.4351C6.44577 17.3923 6.45498 17.3464 6.45498 17.3C6.45498 17.2536 6.44577 17.2077 6.42786 17.1649C6.40996 17.1221 6.38374 17.0833 6.35071 17.0507C6.31768 17.0182 6.2785 16.9925 6.23547 16.9752C6.19243 16.9579 6.14638 16.9493 6.1 16.95H4.754C4.73435 16.9467 4.71446 16.9451 4.69453 16.9452C4.67758 16.9456 4.66067 16.9472 4.64395 16.95H3.354C3.33435 16.9467 3.31446 16.9451 3.29453 16.9452C3.27758 16.9456 3.26067 16.9472 3.24395 16.95H1.2V16.6C1.2 16.016 1.66603 15.55 2.25 15.55H3.125H8.55H15.55C16.134 15.55 16.6 16.016 16.6 16.6V16.95H14.554C14.5344 16.9467 14.5145 16.9451 14.4945 16.9452C14.4776 16.9456 14.4607 16.9472 14.4439 16.95H13.154C13.1344 16.9467 13.1145 16.9451 13.0945 16.9452C13.0776 16.9456 13.0607 16.9472 13.0439 16.95H11.7C11.6536 16.9493 11.6076 16.9579 11.5645 16.9752C11.5215 16.9925 11.4823 17.0182 11.4493 17.0507C11.4163 17.0833 11.39 17.1221 11.3721 17.1649C11.3542 17.2077 11.345 17.2536 11.345 17.3C11.345 17.3464 11.3542 17.3923 11.3721 17.4351C11.39 17.4779 11.4163 17.5167 11.4493 17.5493C11.4823 17.5818 11.5215 17.6075 11.5645 17.6248C11.6076 17.6421 11.6536 17.6507 11.7 17.65H12.75V21.15C12.7493 21.1964 12.7579 21.2424 12.7752 21.2855C12.7925 21.3285 12.8182 21.3677 12.8507 21.4007C12.8833 21.4337 12.9221 21.46 12.9649 21.4779C13.0077 21.4958 13.0536 21.505 13.1 21.505C13.1464 21.505 13.1923 21.4958 13.2351 21.4779C13.2779 21.46 13.3167 21.4337 13.3493 21.4007C13.3818 21.3677 13.4075 21.3285 13.4248 21.2855C13.4421 21.2424 13.4507 21.1964 13.45 21.15V17.65H14.15V21.15C14.1493 21.1964 14.1579 21.2424 14.1752 21.2855C14.1925 21.3285 14.2182 21.3677 14.2507 21.4007C14.2833 21.4337 14.3221 21.46 14.3649 21.4779C14.4077 21.4958 14.4536 21.505 14.5 21.505C14.5464 21.505 14.5923 21.4958 14.6351 21.4779C14.6779 21.46 14.7167 21.4337 14.7493 21.4007C14.7818 21.3677 14.8075 21.3285 14.8248 21.2855C14.8421 21.2424 14.8507 21.1964 14.85 21.15V17.65H16.95C17.0428 17.65 17.1318 17.6131 17.1975 17.5475C17.2631 17.4818 17.3 17.3928 17.3 17.3V16.6C17.3 16.2052 17.1625 15.8437 16.9397 15.55H17.6972L18.3623 20.1246C18.3696 20.1733 18.3871 20.2199 18.4136 20.2613C18.5709 20.9629 19.1773 21.5 19.925 21.5C20.7907 21.5 21.5 20.7907 21.5 19.925C21.5 19.8486 21.4905 19.7917 21.4822 19.7363C21.4824 19.7222 21.4817 19.708 21.4802 19.6939L20.7986 13.9429C20.7812 12.8987 19.9231 12.05 18.875 12.05H16.6C15.5239 12.05 14.5068 11.7986 13.571 11.538C12.6352 11.2773 11.7875 11 11 11H9.25V8.65322C10.8755 8.07232 12.05 6.51754 12.05 4.7C12.05 2.39159 10.1584 0.5 7.85 0.5ZM7.85 1.2C9.77659 1.2 11.35 2.77341 11.35 4.7C11.35 6.62659 9.77659 8.2 7.85 8.2C5.92341 8.2 4.35 6.62659 4.35 4.7C4.35 2.77341 5.92341 1.2 7.85 1.2ZM7.85 3.3C7.08159 3.3 6.45 3.93159 6.45 4.7C6.45 5.46841 7.08159 6.1 7.85 6.1C8.61841 6.1 9.25 5.46841 9.25 4.7C9.25 3.93159 8.61841 3.3 7.85 3.3ZM7.85 4C8.23659 4 8.55 4.31341 8.55 4.7C8.55 5.08659 8.23659 5.4 7.85 5.4C7.46341 5.4 7.15 5.08659 7.15 4.7C7.15 4.31341 7.46341 4 7.85 4ZM5.4 4.35C5.30717 4.35 5.21815 4.38687 5.15251 4.45251C5.08687 4.51815 5.05 4.60717 5.05 4.7C5.05 4.79283 5.08687 4.88185 5.15251 4.94749C5.21815 5.01313 5.30717 5.05 5.4 5.05C5.49283 5.05 5.58185 5.01313 5.64749 4.94749C5.71313 4.88185 5.75 4.79283 5.75 4.7C5.75 4.60717 5.71313 4.51815 5.64749 4.45251C5.58185 4.38687 5.49283 4.35 5.4 4.35ZM5.71992 5.575C5.66131 5.57628 5.60395 5.59226 5.55312 5.62148C5.47286 5.66794 5.41431 5.74436 5.39034 5.83395C5.36637 5.92354 5.37894 6.01899 5.42529 6.09932C5.47164 6.1797 5.548 6.23839 5.6376 6.26249C5.72721 6.28659 5.82271 6.27412 5.90312 6.22783C5.94302 6.20488 5.97799 6.17429 6.00605 6.13781C6.03411 6.10133 6.05469 6.05968 6.06663 6.01523C6.07857 5.97078 6.08162 5.92442 6.07562 5.87879C6.06961 5.83316 6.05467 5.78916 6.03164 5.74932C6.00012 5.69495 5.95454 5.65008 5.89969 5.61941C5.84484 5.58873 5.78274 5.57339 5.71992 5.575ZM6.60791 6.47256C6.54939 6.47532 6.49251 6.49273 6.44246 6.52319C6.39242 6.55364 6.35082 6.59617 6.32148 6.64687C6.27519 6.72729 6.26273 6.82279 6.28683 6.9124C6.31092 7.002 6.36962 7.07836 6.45 7.12471C6.53033 7.17105 6.62577 7.18363 6.71536 7.15966C6.80496 7.13569 6.88137 7.07714 6.92783 6.99687C6.97418 6.91654 6.98675 6.8211 6.96278 6.73151C6.93881 6.64192 6.88027 6.5655 6.8 6.51904C6.74177 6.48542 6.67508 6.46928 6.60791 6.47256ZM7.85 6.8C7.75717 6.8 7.66815 6.83687 7.60251 6.90251C7.53687 6.96815 7.5 7.05717 7.5 7.15C7.5 7.24283 7.53687 7.33185 7.60251 7.39749C7.66815 7.46313 7.75717 7.5 7.85 7.5C7.94283 7.5 8.03185 7.46313 8.09749 7.39749C8.16313 7.33185 8.2 7.24283 8.2 7.15C8.2 7.05717 8.16313 6.96815 8.09749 6.90251C8.03185 6.83687 7.94283 6.8 7.85 6.8ZM7.15 8.83643C7.37825 8.87528 7.6112 8.9 7.85 8.9C8.0888 8.9 8.32175 8.87528 8.55 8.83643V11.35C8.55001 11.4428 8.58689 11.5318 8.65252 11.5975C8.71816 11.6631 8.80718 11.7 8.9 11.7H11C11.6125 11.7 12.434 11.9477 13.383 12.212C14.3321 12.4764 15.4155 12.75 16.6 12.75H18.875C19.5555 12.75 20.1 13.2945 20.1 13.975C20.1001 13.9887 20.101 14.0024 20.1027 14.016L20.7467 19.4554L21.0618 19.3925C20.9732 19.4103 20.895 19.4616 20.8434 19.5357C20.7918 19.6099 20.7709 19.7011 20.785 19.7903C20.7946 19.8514 20.8 19.8943 20.8 19.925C20.8 20.4124 20.4124 20.8 19.925 20.8C19.4747 20.8 19.1154 20.4662 19.0623 20.031C19.0593 20.0058 19.0536 19.981 19.0452 19.9571L18.3466 15.1494C18.3344 15.0662 18.2927 14.9901 18.2291 14.9352C18.1654 14.8802 18.0841 14.8499 18 14.85H15.55H8.55C7.77287 14.85 7.15 14.2271 7.15 13.45V8.83643ZM3.125 11C4.21567 11 5.05 11.8343 5.05 12.925C5.05 14.0157 4.21567 14.85 3.125 14.85C2.03433 14.85 1.2 14.0157 1.2 12.925C1.2 11.8343 2.03433 11 3.125 11ZM7.5 16.95C7.40717 16.95 7.31815 16.9869 7.25251 17.0525C7.18687 17.1182 7.15 17.2072 7.15 17.3C7.15 17.3928 7.18687 17.4818 7.25251 17.5475C7.31815 17.6131 7.40717 17.65 7.5 17.65C7.59283 17.65 7.68185 17.6131 7.74749 17.5475C7.81313 17.4818 7.85 17.3928 7.85 17.3C7.85 17.2072 7.81313 17.1182 7.74749 17.0525C7.68185 16.9869 7.59283 16.95 7.5 16.95ZM8.9 16.95C8.80717 16.95 8.71815 16.9869 8.65251 17.0525C8.58687 17.1182 8.55 17.2072 8.55 17.3C8.55 17.3928 8.58687 17.4818 8.65251 17.5475C8.71815 17.6131 8.80717 17.65 8.9 17.65C8.99283 17.65 9.08185 17.6131 9.14749 17.5475C9.21313 17.4818 9.25 17.3928 9.25 17.3C9.25 17.2072 9.21313 17.1182 9.14749 17.0525C9.08185 16.9869 8.99283 16.95 8.9 16.95ZM10.3 16.95C10.2072 16.95 10.1181 16.9869 10.0525 17.0525C9.98687 17.1182 9.95 17.2072 9.95 17.3C9.95 17.3928 9.98687 17.4818 10.0525 17.5475C10.1181 17.6131 10.2072 17.65 10.3 17.65C10.3928 17.65 10.4818 17.6131 10.5475 17.5475C10.6131 17.4818 10.65 17.3928 10.65 17.3C10.65 17.2072 10.6131 17.1182 10.5475 17.0525C10.4818 16.9869 10.3928 16.95 10.3 16.95ZM1.9 20.8C1.80717 20.8 1.71815 20.8369 1.65251 20.9025C1.58687 20.9681 1.55 21.0572 1.55 21.15C1.55 21.2428 1.58687 21.3319 1.65251 21.3975C1.71815 21.4631 1.80717 21.5 1.9 21.5C1.99283 21.5 2.08185 21.4631 2.14749 21.3975C2.21312 21.3319 2.25 21.2428 2.25 21.15C2.25 21.0572 2.21312 20.9681 2.14749 20.9025C2.08185 20.8369 1.99283 20.8 1.9 20.8ZM6.1 20.8C6.00717 20.8 5.91815 20.8369 5.85251 20.9025C5.78687 20.9681 5.75 21.0572 5.75 21.15C5.75 21.2428 5.78687 21.3319 5.85251 21.3975C5.91815 21.4631 6.00717 21.5 6.1 21.5C6.19283 21.5 6.28185 21.4631 6.34749 21.3975C6.41313 21.3319 6.45 21.2428 6.45 21.15C6.45 21.0572 6.41313 20.9681 6.34749 20.9025C6.28185 20.8369 6.19283 20.8 6.1 20.8ZM7.5 20.8C7.40717 20.8 7.31815 20.8369 7.25251 20.9025C7.18687 20.9681 7.15 21.0572 7.15 21.15C7.15 21.2428 7.18687 21.3319 7.25251 21.3975C7.31815 21.4631 7.40717 21.5 7.5 21.5C7.59283 21.5 7.68185 21.4631 7.74749 21.3975C7.81313 21.3319 7.85 21.2428 7.85 21.15C7.85 21.0572 7.81313 20.9681 7.74749 20.9025C7.68185 20.8369 7.59283 20.8 7.5 20.8ZM8.9 20.8C8.80717 20.8 8.71815 20.8369 8.65251 20.9025C8.58687 20.9681 8.55 21.0572 8.55 21.15C8.55 21.2428 8.58687 21.3319 8.65251 21.3975C8.71815 21.4631 8.80717 21.5 8.9 21.5C8.99283 21.5 9.08185 21.4631 9.14749 21.3975C9.21313 21.3319 9.25 21.2428 9.25 21.15C9.25 21.0572 9.21313 20.9681 9.14749 20.9025C9.08185 20.8369 8.99283 20.8 8.9 20.8ZM10.3 20.8C10.2072 20.8 10.1181 20.8369 10.0525 20.9025C9.98687 20.9681 9.95 21.0572 9.95 21.15C9.95 21.2428 9.98687 21.3319 10.0525 21.3975C10.1181 21.4631 10.2072 21.5 10.3 21.5C10.3928 21.5 10.4818 21.4631 10.5475 21.3975C10.6131 21.3319 10.65 21.2428 10.65 21.15C10.65 21.0572 10.6131 20.9681 10.5475 20.9025C10.4818 20.8369 10.3928 20.8 10.3 20.8ZM11.7 20.8C11.6072 20.8 11.5182 20.8369 11.4525 20.9025C11.3869 20.9681 11.35 21.0572 11.35 21.15C11.35 21.2428 11.3869 21.3319 11.4525 21.3975C11.5182 21.4631 11.6072 21.5 11.7 21.5C11.7928 21.5 11.8818 21.4631 11.9475 21.3975C12.0131 21.3319 12.05 21.2428 12.05 21.15C12.05 21.0572 12.0131 20.9681 11.9475 20.9025C11.8818 20.8369 11.7928 20.8 11.7 20.8ZM15.9 20.8C15.8072 20.8 15.7182 20.8369 15.6525 20.9025C15.5869 20.9681 15.55 21.0572 15.55 21.15C15.55 21.2428 15.5869 21.3319 15.6525 21.3975C15.7182 21.4631 15.8072 21.5 15.9 21.5C15.9928 21.5 16.0819 21.4631 16.1475 21.3975C16.2131 21.3319 16.25 21.2428 16.25 21.15C16.25 21.0572 16.2131 20.9681 16.1475 20.9025C16.0819 20.8369 15.9928 20.8 15.9 20.8Z" fill="#01A6A1"/>
</svg>
