<svg width="20" height="20" viewBox="0 0 20 20" fill="none" xmlns="http://www.w3.org/2000/svg">
<path d="M3 19.5H17C17.6628 19.4992 18.2982 19.2356 18.7669 18.7669C19.2356 18.2982 19.4992 17.6628 19.5 17V3C19.4992 2.3372 19.2356 1.70176 18.7669 1.23309C18.2982 0.76442 17.6628 0.500778 17 0.5H3C2.3372 0.500778 1.70176 0.76442 1.23309 1.23309C0.76442 1.70176 0.500778 2.3372 0.5 3V17C0.500778 17.6628 0.76442 18.2982 1.23309 18.7669C1.70176 19.2356 2.3372 19.4992 3 19.5ZM1.5 3C1.50043 2.60231 1.65861 2.22103 1.93982 1.93982C2.22103 1.65861 2.60231 1.50043 3 1.5H17C17.3977 1.50043 17.779 1.65861 18.0602 1.93982C18.3414 2.22103 18.4996 2.60231 18.5 3V17C18.4996 17.3977 18.3414 17.779 18.0602 18.0602C17.779 18.3414 17.3977 18.4996 17 18.5H3C2.60231 18.4996 2.22103 18.3414 1.93982 18.0602C1.65861 17.779 1.50043 17.3977 1.5 17V3ZM10 15.5C11.0878 15.5 12.1512 15.1774 13.0556 14.5731C13.9601 13.9687 14.6651 13.1098 15.0813 12.1048C15.4976 11.0998 15.6065 9.9939 15.3943 8.927C15.1821 7.86011 14.6583 6.8801 13.8891 6.11091C13.1199 5.34172 12.1399 4.8179 11.073 4.60568C10.0061 4.39346 8.90023 4.50238 7.89524 4.91866C6.89025 5.33494 6.03126 6.03989 5.42692 6.94436C4.82257 7.84883 4.5 8.9122 4.5 10C4.50165 11.4582 5.08164 12.8562 6.11273 13.8873C7.14383 14.9184 8.54182 15.4984 10 15.5ZM10 5.5C10.89 5.5 11.76 5.76392 12.5001 6.25839C13.2401 6.75285 13.8169 7.45566 14.1575 8.27792C14.4981 9.10019 14.5872 10.005 14.4135 10.8779C14.2399 11.7508 13.8113 12.5526 13.182 13.182C12.5526 13.8113 11.7508 14.2399 10.8779 14.4135C10.005 14.5872 9.10019 14.4981 8.27792 14.1575C7.45566 13.8169 6.75285 13.2401 6.25839 12.5001C5.76392 11.76 5.5 10.89 5.5 10C5.5013 8.80692 5.97582 7.66309 6.81946 6.81946C7.66309 5.97582 8.80692 5.5013 10 5.5ZM11.5 11V9C11.5 8.86739 11.5527 8.74021 11.6464 8.64645C11.7402 8.55268 11.8674 8.5 12 8.5C12.1326 8.5 12.2598 8.55268 12.3536 8.64645C12.4473 8.74021 12.5 8.86739 12.5 9V11C12.5 11.1326 12.4473 11.2598 12.3536 11.3536C12.2598 11.4473 12.1326 11.5 12 11.5C11.8674 11.5 11.7402 11.4473 11.6464 11.3536C11.5527 11.2598 11.5 11.1326 11.5 11ZM7.5 11V9C7.5 8.86739 7.55268 8.74021 7.64645 8.64645C7.74021 8.55268 7.86739 8.5 8 8.5C8.13261 8.5 8.25979 8.55268 8.35355 8.64645C8.44732 8.74021 8.5 8.86739 8.5 9V11C8.5 11.1326 8.44732 11.2598 8.35355 11.3536C8.25979 11.4473 8.13261 11.5 8 11.5C7.86739 11.5 7.74021 11.4473 7.64645 11.3536C7.55268 11.2598 7.5 11.1326 7.5 11Z" fill="#01A6A1"/>
</svg>
