<svg width="18" height="16" viewBox="0 0 18 16" fill="none" xmlns="http://www.w3.org/2000/svg">
<path d="M15.6667 8.41732H2.33333C1.78098 8.4179 1.25141 8.63758 0.860835 9.02815C0.47026 9.41873 0.25058 9.94829 0.25 10.5007V12.1673C0.25061 12.6473 0.41672 13.1125 0.720324 13.4843C1.02393 13.8561 1.44645 14.1119 1.91667 14.2085V15.5007C1.91667 15.6112 1.96057 15.7171 2.03871 15.7953C2.11685 15.8734 2.22283 15.9173 2.33333 15.9173C2.44384 15.9173 2.54982 15.8734 2.62796 15.7953C2.7061 15.7171 2.75 15.6112 2.75 15.5007V14.2507H15.25V15.5007C15.25 15.6112 15.2939 15.7171 15.372 15.7953C15.4502 15.8734 15.5562 15.9173 15.6667 15.9173C15.7772 15.9173 15.8832 15.8734 15.9613 15.7953C16.0394 15.7171 16.0833 15.6112 16.0833 15.5007V14.2085C16.5535 14.1119 16.9761 13.8561 17.2797 13.4843C17.5833 13.1125 17.7494 12.6473 17.75 12.1673V10.5007C17.7494 9.94829 17.5297 9.41873 17.1392 9.02815C16.7486 8.63758 16.219 8.4179 15.6667 8.41732ZM16.9167 12.1673C16.9163 12.4987 16.7845 12.8165 16.5501 13.0508C16.3158 13.2851 15.9981 13.417 15.6667 13.4173H2.33333C2.00192 13.417 1.68419 13.2851 1.44985 13.0508C1.21551 12.8165 1.0837 12.4987 1.08333 12.1673V10.5007C1.0837 10.1692 1.21551 9.85151 1.44985 9.61717C1.68419 9.38282 2.00192 9.25101 2.33333 9.25065H15.6667C15.9981 9.25101 16.3158 9.38282 16.5501 9.61717C16.7845 9.85151 16.9163 10.1692 16.9167 10.5007V12.1673ZM2.33333 7.16732C2.19369 7.17245 2.05451 7.18651 1.91667 7.20943V2.16732C1.91725 1.61496 2.13693 1.08539 2.5275 0.694819C2.91808 0.304244 3.44764 0.0845645 4 0.0839844H14C14.5524 0.0845645 15.0819 0.304244 15.4725 0.694819C15.8631 1.08539 16.0828 1.61496 16.0833 2.16732V7.20943C15.9455 7.18651 15.8063 7.17245 15.6667 7.16732H15.25V2.16732C15.2496 1.83591 15.1178 1.51818 14.8835 1.28383C14.6491 1.04949 14.3314 0.917679 14 0.917318H4C3.66859 0.917679 3.35086 1.04949 3.11652 1.28383C2.88217 1.51818 2.75036 1.83591 2.75 2.16732V7.16732H2.33333ZM14.4167 7.16732H13.5833C13.583 6.83591 13.4512 6.51818 13.2168 6.28383C12.9825 6.04949 12.6647 5.91768 12.3333 5.91732H10.6667C10.3353 5.91768 10.0175 6.04949 9.78318 6.28383C9.54884 6.51818 9.41703 6.83591 9.41667 7.16732H8.58333C8.58297 6.83591 8.45116 6.51818 8.21682 6.28383C7.98247 6.04949 7.66474 5.91768 7.33333 5.91732H5.66667C5.33526 5.91768 5.01752 6.04949 4.78318 6.28383C4.54884 6.51818 4.41703 6.83591 4.41667 7.16732H3.58333C3.58391 6.61496 3.80359 6.08539 4.19417 5.69482C4.58474 5.30424 5.11431 5.08456 5.66667 5.08398H7.33333C7.65795 5.08482 7.97785 5.1618 8.26731 5.30874C8.55678 5.45568 8.80773 5.66848 9 5.93003C9.19227 5.66848 9.44322 5.45568 9.73269 5.30874C10.0221 5.1618 10.342 5.08482 10.6667 5.08398H12.3333C12.8857 5.08456 13.4153 5.30424 13.8058 5.69482C14.1964 6.08539 14.4161 6.61496 14.4167 7.16732Z" fill="#FE6D60"/>
</svg>
