<svg width="23" height="23" viewBox="0 0 23 23" fill="none" xmlns="http://www.w3.org/2000/svg">
<g clip-path="url(#clip0_403_4102)">
<path d="M9.54473 0C9.33809 0 9.12426 0.0125781 8.89785 0.02875C7.99043 0.0916407 6.9123 0.292891 5.6491 0.71875C3.10113 1.59203 1.67801 2.70789 0.905352 3.63688C0.519023 4.10047 0.301602 4.50836 0.172227 4.81563C0.0428516 5.12289 -0.000273437 5.36188 -0.000273437 5.36188L-0.0146484 5.47688L0.0284766 5.5775C2.36262 12.6266 5.97254 15.0003 8.30848 15.7406C8.17731 17.0685 8.26895 18.2059 8.48098 19.1475C9.02543 21.5697 10.3641 22.7556 10.3641 22.7556L10.4504 22.8131L10.5366 22.8419C10.5366 22.8419 12.267 23.3522 14.6479 22.5544C17.0287 21.7566 20.0942 19.674 22.9422 14.6769L22.9997 14.5763V14.4756C22.9997 14.4756 23.0087 14.2384 22.9422 13.915C22.8757 13.5916 22.7302 13.1423 22.4391 12.6213C21.8569 11.5773 20.6782 10.2386 18.3422 8.94125C16.6981 8.01945 15.3325 7.59898 14.2454 7.44625C14.1663 5.67992 13.8267 3.58836 12.9947 1.17875L12.9516 1.07812L12.8797 1.00625C12.8797 1.00625 12.7072 0.844531 12.4197 0.675625C12.1322 0.506719 11.71 0.309063 11.126 0.1725C10.6875 0.0700782 10.1629 0 9.54473 0ZM9.54473 0.92C10.0946 0.92 10.542 0.9775 10.9104 1.06375C11.4009 1.17875 11.7477 1.34227 11.9597 1.46625C12.1053 1.5525 12.1143 1.56867 12.1466 1.59563C12.9013 3.81656 13.2391 5.74641 13.3254 7.37438C13.2319 7.37438 13.1385 7.37078 13.0522 7.37438C12.4485 7.39594 11.9885 7.51094 11.6722 7.61875C11.356 7.72656 11.1547 7.84875 11.1547 7.84875L11.0685 7.90625L11.011 8.00688C10.6588 8.63039 10.3515 9.23594 10.0766 9.81812C9.69027 9.83789 9.24465 9.89359 8.73973 10.0481H8.72535C6.86199 10.7022 6.23848 12.1613 6.23848 12.1613C6.14324 12.4002 6.25824 12.6698 6.49723 12.765C6.73621 12.8602 7.00574 12.7452 7.10098 12.5063C7.10098 12.5063 7.48371 11.4677 9.01285 10.925C9.01824 10.9232 9.02184 10.9268 9.02723 10.925C9.24285 10.8585 9.4423 10.8262 9.63098 10.7956C9.00926 12.2745 8.62473 13.6131 8.42348 14.8063C6.36246 14.1055 3.15504 11.9708 0.948477 5.41937C0.955664 5.38523 0.94668 5.3493 1.02035 5.175C1.11559 4.9468 1.29707 4.61797 1.6241 4.22625C2.27637 3.44281 3.52699 2.40961 5.9366 1.58125C5.94199 1.57945 5.94559 1.58305 5.95098 1.58125C7.44238 1.08172 8.62832 0.918203 9.54473 0.92ZM8.9266 5.66375C8.57621 5.67453 8.32285 5.70688 8.32285 5.70688C8.32285 5.70688 8.87449 7.07789 9.93285 7.21625C10.6696 7.30789 11.7297 6.12375 11.7297 6.12375C11.7297 6.12375 10.993 5.79852 10.1197 5.70688C9.72801 5.66016 9.27699 5.65297 8.9266 5.66375ZM6.43973 6.29625C6.43973 6.29625 5.56824 6.85148 5.0166 7.40313C4.37332 8.04641 3.99598 8.69688 3.99598 8.69688C3.99598 8.69688 5.55926 9.06164 6.06598 8.51C6.8027 7.72836 6.43973 6.29625 6.43973 6.29625ZM13.0954 8.29438C14.1178 8.25664 15.7026 8.51539 17.8966 9.74625C20.1139 10.9789 21.1454 12.19 21.6341 13.0669C21.8785 13.5053 21.9881 13.8647 22.0366 14.1019C22.0707 14.2636 22.0654 14.2762 22.0654 14.3175C19.3233 19.0756 16.4932 20.9623 14.3604 21.6775C12.3227 22.3603 11.0469 22.0189 10.9104 21.9794C10.8133 21.8931 9.85379 21.0198 9.3866 18.9463C9.18176 18.037 9.09551 16.9104 9.25723 15.5538C9.28598 15.4801 9.29676 15.401 9.28598 15.3238C9.47285 13.9779 9.9077 12.3984 10.7235 10.5944C10.7289 10.5854 10.7343 10.5746 10.7379 10.5656C10.7396 10.5602 10.7504 10.5566 10.7522 10.5513C10.8061 10.4848 10.8421 10.4057 10.8529 10.3212C11.1134 9.76242 11.4063 9.18563 11.7441 8.58187C11.78 8.56211 11.8016 8.53875 11.9741 8.48125C12.2113 8.40039 12.5832 8.31234 13.0954 8.29438ZM13.2104 11.7875C12.4215 11.7749 11.5429 12.1469 11.5429 12.1469C11.5429 12.1469 12.2796 12.5979 13.1529 12.9663C13.9812 13.3346 14.9066 13.6562 14.9066 13.6562C14.9066 13.6562 14.6335 12.3733 13.9435 11.96C13.7368 11.845 13.4727 11.7911 13.2104 11.7875ZM17.1204 14.0875C16.5885 14.1216 16.0997 14.3031 16.0997 14.3031L17.566 15.4963C18.3476 16.0479 19.1329 16.4163 19.1329 16.4163C19.1329 16.4163 18.8543 14.72 18.026 14.26C17.7672 14.1055 17.4402 14.0677 17.1204 14.0875ZM11.1979 14.2169C11.0146 14.2456 10.8672 14.3822 10.8241 14.5619C10.8241 14.5619 10.5833 15.525 10.6085 16.6606C10.6336 17.7962 10.9247 19.2158 12.1466 19.9094C13.3703 20.6048 14.7323 20.1196 15.726 19.55C16.7196 18.9804 17.4366 18.2706 17.4366 18.2706C17.557 18.152 17.6019 17.9759 17.5534 17.8142C17.5049 17.6525 17.3719 17.5285 17.2066 17.4944C17.2066 17.4944 15.0288 16.9984 14.0585 16.4738C13.1079 15.958 11.6147 14.3606 11.6147 14.3606C11.5087 14.2456 11.3524 14.1899 11.1979 14.2169ZM11.6291 15.6975C12.1646 16.2294 12.8725 16.8834 13.6272 17.2931C14.3909 17.7064 15.3325 17.9688 16.071 18.1556C15.7996 18.382 15.7242 18.497 15.266 18.7594C14.3963 19.2589 13.4062 19.559 12.6066 19.1044C11.8034 18.648 11.55 17.6381 11.5285 16.6462C11.5177 16.1377 11.577 16.0407 11.6291 15.6975Z" fill="#01A6A1"/>
</g>
<defs>
<clipPath id="clip0_403_4102">
<rect width="23" height="23" fill="white"/>
</clipPath>
</defs>
</svg>
