<svg width="94" height="91" viewBox="0 0 94 91" fill="none" xmlns="http://www.w3.org/2000/svg">
<path d="M27.5 8.66025C34.8205 4.43376 38.4808 2.32051 42.5 2.32051C46.5192 2.32051 50.1795 4.43376 57.5 8.66026L64.3061 12.5897C71.6266 16.8162 75.2868 18.9295 77.2965 22.4103C79.3061 25.891 79.3061 30.1175 79.3061 38.5705V46.4295C79.3061 54.8825 79.3061 59.109 77.2965 62.5897C75.2868 66.0705 71.6266 68.1838 64.3061 72.4103L57.5 76.3397C50.1795 80.5662 46.5192 82.6795 42.5 82.6795C38.4808 82.6795 34.8205 80.5662 27.5 76.3397L20.6939 72.4103C13.3734 68.1838 9.71316 66.0705 7.70354 62.5897C5.69392 59.109 5.69392 54.8825 5.69392 46.4295V38.5705C5.69392 30.1175 5.69392 25.891 7.70354 22.4103C9.71316 18.9295 13.3734 16.8162 20.6939 12.5897L27.5 8.66025Z" fill="#BAF0EA"/>
<g clip-path="url(#clip0_813_4084)">
<path d="M85.9148 64.9708C85.3483 64.9708 84.8892 65.4299 84.8892 65.9964V85.2859C84.8892 87.2664 83.2779 88.8779 81.2972 88.8779H29.6432C27.6626 88.8777 26.0512 87.2664 26.0512 85.2857V49.1822C26.0512 47.2018 27.6626 45.5903 29.6432 45.5903H44.2136C44.7801 45.5903 45.2392 45.1312 45.2392 44.5647C45.2392 43.9981 44.7801 43.5391 44.2136 43.5391H29.6432C26.5315 43.5391 24 46.0706 24 49.1822V85.2859C24 88.3976 26.5315 90.9291 29.6432 90.9291H81.2974C84.4091 90.9291 86.9406 88.3976 86.9406 85.2859V65.9964C86.9404 65.4299 86.4812 64.9708 85.9148 64.9708Z" fill="black"/>
<path d="M29.6432 47.6408C28.7937 47.6408 28.1025 48.3319 28.1025 49.1814V85.2852C28.1025 86.1347 28.7937 86.8258 29.6432 86.8258H48.8546C48.8553 86.8258 48.856 86.826 48.8567 86.826C48.8574 86.826 48.8581 86.8258 48.8587 86.8258H55.1541C55.1548 86.8258 55.1555 86.826 55.1562 86.826C55.1569 86.826 55.1575 86.8258 55.1582 86.8258H63.8333C64.3999 86.8258 64.8589 86.3668 64.8589 85.8002C64.8589 85.2337 64.3999 84.7746 63.8333 84.7746H55.7473L51.2694 77.0185C51.2595 77.0012 51.233 76.9556 51.2694 76.8925C51.3057 76.8296 51.3584 76.8296 51.3783 76.8296H80.7867V84.7746H68.2041C67.6376 84.7746 67.1785 85.2337 67.1785 85.8002C67.1785 86.3668 67.6376 86.8258 68.2041 86.8258H81.2972C82.1468 86.8258 82.8379 86.1347 82.8379 85.2852V68.3825C82.8379 67.8159 82.3788 67.3569 81.8123 67.3569C81.2457 67.3569 80.7867 67.8159 80.7867 68.3825V69.3228H77.1147C76.5481 69.3228 76.0891 69.7818 76.0891 70.3484C76.0891 70.9149 76.5481 71.374 77.1147 71.374H80.7867V74.7784H51.3783C50.5914 74.7784 49.8865 75.1853 49.493 75.8669C49.0994 76.5485 49.0994 77.3625 49.493 78.0441L53.3789 84.7746H49.4479L46.5847 79.8155C46.3015 79.325 45.674 79.1571 45.1837 79.4402C44.6932 79.7234 44.5252 80.3506 44.8084 80.8411L47.0792 84.7746H30.1538V76.8295H35.9126C36.4791 76.8295 36.9382 76.3704 36.9382 75.8039C36.9382 75.2373 36.4791 74.7782 35.9126 74.7782H30.1538V71.3739H34.2113C34.7778 71.3739 35.2369 70.9148 35.2369 70.3482C35.2369 69.7817 34.7778 69.3226 34.2113 69.3226H30.1538V55.4586L35.9902 65.5675C36.1803 65.8965 36.5249 66.0804 36.8794 66.0804C37.0533 66.0804 37.2299 66.0361 37.3912 65.9429C37.8817 65.6597 38.0498 65.0324 37.7666 64.5419L30.1538 51.3561V49.692H33.124L36.5732 55.6662C36.7633 55.9952 37.1079 56.1791 37.4623 56.1791C37.6363 56.1791 37.8128 56.1348 37.9742 56.0415C38.4647 55.7583 38.6328 55.1311 38.3496 54.6405L35.4925 49.6919H44.5583C45.1248 49.6919 45.5839 49.2328 45.5839 48.6662C45.5839 48.0997 45.1248 47.6406 44.5583 47.6406H29.6432V47.6408Z" fill="black"/>
<path d="M70.6449 60.7215C79.6303 60.7215 86.9404 53.4114 86.9404 44.4262C86.9404 35.4409 79.6303 28.1309 70.6449 28.1309C61.6597 28.1309 54.3496 35.4409 54.3496 44.4262C54.3496 53.4114 61.6597 60.7215 70.6449 60.7215ZM70.6449 30.1821C78.4992 30.1821 84.8891 36.572 84.8891 44.4262C84.8891 52.2804 78.4991 58.6702 70.6449 58.6702C62.7907 58.6702 56.4008 52.2804 56.4008 44.4262C56.4008 36.572 62.7906 30.1821 70.6449 30.1821Z" fill="black"/>
<path d="M87.0946 27.8483C82.686 23.474 76.852 21.0723 70.6464 21.0723C70.5844 21.0723 70.5212 21.0725 70.4592 21.0729C65.8451 21.1088 61.3853 22.5029 57.5618 25.1047C57.0936 25.4234 56.9721 26.0613 57.291 26.5297C57.6095 26.9977 58.2473 27.1193 58.716 26.8004C62.2024 24.428 66.2686 23.1566 70.4753 23.1241C76.2032 23.0741 81.5885 25.2744 85.6498 29.3042C89.7115 33.3346 91.9486 38.7053 91.9486 44.427C91.9486 54.3833 84.8969 63.1385 75.181 65.2451C74.9864 65.2874 74.8082 65.3852 74.6684 65.527L70.7415 69.5044C70.6886 69.5581 70.6012 69.5582 70.5483 69.5044L66.6213 65.527C66.4815 65.3853 66.3033 65.2874 66.1088 65.2451C56.4389 63.1483 49.3872 54.4354 49.3414 44.5278C49.3153 38.8715 51.5049 33.5249 55.507 29.4728C55.9051 29.0698 55.9011 28.4203 55.4981 28.0224C55.095 27.6245 54.4457 27.6282 54.0478 28.0313C49.6615 32.4725 47.2617 38.3344 47.2903 44.5372C47.315 49.8801 49.1912 55.0949 52.5733 59.2209C55.843 63.2097 60.379 66.0286 65.3736 67.1824L69.0889 70.9456C69.503 71.3651 70.0557 71.5962 70.6451 71.5962C71.2347 71.5962 71.7874 71.3652 72.2015 70.9456L75.9167 67.1824C80.9291 66.0245 85.4765 63.1917 88.7494 59.1814C92.1354 55.0321 94.0001 49.7922 94.0001 44.4268C93.9997 38.1544 91.5474 32.2666 87.0946 27.8483Z" fill="black"/>
<path d="M40.7188 76.829H45.2024C46.1889 76.829 46.9915 76.0264 46.9915 75.0399V72.1699C47.2504 72.1766 47.512 72.0862 47.7166 71.8957C48.1312 71.5098 48.1543 70.8608 47.7684 70.4462L43.7112 66.0885C43.5171 65.8801 43.2453 65.7617 42.9606 65.7617C42.6759 65.7617 42.404 65.88 42.2099 66.0885L38.1529 70.4462C37.767 70.8607 37.7901 71.5097 38.2047 71.8957C38.4022 72.0798 38.653 72.1707 38.9032 72.1707C38.9121 72.1707 38.9209 72.1697 38.9296 72.1694V75.0399C38.9296 76.0264 39.7322 76.829 40.7188 76.829ZM42.9604 68.2925L44.9403 70.4189V74.7777H40.9808V70.4189L42.9604 68.2925Z" fill="black"/>
<path d="M52.009 71.3735H64.1754C64.742 71.3735 65.2011 70.9144 65.2011 70.3479C65.2011 69.7813 64.742 69.3223 64.1754 69.3223H52.009C51.4425 69.3223 50.9834 69.7813 50.9834 70.3479C50.9834 70.9144 51.4426 71.3735 52.009 71.3735Z" fill="black"/>
<path d="M41.8288 63.7421C42.0027 63.7421 42.1793 63.6978 42.3406 63.6045C42.8311 63.3213 42.9992 62.694 42.716 62.2035L40.5389 58.4328C40.2559 57.9421 39.6283 57.7745 39.138 58.0574C38.6474 58.3406 38.4794 58.9679 38.7626 59.4584L40.9396 63.2291C41.1296 63.5583 41.4743 63.7421 41.8288 63.7421Z" fill="black"/>
<path d="M47.4548 65.5899C47.6538 65.7808 47.9095 65.8759 48.1651 65.8759C48.4345 65.8759 48.7036 65.7704 48.9049 65.5607L49.1898 65.2642L49.4746 65.5607C49.6761 65.7703 49.9449 65.8759 50.2144 65.8759C50.4699 65.8759 50.7259 65.781 50.9247 65.5899C51.3332 65.1976 51.3463 64.5483 50.954 64.1398L50.6118 63.7836L50.954 63.4274C51.3463 63.0189 51.3332 62.3696 50.9247 61.9773C50.5161 61.5851 49.8671 61.5979 49.4746 62.0065L49.1898 62.303L48.9049 62.0065C48.5126 61.5982 47.8634 61.585 47.4548 61.9773C47.0464 62.3696 47.0332 63.0189 47.4256 63.4274L47.7677 63.7836L47.4256 64.1398C47.0332 64.5483 47.0462 65.1976 47.4548 65.5899Z" fill="black"/>
<path d="M71.2617 52.9848C66.712 52.9848 64 49.6205 64 44.0014C64 38.3823 66.6613 35.018 71.2617 35.018C72.4613 34.9405 73.6643 35.1143 74.7841 35.5268C75.9038 35.9394 76.9125 36.5805 77.7376 37.404C77.9409 37.6571 78.0291 37.9759 77.9828 38.2903C77.9365 38.6046 77.7594 38.8888 77.4905 39.0802C77.2216 39.2716 76.8829 39.3547 76.549 39.311C76.2151 39.2674 75.9132 39.1007 75.7099 38.8476C75.1202 38.3229 74.4184 37.9227 73.6513 37.6738C72.8842 37.4249 72.0695 37.3329 71.2617 37.404C67.1429 37.404 66.5346 41.5438 66.5346 44.0014C66.5346 46.459 67.1429 50.5988 71.2617 50.5988C72.0762 50.663 72.8958 50.5621 73.6654 50.3028C74.4349 50.0435 75.1364 49.6318 75.7226 49.0956C75.8241 48.971 75.9507 48.8665 76.0951 48.788C76.2395 48.7095 76.399 48.6586 76.5643 48.6381C76.7296 48.6176 76.8977 48.6279 77.0587 48.6686C77.2198 48.7092 77.3708 48.7793 77.5031 48.8749C77.6354 48.9704 77.7465 49.0896 77.8299 49.2255C77.9132 49.3615 77.9674 49.5116 77.9891 49.6672C78.0109 49.8229 77.9999 49.981 77.9567 50.1327C77.9136 50.2843 77.8391 50.4265 77.7376 50.551C76.9172 51.3832 75.9106 52.0332 74.7906 52.4541C73.6706 52.875 72.4652 53.0563 71.2617 52.9848Z" fill="black"/>
<path d="M72.8007 43H62.1993C61.8812 43 61.5762 42.8946 61.3513 42.7071C61.1264 42.5196 61 42.2652 61 42C61 41.7348 61.1264 41.4804 61.3513 41.2929C61.5762 41.1054 61.8812 41 62.1993 41H72.8007C73.1188 41 73.4238 41.1054 73.6487 41.2929C73.8736 41.4804 74 41.7348 74 42C74 42.2652 73.8736 42.5196 73.6487 42.7071C73.4238 42.8946 73.1188 43 72.8007 43Z" fill="black"/>
<path d="M72.8007 48H62.1993C61.8812 48 61.5762 47.842 61.3513 47.5607C61.1264 47.2794 61 46.8978 61 46.5C61 46.1022 61.1264 45.7206 61.3513 45.4393C61.5762 45.158 61.8812 45 62.1993 45H72.8007C73.1188 45 73.4238 45.158 73.6487 45.4393C73.8736 45.7206 74 46.1022 74 46.5C74 46.8978 73.8736 47.2794 73.6487 47.5607C73.4238 47.842 73.1188 48 72.8007 48Z" fill="black"/>
</g>
<defs>
<clipPath id="clip0_813_4084">
<rect width="70" height="70" fill="white" transform="translate(24 21)"/>
</clipPath>
</defs>
</svg>
