<svg width="20" height="20" viewBox="0 0 20 20" fill="none" xmlns="http://www.w3.org/2000/svg">
<path d="M0.5 3V17C0.500778 17.6628 0.76442 18.2982 1.23309 18.7669C1.70176 19.2356 2.3372 19.4992 3 19.5H17C17.6628 19.4993 18.2983 19.2357 18.767 18.767C19.2357 18.2983 19.4993 17.6628 19.5 17V3C19.4993 2.33717 19.2357 1.70169 18.767 1.233C18.2983 0.764312 17.6628 0.500696 17 0.5H3C2.3372 0.500778 1.70176 0.76442 1.23309 1.23309C0.76442 1.70176 0.500778 2.3372 0.5 3ZM18.5 17C18.4996 17.3977 18.3414 17.779 18.0602 18.0602C17.779 18.3414 17.3977 18.4996 17 18.5H3C2.60231 18.4996 2.22103 18.3414 1.93982 18.0602C1.65861 17.779 1.50043 17.3977 1.5 17V5.5H18.5V17ZM18.5 3V4.5H1.5V3C1.50043 2.60231 1.65861 2.22103 1.93982 1.93982C2.22103 1.65861 2.60231 1.50043 3 1.5H17C17.3977 1.50043 17.779 1.65861 18.0602 1.93982C18.3414 2.22103 18.4996 2.60231 18.5 3ZM10 16.5C10.89 16.5 11.76 16.2361 12.5001 15.7416C13.2401 15.2471 13.8169 14.5443 14.1575 13.7221C14.4981 12.8998 14.5872 11.995 14.4135 11.1221C14.2399 10.2492 13.8113 9.44736 13.182 8.81802C12.5526 8.18868 11.7508 7.7601 10.8779 7.58647C10.005 7.41283 9.10019 7.50195 8.27792 7.84254C7.45566 8.18314 6.75285 8.75991 6.25839 9.49993C5.76392 10.24 5.5 11.11 5.5 12C5.5013 13.1931 5.97582 14.3369 6.81946 15.1805C7.66309 16.0242 8.80692 16.4987 10 16.5ZM10 8.5C10.5183 8.49922 11.0303 8.61374 11.4988 8.83524C11.9674 9.05674 12.3808 9.37969 12.7092 9.7807C13.0375 10.1817 13.2726 10.6507 13.3973 11.1538C13.522 11.6568 13.5333 12.1813 13.4303 12.6893C12.8937 12.9024 12.2997 12.9226 11.7499 12.7463C11.2001 12.57 10.7286 12.2081 10.416 11.7227C10.0949 11.1654 9.63524 10.7005 9.08162 10.373C8.52799 10.0456 7.89917 9.86677 7.2561 9.85382C7.5802 9.43414 7.99586 9.09402 8.47139 8.85939C8.94692 8.62477 9.46975 8.50185 10 8.5ZM6.69714 10.8909C7.26279 10.7925 7.84505 10.8732 8.36261 11.1218C8.88017 11.3703 9.30717 11.7743 9.584 12.2773C9.88276 12.7622 10.3026 13.1609 10.8023 13.4342C11.302 13.7075 11.8642 13.8459 12.4336 13.8359C12.6202 13.8323 12.8064 13.817 12.9912 13.7902C12.6007 14.4488 12.0045 14.9606 11.2944 15.2469C10.5844 15.5332 9.79985 15.578 9.0618 15.3745C8.32375 15.1709 7.67312 14.7303 7.21019 14.1205C6.74725 13.5107 6.4977 12.7656 6.5 12C6.50458 11.622 6.57118 11.2473 6.69714 10.8909ZM3 2.5H5C5.13261 2.5 5.25979 2.55268 5.35355 2.64645C5.44732 2.74021 5.5 2.86739 5.5 3C5.5 3.13261 5.44732 3.25979 5.35355 3.35355C5.25979 3.44732 5.13261 3.5 5 3.5H3C2.86739 3.5 2.74021 3.44732 2.64645 3.35355C2.55268 3.25979 2.5 3.13261 2.5 3C2.5 2.86739 2.55268 2.74021 2.64645 2.64645C2.74021 2.55268 2.86739 2.5 3 2.5Z" fill="#01A6A1"/>
</svg>
