<svg width="17" height="22" viewBox="0 0 17 22" fill="none" xmlns="http://www.w3.org/2000/svg">
<path d="M0 17C0.000654741 17.5761 0.199957 18.1343 0.564294 18.5805C0.92863 19.0267 1.43571 19.3336 2 19.4495V21C2 21.1326 2.05268 21.2598 2.14645 21.3536C2.24021 21.4473 2.36739 21.5 2.5 21.5C2.63261 21.5 2.75979 21.4473 2.85355 21.3536C2.94732 21.2598 3 21.1326 3 21V19.5H14V21C14 21.1326 14.0527 21.2598 14.1464 21.3536C14.2402 21.4473 14.3674 21.5 14.5 21.5C14.6326 21.5 14.7598 21.4473 14.8536 21.3536C14.9473 21.2598 15 21.1326 15 21V19.4495C15.5643 19.3336 16.0714 19.0267 16.4357 18.5805C16.8 18.1343 16.9993 17.5761 17 17V3C16.9994 2.33715 16.7358 1.70162 16.2671 1.23291C15.7984 0.7642 15.1629 0.500612 14.5 0.5H2.5C1.83715 0.500612 1.20162 0.7642 0.732909 1.23291C0.2642 1.70162 0.000611629 2.33715 0 3V17ZM1 3C1.00043 2.60231 1.15861 2.22103 1.43982 1.93982C1.72103 1.65861 2.10231 1.50043 2.5 1.5H14.5C14.8977 1.50043 15.279 1.65861 15.5602 1.93982C15.8414 2.22103 15.9996 2.60231 16 3V9.5H1V3ZM1 10.5H16V17C15.9996 17.3977 15.8414 17.779 15.5602 18.0602C15.279 18.3414 14.8977 18.4996 14.5 18.5H2.5C2.10231 18.4996 1.72103 18.3414 1.43982 18.0602C1.15861 17.779 1.00043 17.3977 1 17V10.5ZM11 4C11 4.06567 10.9871 4.13071 10.962 4.19139C10.9369 4.25207 10.9001 4.3072 10.8536 4.35364C10.8072 4.40008 10.7521 4.4369 10.6914 4.46202C10.6307 4.48713 10.5657 4.50004 10.5 4.5H6.5C6.36739 4.5 6.24021 4.44732 6.14645 4.35355C6.05268 4.25979 6 4.13261 6 4C6 3.86739 6.05268 3.74021 6.14645 3.64645C6.24021 3.55268 6.36739 3.5 6.5 3.5H10.5C10.5657 3.49996 10.6307 3.51287 10.6914 3.53798C10.7521 3.5631 10.8072 3.59992 10.8536 3.64636C10.9001 3.6928 10.9369 3.74793 10.962 3.80861C10.9871 3.86929 11 3.93433 11 4ZM6 13C5.99996 12.9343 6.01287 12.8693 6.03798 12.8086C6.0631 12.7479 6.09992 12.6928 6.14636 12.6464C6.1928 12.5999 6.24793 12.5631 6.30861 12.538C6.36929 12.5129 6.43433 12.5 6.5 12.5H10.5C10.6326 12.5 10.7598 12.5527 10.8536 12.6464C10.9473 12.7402 11 12.8674 11 13C11 13.1326 10.9473 13.2598 10.8536 13.3536C10.7598 13.4473 10.6326 13.5 10.5 13.5H6.5C6.43433 13.5 6.36929 13.4871 6.30861 13.462C6.24793 13.4369 6.1928 13.4001 6.14636 13.3536C6.09992 13.3072 6.0631 13.2521 6.03798 13.1914C6.01287 13.1307 5.99996 13.0657 6 13Z" fill="#01A6A1"/>
</svg>
