<svg width="63" height="54" viewBox="0 0 63 54" fill="none" xmlns="http://www.w3.org/2000/svg">
<path d="M2 42.1035C2 47.6647 6.5656 52.1728 12.1975 52.1728H50.8025C56.4344 52.1728 61 47.6647 61 42.1035V20.5264C61 14.9652 56.4344 10.457 50.8025 10.457H43.9347L42.6786 4.66884C42.3188 3.01074 40.8348 1.82617 39.1175 1.82617H23.8825C22.1652 1.82617 20.6812 3.01074 20.3214 4.66884L19.0653 10.457H12.1975C6.5656 10.457 2 14.9652 2 20.5264V30.1462" stroke="#01A6A1" stroke-width="3" stroke-linecap="round" stroke-linejoin="round"/>
<path d="M45.2666 20.707H50.7733" stroke="#01A6A1" stroke-width="3" stroke-linecap="round"/>
<path d="M40.6199 30.9337C40.6199 35.7004 36.5906 39.6604 31.4999 39.6604C26.4092 39.6604 22.3799 35.7004 22.3799 30.9337C22.3799 26.1669 26.4092 22.207 31.4999 22.207C36.5906 22.207 40.6199 26.1669 40.6199 30.9337Z" stroke="#01A6A1" stroke-width="3"/>
</svg>
