<svg width="40" height="44" viewBox="0 0 40 44" fill="none" xmlns="http://www.w3.org/2000/svg">
<path d="M9.11 14.48C9.66 13.8 10 12.94 10 12C10 9.79 8.21 8 6 8C3.79 8 2 9.79 2 12C2 12.94 2.34 13.8 2.89 14.48C1.19 15.28 0 17 0 19C0 19.55 0.45 20 1 20H11C11.55 20 12 19.55 12 19C12 17 10.81 15.28 9.11 14.48ZM6 10C7.1 10 8 10.9 8 12C8 13.1 7.1 14 6 14C4.9 14 4 13.1 4 12C4 10.9 4.9 10 6 10ZM2.17 18C2.58 16.84 3.69 16 5 16H7C8.3 16 9.42 16.84 9.83 18H2.17Z" fill="#01A6A1"/>
<path d="M23.11 6.48C23.66 5.8 24 4.94 24 4C24 1.79 22.21 0 20 0C17.79 0 16 1.79 16 4C16 4.94 16.34 5.8 16.89 6.48C15.19 7.28 14 9 14 11C14 11.55 14.45 12 15 12H25C25.55 12 26 11.55 26 11C26 9 24.81 7.28 23.11 6.48ZM20 2C21.1 2 22 2.9 22 4C22 5.1 21.1 6 20 6C18.9 6 18 5.1 18 4C18 2.9 18.9 2 20 2ZM16.17 10C16.58 8.84 17.69 8 19 8H21C22.3 8 23.42 8.84 23.83 10H16.17V10Z" fill="#01A6A1"/>
<path d="M29 20H39C39.55 20 40 19.55 40 19C40 17 38.81 15.28 37.11 14.48C37.66 13.8 38 12.94 38 12C38 9.79 36.21 8 34 8C31.79 8 30 9.79 30 12C30 12.94 30.34 13.8 30.89 14.48C29.19 15.28 28 17 28 19C28 19.55 28.45 20 29 20ZM34 10C35.1 10 36 10.9 36 12C36 13.1 35.1 14 34 14C32.9 14 32 13.1 32 12C32 10.9 32.9 10 34 10ZM33 16H35C36.3 16 37.42 16.84 37.83 18H30.17C30.58 16.84 31.69 16 33 16Z" fill="#01A6A1"/>
<path d="M9.11 29.48C9.66 28.8 10 27.94 10 27C10 24.79 8.21 23 6 23C3.79 23 2 24.79 2 27C2 27.94 2.34 28.8 2.89 29.48C1.19 30.28 0 32 0 34C0 34.55 0.45 35 1 35H11C11.55 35 12 34.55 12 34C12 32 10.81 30.28 9.11 29.48ZM6 25C7.1 25 8 25.9 8 27C8 28.1 7.1 29 6 29C4.9 29 4 28.1 4 27C4 25.9 4.9 25 6 25ZM2.17 33C2.58 31.84 3.69 31 5 31H7C8.3 31 9.42 31.84 9.83 33H2.17Z" fill="#01A6A1"/>
<path d="M23.11 38.48C23.66 37.8 24 36.94 24 36C24 33.79 22.21 32 20 32C17.79 32 16 33.79 16 36C16 36.94 16.34 37.8 16.89 38.48C15.19 39.28 14 41 14 43C14 43.55 14.45 44 15 44H25C25.55 44 26 43.55 26 43C26 41 24.81 39.28 23.11 38.48V38.48ZM20 34C21.1 34 22 34.9 22 36C22 37.1 21.1 38 20 38C18.9 38 18 37.1 18 36C18 34.9 18.9 34 20 34V34ZM16.17 42C16.58 40.84 17.69 40 19 40H21C22.3 40 23.42 40.84 23.83 42H16.17V42Z" fill="#01A6A1"/>
<path d="M37.11 29.48C37.66 28.8 38 27.94 38 27C38 24.79 36.21 23 34 23C31.79 23 30 24.79 30 27C30 27.94 30.34 28.8 30.89 29.48C29.19 30.28 28 32 28 34C28 34.55 28.45 35 29 35H39C39.55 35 40 34.55 40 34C40 32 38.81 30.28 37.11 29.48ZM34 25C35.1 25 36 25.9 36 27C36 28.1 35.1 29 34 29C32.9 29 32 28.1 32 27C32 25.9 32.9 25 34 25ZM30.17 33C30.58 31.84 31.69 31 33 31H35C36.3 31 37.42 31.84 37.83 33H30.17V33Z" fill="#01A6A1"/>
<path d="M21.32 10H18.29V12H21.32V10Z" fill="white"/>
<path d="M7.84035 17.8594H4.11035V19.9994H7.84035V17.8594Z" fill="white"/>
<path d="M7.84977 33H4.25977V35H7.84977V33Z" fill="white"/>
<path d="M21.3304 42H17.4004V44H21.3304V42Z" fill="white"/>
<path d="M35.4901 33H31.6201V35H35.4901V33Z" fill="white"/>
<path d="M35.0399 18H31.4199V20H35.0399V18Z" fill="white"/>
<path d="M18.5498 9.99023H17.3298C16.7831 9.99023 16.3398 10.4335 16.3398 10.9802V11.0002C16.3398 11.547 16.7831 11.9902 17.3298 11.9902H18.5498C19.0966 11.9902 19.5398 11.547 19.5398 11.0002V10.9802C19.5398 10.4335 19.0966 9.99023 18.5498 9.99023Z" fill="#01A6A1"/>
<path d="M22.5704 10H21.3504C20.8036 10 20.3604 10.4432 20.3604 10.99V11.01C20.3604 11.5568 20.8036 12 21.3504 12H22.5704C23.1171 12 23.5604 11.5568 23.5604 11.01V10.99C23.5604 10.4432 23.1171 10 22.5704 10Z" fill="#01A6A1"/>
<path d="M31.4903 18H30.2703C29.7235 18 29.2803 18.4432 29.2803 18.99V19.01C29.2803 19.5568 29.7235 20 30.2703 20H31.4903C32.037 20 32.4803 19.5568 32.4803 19.01V18.99C32.4803 18.4432 32.037 18 31.4903 18Z" fill="#01A6A1"/>
<path d="M36.2002 18H34.9802C34.4335 18 33.9902 18.4432 33.9902 18.99V19.01C33.9902 19.5568 34.4335 20 34.9802 20H36.2002C36.747 20 37.1902 19.5568 37.1902 19.01V18.99C37.1902 18.4432 36.747 18 36.2002 18Z" fill="#01A6A1"/>
<path d="M4.29984 33.0098H3.07984C2.53308 33.0098 2.08984 33.453 2.08984 33.9998V34.0198C2.08984 34.5665 2.53308 35.0098 3.07984 35.0098H4.29984C4.84661 35.0098 5.28984 34.5665 5.28984 34.0198V33.9998C5.28984 33.453 4.84661 33.0098 4.29984 33.0098Z" fill="#01A6A1"/>
<path d="M8.69047 33H7.47047C6.92371 33 6.48047 33.4432 6.48047 33.99V34.01C6.48047 34.5568 6.92371 35 7.47047 35H8.69047C9.23723 35 9.68047 34.5568 9.68047 34.01V33.99C9.68047 33.4432 9.23723 33 8.69047 33Z" fill="#01A6A1"/>
<path d="M17.46 41.9902H16.24C15.6932 41.9902 15.25 42.4335 15.25 42.9802V43.0002C15.25 43.547 15.6932 43.9902 16.24 43.9902H17.46C18.0068 43.9902 18.45 43.547 18.45 43.0002V42.9802C18.45 42.4335 18.0068 41.9902 17.46 41.9902Z" fill="#01A6A1"/>
<path d="M22.1299 41.9902H20.9099C20.3632 41.9902 19.9199 42.4335 19.9199 42.9802V43.0002C19.9199 43.547 20.3632 43.9902 20.9099 43.9902H22.1299C22.6767 43.9902 23.1199 43.547 23.1199 43.0002V42.9802C23.1199 42.4335 22.6767 41.9902 22.1299 41.9902Z" fill="#01A6A1"/>
<path d="M31.7803 33H30.5603C30.0136 33 29.5703 33.4432 29.5703 33.99V34.01C29.5703 34.5568 30.0136 35 30.5603 35H31.7803C32.3271 35 32.7703 34.5568 32.7703 34.01V33.99C32.7703 33.4432 32.3271 33 31.7803 33Z" fill="#01A6A1"/>
<path d="M36.6202 33H35.4002C34.8534 33 34.4102 33.4432 34.4102 33.99V34.01C34.4102 34.5568 34.8534 35 35.4002 35H36.6202C37.1669 35 37.6102 34.5568 37.6102 34.01V33.99C37.6102 33.4432 37.1669 33 36.6202 33Z" fill="#01A6A1"/>
<path d="M4.17973 18H2.95973C2.41296 18 1.96973 18.4432 1.96973 18.99V19.01C1.96973 19.5568 2.41296 20 2.95973 20H4.17973C4.72649 20 5.16973 19.5568 5.16973 19.01V18.99C5.16973 18.4432 4.72649 18 4.17973 18Z" fill="#01A6A1"/>
<path d="M7.92973 18.0098H6.70973C6.16296 18.0098 5.71973 18.453 5.71973 18.9998V19.0198C5.71973 19.5665 6.16296 20.0098 6.70973 20.0098H7.92973C8.47649 20.0098 8.91973 19.5665 8.91973 19.0198V18.9998C8.91973 18.453 8.47649 18.0098 7.92973 18.0098Z" fill="#01A6A1"/>
</svg>
