<svg width="28" height="19" viewBox="0 0 28 19" fill="none" xmlns="http://www.w3.org/2000/svg">
<path d="M27.0233 1.31034H23.1163C22.8796 1.31028 22.651 1.39665 22.4729 1.55341L18.8837 4.71331V0.982759C18.8837 0.722115 18.7808 0.472146 18.5976 0.287843C18.4145 0.10354 18.166 0 17.907 0L0.976744 0C0.717696 0 0.469257 0.10354 0.286082 0.287843C0.102907 0.472146 0 0.722115 0 0.982759L0 18.0172C0 18.2779 0.102907 18.5279 0.286082 18.7122C0.469257 18.8965 0.717696 19 0.976744 19H17.907C18.166 19 18.4145 18.8965 18.5976 18.7122C18.7808 18.5279 18.8837 18.2779 18.8837 18.0172V14.2867L22.4729 17.4466C22.651 17.6033 22.8796 17.6897 23.1163 17.6897H27.0233C27.2823 17.6897 27.5307 17.5861 27.7139 17.4018C27.8971 17.2175 28 16.9675 28 16.7069V2.2931C28 2.03246 27.8971 1.78249 27.7139 1.59819C27.5307 1.41389 27.2823 1.31034 27.0233 1.31034ZM16.9302 6.87931V17.0345H1.95349V1.96552H16.9302V6.87931ZM26.0465 15.7241H23.4829L18.8837 11.6745V7.32548L23.4829 3.27586H26.0465V15.7241Z" fill="white"/>
<path d="M12.4502 13.8039C12.4718 13.8638 12.5002 13.921 12.5349 13.9743C12.5725 14.0274 12.6139 14.0778 12.6586 14.125C12.8422 14.3084 13.0901 14.4119 13.3488 14.4133C13.6078 14.413 13.856 14.3093 14.039 14.125C14.2213 13.9402 14.3242 13.6908 14.3256 13.4305C14.3258 13.3666 14.3193 13.3029 14.306 13.2405C14.2925 13.1783 14.2751 13.117 14.2539 13.0571C14.2275 12.9982 14.197 12.9413 14.1628 12.8867C14.1268 12.8323 14.0853 12.7818 14.039 12.736C13.8521 12.5593 13.6053 12.4609 13.3488 12.4609C13.0923 12.4609 12.8455 12.5593 12.6586 12.736C12.6123 12.7818 12.5709 12.8323 12.5349 12.8867C12.5002 12.94 12.4718 12.9972 12.4502 13.0571C12.4239 13.1158 12.4042 13.1773 12.3916 13.2405C12.3656 13.3658 12.3656 13.4952 12.3916 13.6205C12.4042 13.6837 12.4239 13.7452 12.4502 13.8039Z" fill="white"/>
<path d="M5.53534 14.4147H9.64613C9.90518 14.4147 10.1536 14.3112 10.3368 14.1269C10.52 13.9426 10.6229 13.6926 10.6229 13.432C10.6229 13.1713 10.52 12.9214 10.3368 12.7371C10.1536 12.5528 9.90518 12.4492 9.64613 12.4492H5.53534C5.27629 12.4492 5.02785 12.5528 4.84468 12.7371C4.6615 12.9214 4.55859 13.1713 4.55859 13.432C4.55859 13.6926 4.6615 13.9426 4.84468 14.1269C5.02785 14.3112 5.27629 14.4147 5.53534 14.4147Z" fill="white"/>
</svg>
