<svg width="15" height="21" viewBox="0 0 15 21" fill="none" xmlns="http://www.w3.org/2000/svg">
<path d="M8.02424 3.19441H5.2687C5.09404 3.19441 4.92652 3.26282 4.80301 3.38458C4.6795 3.50634 4.61012 3.67148 4.61012 3.84368V14.0242H5.92729V9.75204H8.03477C8.90065 9.72801 9.72288 9.37203 10.3267 8.75975C10.9305 8.14748 11.2683 7.32718 11.2683 6.47323C11.2683 5.61927 10.9305 4.79897 10.3267 4.1867C9.72288 3.57442 8.90065 3.21844 8.03477 3.19441H8.02424ZM8.02424 8.4535H5.91675V4.49295H8.02424C8.54439 4.51152 9.03695 4.72829 9.39827 5.09763C9.75959 5.46698 9.96149 5.9601 9.96149 6.47323C9.96149 6.98635 9.75959 7.47947 9.39827 7.84882C9.03695 8.21816 8.54439 8.43493 8.02424 8.4535ZM6.48051 21H7.79768V17.8056H6.48051V21ZM12.0759 0H2.92413C2.14882 0.00068767 1.40546 0.304627 0.857228 0.8451C0.308999 1.38557 0.000697539 2.11842 0 2.88276L0 14.0242C0.000697539 14.7886 0.308999 15.5214 0.857228 16.0619C1.40546 16.6024 2.14882 16.9063 2.92413 16.907H12.0759C12.8512 16.9063 13.5945 16.6024 14.1428 16.0619C14.691 15.5214 14.9993 14.7886 15 14.0242V2.88276C14.9993 2.11842 14.691 1.38557 14.1428 0.8451C13.5945 0.304627 12.8512 0.00068767 12.0759 0V0ZM13.6828 14.0242C13.6821 14.4442 13.5126 14.8467 13.2114 15.1437C12.9102 15.4406 12.5018 15.6078 12.0759 15.6085H2.92413C2.49815 15.6078 2.08982 15.4406 1.78861 15.1437C1.4874 14.8467 1.31787 14.4442 1.31718 14.0242V2.88276C1.31787 2.46281 1.4874 2.06026 1.78861 1.76331C2.08982 1.46636 2.49815 1.29923 2.92413 1.29854H12.0759C12.5018 1.29923 12.9102 1.46636 13.2114 1.76331C13.5126 2.06026 13.6821 2.46281 13.6828 2.88276V14.0242Z" fill="#01A6A1"/>
</svg>
