<svg width="65" height="36" viewBox="0 0 65 36" fill="none" xmlns="http://www.w3.org/2000/svg">
<g clip-path="url(#clip0_728_3983)">
<path d="M15.8698 25.6204C15.1298 25.6204 14.3998 25.3304 13.8498 24.7504L13.1898 24.0504C12.6798 23.5104 12.4098 22.8104 12.4398 22.0704C12.4598 21.3304 12.7698 20.6404 13.3098 20.1404L15.1398 18.4104C16.2498 17.3604 18.0098 17.4104 19.0598 18.5204L19.7198 19.2204C20.7698 20.3304 20.7198 22.0904 19.5998 23.1404L17.7698 24.8704C17.2398 25.3704 16.5498 25.6204 15.8698 25.6204ZM17.0398 19.6704C16.8598 19.6704 16.6698 19.7404 16.5298 19.8704L14.6998 21.6004C14.5498 21.7404 14.4698 21.9204 14.4698 22.1204C14.4698 22.3204 14.5398 22.5104 14.6698 22.6604L15.3298 23.3604C15.6098 23.6604 16.0898 23.6804 16.3898 23.3904L18.2198 21.6604C18.5198 21.3804 18.5298 20.9004 18.2498 20.6004L17.5898 19.9004C17.4398 19.7404 17.2398 19.6704 17.0398 19.6704Z" fill="#01A6A1"/>
<path d="M18.2897 29.7094C17.5297 29.7094 16.7797 29.4094 16.2197 28.8194L15.5297 28.0894C14.4597 26.9494 14.5097 25.1494 15.6497 24.0694L20.6297 19.3794C21.7697 18.3094 23.5697 18.3594 24.6497 19.4994L25.3297 20.2294C26.4097 21.3694 26.3497 23.1694 25.2097 24.2494L20.2297 28.9394C19.6797 29.4594 18.9797 29.7094 18.2797 29.7094H18.2897ZM17.6897 27.4294C17.9997 27.7594 18.5197 27.7694 18.8497 27.4594L23.8297 22.7694C24.1597 22.4594 24.1697 21.9394 23.8597 21.6094L23.1797 20.8794C22.8697 20.5494 22.3497 20.5294 22.0197 20.8494L17.0397 25.5394C16.8797 25.6894 16.7897 25.8894 16.7797 26.1094C16.7797 26.3294 16.8497 26.5394 16.9997 26.6994L17.6797 27.4294H17.6897Z" fill="#01A6A1"/>
<path d="M22.5898 32.0602C21.8298 32.0602 21.0798 31.7602 20.5198 31.1702L19.8298 30.4402C19.3098 29.8902 19.0298 29.1702 19.0598 28.4102C19.0798 27.6502 19.3998 26.9502 19.9498 26.4302L23.5798 23.0102C24.7198 21.9402 26.5198 21.9902 27.5998 23.1302L28.2898 23.8602C28.8098 24.4102 29.0898 25.1302 29.0598 25.8902C29.0398 26.6502 28.7198 27.3502 28.1698 27.8702L24.5398 31.2902C23.9898 31.8102 23.2898 32.0602 22.5898 32.0602ZM21.9898 29.7802C22.1398 29.9402 22.3398 30.0302 22.5598 30.0402C22.7798 30.0402 22.9898 29.9702 23.1498 29.8202L26.7798 26.4002C26.9398 26.2502 27.0298 26.0502 27.0398 25.8302C27.0398 25.6102 26.9698 25.4002 26.8198 25.2402L26.1298 24.5102C25.8198 24.1802 25.2998 24.1702 24.9698 24.4802L21.3398 27.9002C21.1798 28.0502 21.0898 28.2502 21.0798 28.4702C21.0798 28.6902 21.1498 28.9002 21.2998 29.0602L21.9798 29.7902H21.9898V29.7802Z" fill="#01A6A1"/>
<path d="M26.2203 35.2799H26.1303C25.3503 35.2599 24.6303 34.9299 24.0903 34.3699L23.3803 33.6099C22.2803 32.4399 22.3303 30.5899 23.5003 29.4899L26.4303 26.7299C27.6003 25.6299 29.4503 25.6799 30.5503 26.8499L31.2603 27.6099C32.3603 28.7799 32.3103 30.6299 31.1403 31.7299L28.2103 34.4899C27.6603 34.9999 26.9603 35.2799 26.2103 35.2799H26.2203ZM28.4303 27.9499C28.2003 27.9499 27.9803 28.0399 27.8203 28.1899L24.8903 30.9499C24.7203 31.1099 24.6203 31.3399 24.6103 31.5699C24.6103 31.8099 24.6903 32.0399 24.8503 32.2099L25.5603 32.9699C25.7203 33.1399 25.9503 33.2399 26.1803 33.2499C26.4103 33.2499 26.6503 33.1699 26.8203 33.0099L29.7503 30.2499C30.1103 29.9099 30.1303 29.3399 29.7903 28.9899L29.0803 28.2299C28.9203 28.0599 28.6903 27.9599 28.4603 27.9499H28.4303Z" fill="#01A6A1"/>
<path d="M36.3505 33.8405C35.9805 33.8405 35.6205 33.7605 35.2705 33.6005L30.2805 31.3205C29.7705 31.0905 29.5505 30.4905 29.7805 29.9805C30.0105 29.4705 30.6105 29.2505 31.1205 29.4805L36.1105 31.7605C36.3705 31.8805 36.6805 31.8005 36.8405 31.5605C36.9705 31.3705 36.9505 31.1805 36.9305 31.0805C36.9105 30.9805 36.8405 30.8005 36.6305 30.6905L33.6705 29.1005C33.1805 28.8405 32.9905 28.2205 33.2605 27.7305C33.5205 27.2405 34.1405 27.0505 34.6305 27.3205L37.5805 28.9105C38.2405 29.2605 38.7105 29.8805 38.8905 30.6105C39.0605 31.3405 38.9205 32.1005 38.4905 32.7205C37.9905 33.4405 37.1805 33.8405 36.3505 33.8405Z" fill="#01A6A1"/>
<path d="M40.5699 32.2595C40.1199 32.2595 39.6599 32.1595 39.2299 31.9495L36.3099 30.5295C35.8099 30.2895 35.5999 29.6795 35.8399 29.1795C36.0799 28.6795 36.6899 28.4695 37.1899 28.7095L40.1099 30.1295C40.5799 30.3595 41.1499 30.2095 41.4399 29.7795C41.6099 29.5395 41.6699 29.2395 41.5999 28.9495C41.5299 28.6595 41.3599 28.4195 41.0999 28.2695L32.5199 23.2895C32.0399 23.0095 31.8699 22.3895 32.1499 21.9095C32.4299 21.4295 33.0499 21.2595 33.5299 21.5395L42.1099 26.5195C42.8499 26.9495 43.3799 27.6695 43.5699 28.5095C43.7599 29.3395 43.5899 30.2195 43.0999 30.9295C42.5099 31.7795 41.5399 32.2595 40.5499 32.2595H40.5699Z" fill="#01A6A1"/>
<path d="M43.6002 29.2601C43.0402 29.2601 42.4902 29.1101 41.9902 28.8201L35.2702 24.8901C34.7902 24.6101 34.6302 23.9901 34.9102 23.5101C35.1902 23.0301 35.8102 22.8701 36.2902 23.1501L43.0102 27.0801C43.2902 27.2401 43.6102 27.2901 43.9302 27.2001C44.2402 27.1101 44.5002 26.9101 44.6602 26.6301C44.9702 26.0701 44.7802 25.3801 44.2402 25.0401L35.8202 19.8801C35.3402 19.5901 35.2002 18.9701 35.4902 18.4901C35.7802 18.0101 36.4002 17.8701 36.8802 18.1601L45.2902 23.3201C46.7502 24.2201 47.2502 26.1001 46.4202 27.6001C46.0002 28.3701 45.3002 28.9101 44.4602 29.1501C44.1802 29.2301 43.8902 29.2701 43.6002 29.2701V29.2601Z" fill="#01A6A1"/>
<path d="M46.97 26.1298C46.27 26.1298 45.58 25.9298 44.97 25.5498L41.67 23.4698C41.2 23.1698 41.06 22.5498 41.35 22.0798C41.65 21.6098 42.27 21.4698 42.74 21.7598L46.04 23.8398C46.44 24.0898 46.92 24.1698 47.38 24.0598C47.84 23.9498 48.23 23.6598 48.47 23.2498C48.93 22.4598 48.7 21.4298 47.93 20.9298L42.02 17.0098C41.55 16.6998 41.43 16.0698 41.74 15.6098C42.05 15.1398 42.68 15.0198 43.14 15.3298L49.05 19.2498C50.71 20.3498 51.22 22.5598 50.22 24.2798C49.7 25.1698 48.86 25.7898 47.87 26.0398C47.57 26.1098 47.27 26.1498 46.97 26.1498V26.1298Z" fill="#01A6A1"/>
<path d="M52.1304 22.3494C50.8104 22.3494 49.5104 21.9594 48.3904 21.2194L37.4504 13.9594C36.3304 13.2194 34.8804 13.2094 33.7504 13.9294L29.5804 16.5994C28.7604 17.1294 27.7504 17.2694 26.8104 16.9994C25.8704 16.7294 25.1004 16.0594 24.6904 15.1694C24.0704 13.8294 24.3904 12.2594 25.4704 11.2594L32.6404 4.67939C34.4404 3.01939 37.0104 2.43939 39.3504 3.15939L44.8404 4.83939C46.1004 5.21939 47.4304 5.23939 48.7004 4.88939C49.1804 4.75939 49.6904 4.99939 49.9004 5.45939L56.3604 20.1894C56.4704 20.4494 56.4704 20.7494 56.3604 21.0094C56.2404 21.2694 56.0204 21.4694 55.7404 21.5594L54.2004 22.0494C53.5204 22.2594 52.8304 22.3694 52.1404 22.3694V22.3494H52.1304ZM35.5604 11.3694C36.6004 11.3694 37.6504 11.6694 38.5504 12.2694L49.4904 19.5294C50.7004 20.3294 52.1804 20.5394 53.5604 20.0994L54.0304 19.9494L48.3604 7.00939C46.9804 7.24939 45.5704 7.15939 44.2304 6.74939L38.7404 5.06939C37.0804 4.55939 35.2604 4.97939 33.9904 6.14939L26.8204 12.7294C26.3804 13.1294 26.2604 13.7594 26.5004 14.2994C26.6704 14.6594 26.9704 14.9194 27.3504 15.0394C27.7304 15.1494 28.1304 15.0894 28.4704 14.8794L32.6404 12.2094C33.5304 11.6394 34.5404 11.3594 35.5604 11.3594V11.3694Z" fill="#01A6A1"/>
<path d="M56.5002 24.0201C56.1102 24.0201 55.7402 23.7901 55.5702 23.4101L46.7602 2.91009C46.6502 2.65009 46.6502 2.37009 46.7602 2.11009C46.8702 1.86009 47.0802 1.66009 47.3402 1.56009L51.4202 0.0600862C51.8802 -0.109914 52.3902 0.0800862 52.6402 0.500086L64.0002 19.8801C64.1502 20.1301 64.1802 20.4401 64.0802 20.7201C63.9802 21.0001 63.7702 21.2201 63.5002 21.3301L56.8702 23.9501C56.7502 24.0001 56.6202 24.0201 56.5002 24.0201ZM49.0402 3.09009L57.0402 21.7101L61.6602 19.8801L51.3202 2.25009L49.0302 3.09009H49.0402Z" fill="#01A6A1"/>
<path d="M13.0698 23.4409C12.9298 23.4409 12.7798 23.4109 12.6398 23.3409L8.32978 21.3309C7.83978 21.1009 7.60978 20.5209 7.82978 20.0209L14.0198 5.61095C14.1998 5.19095 14.6398 4.94095 15.0998 5.01095L17.7198 5.40095C18.7098 5.55095 19.7298 5.44095 20.6798 5.10095L28.7898 2.15095C29.8898 1.75095 31.0798 1.77095 32.1698 2.21095L35.2598 3.45095C35.7798 3.66095 36.0298 4.25095 35.8198 4.76095C35.6098 5.28095 35.0198 5.53095 34.4998 5.32095L31.4098 4.08095C30.7898 3.83095 30.1098 3.82095 29.4798 4.05095L21.3698 7.00095C20.1098 7.46095 18.7498 7.60095 17.4298 7.40095L15.5798 7.13095L10.0898 19.9209L13.5098 21.5209C14.0198 21.7609 14.2298 22.3609 13.9998 22.8609C13.8298 23.2309 13.4598 23.4409 13.0798 23.4409H13.0698Z" fill="#01A6A1"/>
<path d="M7.64023 24.0201C7.52023 24.0201 7.39023 24.0001 7.27023 23.9501L0.640227 21.3301C0.370227 21.2201 0.150227 21.0001 0.0602274 20.7201C-0.0397726 20.4401 -0.0097726 20.1301 0.140227 19.8801L11.5002 0.500086C11.7502 0.0800862 12.2602 -0.109914 12.7202 0.0600862L16.8002 1.56009C17.0602 1.66009 17.2702 1.85009 17.3802 2.11009C17.4902 2.37009 17.4902 2.65009 17.3802 2.91009L8.57023 23.4101C8.41023 23.7901 8.03023 24.0201 7.64023 24.0201ZM2.48023 19.8801L7.10023 21.7101L15.1002 3.09009L12.8102 2.25009L2.48023 19.8801Z" fill="#01A6A1"/>
<path d="M63.083 12.5828L59.8896 6.55664L54.1462 9.60019L57.3396 15.6264L63.083 12.5828Z" fill="white"/>
<path d="M56.7085 7.42328C56.4296 6.9402 55.8119 6.77469 55.3288 7.05359C54.8457 7.3325 54.6802 7.9502 54.9591 8.43328L55.2641 8.96155C55.543 9.44463 56.1607 9.61014 56.6438 9.33124C57.1269 9.05234 57.2924 8.43463 57.0135 7.95155L56.7085 7.42328Z" fill="#01A6A1"/>
<path d="M60.4868 13.8959C60.2079 13.4129 59.5902 13.2473 59.1071 13.5262C58.624 13.8052 58.4585 14.4229 58.7374 14.9059L59.0424 15.4342C59.3213 15.9173 59.939 16.0828 60.4221 15.8039C60.9052 15.525 61.0707 14.9073 60.7918 14.4242L60.4868 13.8959Z" fill="#01A6A1"/>
</g>
<defs>
<clipPath id="clip0_728_3983">
<rect width="64.14" height="35.28" fill="white"/>
</clipPath>
</defs>
</svg>
