<svg width="24" height="20" viewBox="0 0 24 20" fill="none" xmlns="http://www.w3.org/2000/svg">
<path d="M21.3076 8.91483V18.9992H2.88281V8.90234" stroke="#01A6A1" stroke-width="0.8" stroke-linecap="round" stroke-linejoin="round"/>
<path d="M22.9796 5.63936H1.21094L3.7377 0.732422H20.4864L22.9796 5.63936Z" stroke="#01A6A1" stroke-width="0.8" stroke-linecap="round" stroke-linejoin="round"/>
<path d="M6.6582 7.10547C6.6582 8.18758 7.87339 9.06159 9.37772 9.06159C10.882 9.06159 12.1014 8.18758 12.1014 7.10547" stroke="#01A6A1" stroke-width="0.8" stroke-linecap="round" stroke-linejoin="round"/>
<path d="M6.65835 5.64062V7.10979C6.65835 8.18774 5.45573 9.05759 3.9514 9.05759C3.59094 9.05832 3.23233 9.00643 2.88706 8.90359C1.91072 8.6081 1.21094 7.91305 1.21094 7.10979V5.64062H6.65835Z" stroke="#01A6A1" stroke-width="0.8" stroke-linecap="round" stroke-linejoin="round"/>
<path d="M12.1055 5.64062V7.10979C12.1055 8.18774 13.3249 9.06175 14.8292 9.06175C16.3335 9.06175 17.5529 8.18774 17.5529 7.10979" stroke="#01A6A1" stroke-width="0.8" stroke-linecap="round" stroke-linejoin="round"/>
<path d="M23.0001 7.10979C23.0001 7.94218 22.2962 8.62891 21.2989 8.91608C20.9672 9.01449 20.6226 9.06358 20.2764 9.06175C18.7721 9.06175 17.5527 8.18774 17.5527 7.10979V5.64062H23.0001V7.10979Z" stroke="#01A6A1" stroke-width="0.8" stroke-linecap="round" stroke-linejoin="round"/>
<path d="M5.46875 18.999V10.75H10.3966V18.999" stroke="#01A6A1" stroke-width="0.8" stroke-linecap="round" stroke-linejoin="round"/>
<path d="M18.8356 10.75H13.7988V14.8745H18.8356V10.75Z" stroke="#01A6A1" stroke-width="0.8" stroke-linecap="round" stroke-linejoin="round"/>
</svg>
