<svg width="18" height="16" viewBox="0 0 18 16" fill="none" xmlns="http://www.w3.org/2000/svg">
<path d="M12 4H9C7.89543 4 7 4.89543 7 6V9C7 10.1046 7.89543 11 9 11H12C13.1046 11 14 10.1046 14 9V6C14 4.89543 13.1046 4 12 4Z" stroke="#01A6A1" stroke-linecap="round" stroke-linejoin="round"/>
<path d="M14 6H16.8C16.853 6 16.9039 6.02107 16.9414 6.05858C16.9789 6.09609 17 6.14696 17 6.2V8.8C17 8.85304 16.9789 8.90391 16.9414 8.94142C16.9039 8.97893 16.853 9 16.8 9H14" stroke="#01A6A1" stroke-linecap="round" stroke-linejoin="round"/>
<path d="M7 5H3C2.46957 5 1.96086 5.21071 1.58579 5.58579C1.21071 5.96086 1 6.46957 1 7V10.8C1 10.853 1.02107 10.9039 1.05858 10.9414C1.09609 10.9789 1.14696 11 1.2 11H3.8C3.85304 11 3.90391 10.9789 3.94142 10.9414C3.97893 10.9039 4 10.853 4 10.8V9.2C4 9.14696 4.02107 9.09609 4.05858 9.05858C4.09609 9.02107 4.14696 9 4.2 9H7" stroke="#01A6A1" stroke-linecap="round" stroke-linejoin="round"/>
<path d="M3 13V15" stroke="#01A6A1" stroke-linecap="round" stroke-linejoin="round"/>
<path d="M11 1V4" stroke="#01A6A1" stroke-linecap="round" stroke-linejoin="round"/>
<path d="M8 1H14" stroke="#01A6A1" stroke-linecap="round" stroke-linejoin="round"/>
</svg>
