<svg width="39" height="44" viewBox="0 0 39 44" fill="none" xmlns="http://www.w3.org/2000/svg">
<path d="M13.4062 26.916H25.5938C26.2641 26.916 26.8125 26.3655 26.8125 25.6926C26.8125 23.2456 25.3622 21.1412 23.2903 20.1625C23.9606 19.3305 24.375 18.2783 24.375 17.1283C24.375 14.4244 22.1934 12.2344 19.5 12.2344C16.8066 12.2344 14.625 14.4244 14.625 17.1283C14.625 18.2783 15.0394 19.3305 15.7097 20.1625C13.6378 21.1412 12.1875 23.2456 12.1875 25.6926C12.1875 26.3655 12.7359 26.916 13.4062 26.916ZM19.5 14.6813C20.8406 14.6813 21.9375 15.7824 21.9375 17.1283C21.9375 18.4741 20.8406 19.5752 19.5 19.5752C18.1594 19.5752 17.0625 18.4741 17.0625 17.1283C17.0625 15.7824 18.1594 14.6813 19.5 14.6813ZM18.2812 22.0221H20.7188C22.3031 22.0221 23.6681 23.0499 24.1678 24.4691H14.8322C15.3319 23.0499 16.6969 22.0221 18.2812 22.0221V22.0221Z" fill="#01A6A1"/>
<path d="M20.1216 43.9388H37.7812C38.4516 43.9388 39 43.3883 39 42.7154V3.67041C39 2.9975 38.4516 2.44694 37.7812 2.44694H26.8125V1.22347C26.8125 0.550562 26.2641 0 25.5938 0H13.4062C12.7359 0 12.1875 0.550562 12.1875 1.22347V2.44694H1.21875C0.548437 2.44694 0 2.9975 0 3.67041V42.7154C0 43.3883 0.548437 43.9388 1.21875 43.9388H15.795H20.1216ZM14.625 2.44694H24.375V4.89388H14.625V2.44694ZM36.5625 41.4919H2.4375V4.89388H12.1875V6.11735C12.1875 6.79026 12.7359 7.34082 13.4062 7.34082H25.5938C26.2641 7.34082 26.8125 6.79026 26.8125 6.11735V4.89388H36.5625V41.4919Z" fill="#01A6A1"/>
<path d="M7.3125 33.034C7.3125 33.7069 7.86094 34.2575 8.53125 34.2575H30.4688C31.1391 34.2575 31.6875 33.7069 31.6875 33.034C31.6875 32.3611 31.1391 31.8105 30.4688 31.8105H8.53125C7.86094 31.8105 7.3125 32.3611 7.3125 33.034Z" fill="#01A6A1"/>
<path d="M31.4189 41.1855H25.3008V43.9995H31.4189V41.1855Z" fill="white"/>
<path d="M25.7276 41.4922H24.2407C23.5744 41.4922 23.0342 42.0345 23.0342 42.7034V42.7279C23.0342 43.3968 23.5744 43.9391 24.2407 43.9391H25.7276C26.394 43.9391 26.9342 43.3968 26.9342 42.7279V42.7034C26.9342 42.0345 26.394 41.4922 25.7276 41.4922Z" fill="#01A6A1"/>
<path d="M32.8331 41.5039H31.3462C30.6798 41.5039 30.1396 42.0462 30.1396 42.7151V42.7396C30.1396 43.4086 30.6798 43.9508 31.3462 43.9508H32.8331C33.4995 43.9508 34.0396 43.4086 34.0396 42.7396V42.7151C34.0396 42.0462 33.4995 41.5039 32.8331 41.5039Z" fill="#01A6A1"/>
</svg>
