<svg width="68" height="59" viewBox="0 0 68 59" fill="none" xmlns="http://www.w3.org/2000/svg">
<path d="M57.2675 16.9172L54.4444 23.4873L51.6214 16.9172C51.4487 16.5152 51.1275 16.1952 50.7249 16.024L44.0206 13.1725L50.7464 10.2097C51.1338 10.039 51.4436 9.72996 51.6152 9.34293L54.4444 2.96092L57.2737 9.34294C57.4453 9.72996 57.7551 10.039 58.1425 10.2097L64.8683 13.1725L58.164 16.024C57.7614 16.1952 57.4402 16.5152 57.2675 16.9172ZM57.2698 48.8588L54.4444 55.3331L51.6191 48.8588C51.4454 48.4607 51.126 48.1443 50.7264 47.9743L44.0206 45.1222L50.7434 42.1607C51.1369 41.9874 51.4502 41.6713 51.62 41.2761L54.4444 34.7026L57.2689 41.2761C57.4387 41.6713 57.752 41.9874 58.1455 42.1607L64.8683 45.1222L58.1625 47.9743C57.7629 48.1443 57.4435 48.4607 57.2698 48.8588Z" stroke="#01A6A1" stroke-width="2.4" stroke-linecap="round" stroke-linejoin="round"/>
<path d="M18.8305 35.5276L18.5524 34.9269L17.9462 34.6607L4.3521 28.6905L17.9462 22.7204L18.5524 22.4542L18.8305 21.8534L25.0556 8.41069L31.2806 21.8534L31.5588 22.4542L32.1649 22.7204L45.759 28.6905L32.1649 34.6607L31.5588 34.9269L31.2806 35.5276L25.0556 48.9704L18.8305 35.5276Z" stroke="#01A6A1" stroke-width="3.5"/>
</svg>
