<svg width="16" height="16" viewBox="0 0 16 16" fill="none" xmlns="http://www.w3.org/2000/svg">
<path d="M14.6663 11.2067V6.71334C14.6787 6.68114 14.6787 6.64553 14.6663 6.61334L8.13301 1.38667C8.10936 1.36774 8.07997 1.35742 8.04967 1.35742C8.01938 1.35742 7.98999 1.36774 7.96634 1.38667L1.40634 6.61334C1.39219 6.62598 1.38076 6.64136 1.37274 6.65855C1.36472 6.67574 1.36027 6.69438 1.35967 6.71334L1.33301 13.2267C1.33301 13.5803 1.47348 13.9194 1.72353 14.1695C1.97358 14.4195 2.31272 14.56 2.66634 14.56L9.47967 14.6067" stroke="#FE6D60" stroke-linecap="round" stroke-linejoin="round"/>
<path d="M7.99935 12.0007C9.8403 12.0007 11.3327 10.5083 11.3327 8.66732C11.3327 6.82637 9.8403 5.33398 7.99935 5.33398C6.1584 5.33398 4.66602 6.82637 4.66602 8.66732C4.66602 10.5083 6.1584 12.0007 7.99935 12.0007Z" stroke="#FE6D60" stroke-linecap="round" stroke-linejoin="bevel"/>
<path d="M9.93945 11.3809L12.6661 14.0009" stroke="#FE6D60" stroke-linecap="round" stroke-linejoin="bevel"/>
</svg>
