<svg width="70" height="59" viewBox="0 0 70 59" fill="none" xmlns="http://www.w3.org/2000/svg">
<path d="M59.4512 16.9962L56.4444 23.9939L53.4377 16.9962C53.2852 16.6414 53.0019 16.3591 52.6466 16.208L45.5171 13.1757L52.6657 10.0267C53.0076 9.87609 53.281 9.60337 53.4323 9.26188L56.4444 2.46744L59.4566 9.26188C59.6079 9.60337 59.8813 9.87609 60.2231 10.0267L67.3717 13.1757L60.2423 16.208C59.887 16.3591 59.6037 16.6414 59.4512 16.9962ZM59.4531 48.9387L56.4444 55.8331L53.4358 48.9388C53.2825 48.5876 53.0007 48.3083 52.6481 48.1584L45.5171 45.1254L52.6627 41.9777C53.01 41.8247 53.2864 41.5458 53.4362 41.1972L56.4444 34.196L59.4527 41.1972C59.6025 41.5458 59.8789 41.8247 60.2262 41.9777L67.3717 45.1254L60.2408 48.1584C59.8882 48.3083 59.6064 48.5876 59.4531 48.9387Z" stroke="#01A6A1" stroke-width="2" stroke-linecap="round" stroke-linejoin="round"/>
<path d="M18.6037 35.6327L18.3652 35.1178L17.8457 34.8896L3.73037 28.6905L17.8457 22.4915L18.3652 22.2633L18.6037 21.7484L25.0556 7.81575L31.5074 21.7484L31.7459 22.2633L32.2654 22.4915L46.3807 28.6905L32.2654 34.8896L31.7459 35.1178L31.5074 35.6327L25.0556 49.5653L18.6037 35.6327ZM2.68797 29.1483L2.68896 29.1479C2.68863 29.148 2.6883 29.1482 2.68797 29.1483L2.48691 28.6905L2.68797 29.1483Z" stroke="#01A6A1" stroke-width="3"/>
</svg>
