<svg width="14" height="12" viewBox="0 0 14 12" fill="none" xmlns="http://www.w3.org/2000/svg">
<path fill-rule="evenodd" clip-rule="evenodd" d="M13.3519 0.036489C13.3041 -0.012163 13.1991 -0.012163 13.1465 0.036489L0.5201 5.88445C0.415039 5.88445 0.415039 5.94283 0.415039 6.045C0.415039 6.09365 0.415039 6.20555 0.5201 6.20555C1.38924 6.62396 4.2641 7.98135 4.52197 7.8208L7.75499 5.36874L4.67479 8.02514C4.67479 8.02514 4.62226 8.07379 4.62226 8.13217L5.2383 11.8394C5.2383 11.8881 5.29083 12 5.39589 12H5.44365C5.49618 12 5.54393 12 5.60124 11.9416L7.03867 9.01764L9.86099 10.8518C9.90875 10.9005 9.96128 10.9005 10.0186 10.8518C10.0663 10.8518 10.1189 10.8032 10.1189 10.7448L13.4044 0.245692C13.4522 0.143523 13.4044 0.0948713 13.3519 0.036489Z" fill="white"/>
</svg>
