<svg width="47" height="58" viewBox="0 0 47 58" fill="none" xmlns="http://www.w3.org/2000/svg">
<path d="M28.1836 38.1588L28.3975 38.3763L28.6114 38.1588L45.7168 20.7673C46.1075 20.3701 46.1075 19.733 45.7168 19.3358C45.2483 18.8595 44.4804 18.8595 44.0119 19.3358L28.3975 35.2113L20.8289 27.5162C20.3855 27.0654 19.6587 27.0654 19.2153 27.5162C18.7993 27.9391 18.7993 28.6176 19.2153 29.0405L28.1836 38.1588ZM1.92176 56.0557C2.73291 56.8804 3.70809 57.3 4.83281 57.3H29.5331C30.6578 57.3 31.633 56.8804 32.4442 56.0557C33.2552 55.2311 33.6659 54.242 33.6659 53.1031V45.1869C33.6659 44.6105 33.1987 44.1433 32.6224 44.1433C32.0049 44.1433 31.5044 44.6438 31.5044 45.2612V48.9783H2.86151V9.02165H31.5044V12.76C31.5044 13.3657 31.9954 13.8567 32.6011 13.8567C33.1892 13.8567 33.6659 13.38 33.6659 12.7919V4.89691C33.6659 3.75803 33.2552 2.76888 32.4442 1.94427C31.633 1.11956 30.6578 0.7 29.5331 0.7H4.83281C3.70809 0.7 2.73291 1.11956 1.92176 1.94427C1.11072 2.76888 0.7 3.75803 0.7 4.89691V53.1031C0.7 54.242 1.11072 55.2311 1.92176 56.0557ZM2.86151 53.1031V51.166H31.5044V53.1031C31.5044 53.5885 31.3088 54.0452 30.8808 54.4804C30.4525 54.9157 30.0056 55.1124 29.5331 55.1124H4.83281C4.36038 55.1124 3.9134 54.9157 3.48518 54.4804C3.05715 54.0452 2.86151 53.5885 2.86151 53.1031ZM31.5044 4.89691V6.83402H2.86151V4.89691C2.86151 4.41152 3.05715 3.95483 3.48518 3.51964C3.9134 3.08426 4.36038 2.88763 4.83281 2.88763H29.5331C30.0056 2.88763 30.4525 3.08426 30.8808 3.51964C31.3088 3.95483 31.5044 4.41152 31.5044 4.89691Z" fill="#01A6A1" stroke="#01A6A1" stroke-width="0.6"/>
</svg>
