<svg width="94" height="85" viewBox="0 0 94 85" fill="none" xmlns="http://www.w3.org/2000/svg">
<path d="M27.5 8.66025C34.8205 4.43376 38.4808 2.32051 42.5 2.32051C46.5192 2.32051 50.1795 4.43376 57.5 8.66026L64.3061 12.5897C71.6266 16.8162 75.2868 18.9295 77.2965 22.4103C79.3061 25.891 79.3061 30.1175 79.3061 38.5705V46.4295C79.3061 54.8825 79.3061 59.109 77.2965 62.5897C75.2868 66.0705 71.6266 68.1838 64.3061 72.4103L57.5 76.3397C50.1795 80.5662 46.5192 82.6795 42.5 82.6795C38.4808 82.6795 34.8205 80.5662 27.5 76.3397L20.6939 72.4103C13.3734 68.1838 9.71316 66.0705 7.70354 62.5897C5.69392 59.109 5.69392 54.8825 5.69392 46.4295V38.5705C5.69392 30.1175 5.69392 25.891 7.70354 22.4103C9.71316 18.9295 13.3734 16.8162 20.6939 12.5897L27.5 8.66025Z" fill="#BAF0EA"/>
<path d="M34.9666 48.0971C34.8733 48.7522 35.0407 49.4042 35.4378 49.9335L37.314 52.4335C37.8001 53.081 38.5446 53.4224 39.2981 53.4224C39.8155 53.4224 40.3372 53.2612 40.7819 52.9275L41.874 52.1079V80.4979H40.0508C39.3386 80.4979 38.7616 81.075 38.7616 81.7871C38.7616 82.4993 39.3386 83.0764 40.0508 83.0764H87.9111C88.6233 83.0764 89.2004 82.4993 89.2004 81.7871C89.2004 81.075 88.6233 80.4979 87.9111 80.4979H86.4713V74.8612C86.4713 74.149 85.8942 73.5719 85.182 73.5719C84.4698 73.5719 83.8928 74.149 83.8928 74.8612V80.4979H71.7197V76.5491C71.7197 72.2545 68.2256 68.7602 63.9308 68.7602C59.636 68.7602 56.1419 72.2543 56.1419 76.5491V80.4979H44.4526V50.1726L64.1725 35.3725L83.8926 50.1726V69.3669C83.8926 70.0791 84.4697 70.6561 85.1819 70.6561C85.894 70.6561 86.4711 70.0791 86.4711 69.3669V52.1079L87.563 52.9273V52.9275C88.6553 53.7471 90.211 53.5256 91.031 52.4333L92.9073 49.9335C93.7271 48.8412 93.5054 47.2855 92.4129 46.4655L66.5973 27.0906C65.1693 26.0193 63.1754 26.0192 61.7475 27.0908L35.9319 46.4655C35.4029 46.8626 35.06 47.4421 34.9666 48.0971V48.0971ZM58.7203 76.5493C58.7203 73.6763 61.0576 71.3389 63.9306 71.3389C66.8036 71.3389 69.141 73.6763 69.141 76.5493V80.4981H58.7204V76.5493H58.7203ZM89.1107 50.8652L89.11 50.8645C89.1102 50.8647 89.1103 50.8649 89.1107 50.8652ZM63.2953 29.1531C63.8117 28.7655 64.5331 28.7653 65.0495 29.1531L90.784 48.4668L89.0297 50.8042L64.9464 32.7295C64.7171 32.5575 64.4448 32.4713 64.1725 32.4713C63.9002 32.4713 63.6279 32.5575 63.3986 32.7295L39.3151 50.8044L37.5608 48.467L63.2953 29.1531Z" fill="black"/>
<path d="M50.1828 60.5375C49.4706 60.5375 48.8936 61.1146 48.8936 61.8268V65.2406C48.8936 66.5058 49.9227 67.5353 51.1881 67.5353H55.4545C56.7197 67.5353 57.7493 66.506 57.7493 65.2406V54.3162C57.7493 53.051 56.7199 52.0215 55.4545 52.0215H51.1881C49.9229 52.0215 48.8936 53.0508 48.8936 54.3162V56.3324C48.8936 57.0446 49.4706 57.6217 50.1828 57.6217C50.895 57.6217 51.4721 57.0446 51.4721 56.3324V54.6002H55.1707V64.9568H51.4721V61.8268C51.4721 61.1148 50.895 60.5375 50.1828 60.5375Z" fill="black"/>
<path d="M72.406 52.0215C71.1408 52.0215 70.1113 53.0508 70.1113 54.3162V65.2406C70.1113 66.5058 71.1407 67.5353 72.406 67.5353H76.6725C77.9377 67.5353 78.967 66.506 78.967 65.2406V54.3162C78.967 53.051 77.9379 52.0215 76.6725 52.0215H72.406ZM76.3885 64.9566H72.6899V54.6H76.3885V64.9566Z" fill="black"/>
</svg>
