<svg width="12" height="15" viewBox="0 0 12 15" fill="none" xmlns="http://www.w3.org/2000/svg">
<path d="M6.81875 14.3931H5.16954L5.00162 14.2432C4.79772 14.0633 9.99809e-06 9.82331 9.99809e-06 5.99713C-0.00598714 2.69271 2.68673 0 5.99115 0C9.29557 0 11.9883 2.69271 11.9883 5.99713C11.9883 9.82331 7.19057 14.0633 6.98667 14.2432L6.81875 14.3931ZM5.62532 13.1937H6.36297C7.18458 12.4381 10.7949 8.92374 10.7949 5.99713C10.7949 3.3524 8.64188 1.19943 5.99714 1.19943C3.35241 1.19943 1.19344 3.3524 1.19344 5.99713C1.19344 8.92973 4.80371 12.4381 5.62532 13.1937Z" fill="#01A6A1"/>
<path d="M5.98978 8.99518C4.33457 8.99518 2.99121 7.65182 2.99121 5.99661C2.99121 4.34141 4.33457 2.99805 5.98978 2.99805C7.64499 2.99805 8.98835 4.34141 8.98835 5.99661C8.98835 7.65182 7.64499 8.99518 5.98978 8.99518ZM5.98978 4.19747C5.00025 4.19747 4.19064 5.00709 4.19064 5.99661C4.19064 6.98614 5.00025 7.79575 5.98978 7.79575C6.97931 7.79575 7.78892 6.98614 7.78892 5.99661C7.78892 5.00709 6.97931 4.19747 5.98978 4.19747Z" fill="#01A6A1"/>
</svg>
