<svg width="30" height="39" viewBox="0 0 30 39" fill="none" xmlns="http://www.w3.org/2000/svg">
<g clip-path="url(#clip0_727_4027)">
<path d="M29.9941 20.1193V18.7418C29.9941 17.3063 28.7943 16.1371 27.3213 16.1371H27.1016V11.7961C27.1016 5.29608 21.667 0 14.997 0C8.32706 0 2.8925 5.29608 2.8925 11.7961V16.1371H2.67274C1.19976 16.1371 0 17.3063 0 18.7418V39H29.9941V34.1496H28.2122V37.2636H1.78183V18.7418C1.78183 18.2614 2.17977 17.8736 2.67274 17.8736H27.3213C27.8143 17.8736 28.2122 18.2614 28.2122 18.7418V20.1193H29.9941ZM5.26826 16.1371V11.7961C5.26826 6.56946 9.63374 2.31523 14.997 2.31523C20.3603 2.31523 24.7258 6.56946 24.7258 11.7961V16.1371H5.26826ZM29.9584 29.4381H22.4629V27.557H29.9584V29.4381ZM29.9584 24.663H22.4629V26.5441H29.9584V24.663ZM29.9584 21.7689H22.4629V23.65H29.9584V21.7689ZM29.9584 30.451H22.4629V32.3321H29.9584V30.451Z" fill="#01A6A1"/>
<path d="M29.1088 33.3105H29.1028C28.6108 33.3105 28.2119 33.6993 28.2119 34.1788V35.1569C28.2119 35.6364 28.6108 36.0252 29.1028 36.0252H29.1088C29.6008 36.0252 29.9997 35.6364 29.9997 35.1569V34.1788C29.9997 33.6993 29.6008 33.3105 29.1088 33.3105Z" fill="#01A6A1"/>
<path d="M29.1029 18.291H29.097C28.6049 18.291 28.2061 18.6797 28.2061 19.1592V20.1374C28.2061 20.6169 28.6049 21.0056 29.097 21.0056H29.1029C29.5949 21.0056 29.9938 20.6169 29.9938 20.1374V19.1592C29.9938 18.6797 29.5949 18.291 29.1029 18.291Z" fill="#01A6A1"/>
</g>
<defs>
<clipPath id="clip0_727_4027">
<rect width="30" height="39" fill="white"/>
</clipPath>
</defs>
</svg>
