<svg width="22" height="22" viewBox="0 0 22 22" fill="none" xmlns="http://www.w3.org/2000/svg">
<path d="M19 4.4991H12.6514L17.2774 1.4151C17.3862 1.34091 17.4614 1.22677 17.4865 1.09748C17.5117 0.968191 17.4848 0.834194 17.4118 0.7246C17.3387 0.615007 17.2253 0.53867 17.0963 0.512175C16.9673 0.48568 16.833 0.511167 16.7227 0.583098L11.0166 4.3868L7.2998 1.5992C7.19374 1.51969 7.06044 1.48556 6.92922 1.50434C6.798 1.52311 6.67961 1.59324 6.6001 1.6993C6.52059 1.80536 6.48646 1.93866 6.50524 2.06988C6.52401 2.2011 6.59414 2.31949 6.7002 2.399L9.50031 4.4991H3C2.33717 4.49979 1.70169 4.76341 1.233 5.2321C0.764312 5.70079 0.500696 6.33627 0.5 6.9991V18.9991C0.500696 19.6619 0.764312 20.2974 1.233 20.7661C1.70169 21.2348 2.33717 21.4984 3 21.4991H19C19.6628 21.4984 20.2983 21.2348 20.767 20.7661C21.2357 20.2974 21.4993 19.6619 21.5 18.9991V6.9991C21.4993 6.33627 21.2357 5.70079 20.767 5.2321C20.2983 4.76341 19.6628 4.49979 19 4.4991ZM20.5 18.9991C20.4996 19.3968 20.3414 19.7781 20.0602 20.0593C19.779 20.3405 19.3977 20.4987 19 20.4991H3C2.60231 20.4987 2.22103 20.3405 1.93982 20.0593C1.65861 19.7781 1.50043 19.3968 1.5 18.9991V6.9991C1.50043 6.60141 1.65861 6.22013 1.93982 5.93892C2.22103 5.65771 2.60231 5.49953 3 5.4991H19C19.3977 5.49953 19.779 5.65771 20.0602 5.93892C20.3414 6.22013 20.4996 6.60141 20.5 6.9991V18.9991ZM16 6.4991H4C3.60231 6.49953 3.22103 6.65771 2.93982 6.93892C2.65861 7.22013 2.50043 7.60141 2.5 7.9991V17.9991C2.50043 18.3968 2.65861 18.7781 2.93982 19.0593C3.22103 19.3405 3.60231 19.4987 4 19.4991H16C16.3977 19.4987 16.779 19.3405 17.0602 19.0593C17.3414 18.7781 17.4996 18.3968 17.5 17.9991V7.9991C17.4996 7.60141 17.3414 7.22013 17.0602 6.93892C16.779 6.65771 16.3977 6.49953 16 6.4991ZM16.5 17.9991C16.4998 18.1317 16.4471 18.2587 16.3534 18.3525C16.2596 18.4462 16.1326 18.4989 16 18.4991H4C3.86744 18.4989 3.74037 18.4462 3.64664 18.3525C3.55291 18.2587 3.50017 18.1317 3.5 17.9991V7.9991C3.50017 7.86654 3.55291 7.73947 3.64664 7.64574C3.74037 7.552 3.86744 7.49927 4 7.4991H16C16.1326 7.49927 16.2596 7.552 16.3534 7.64574C16.4471 7.73947 16.4998 7.86654 16.5 7.9991V17.9991ZM19.5 7.9991V9.9991C19.5 10.1317 19.4473 10.2589 19.3536 10.3527C19.2598 10.4464 19.1326 10.4991 19 10.4991C18.8674 10.4991 18.7402 10.4464 18.6464 10.3527C18.5527 10.2589 18.5 10.1317 18.5 9.9991V7.9991C18.5 7.86649 18.5527 7.73931 18.6464 7.64554C18.7402 7.55178 18.8674 7.4991 19 7.4991C19.1326 7.4991 19.2598 7.55178 19.3536 7.64554C19.4473 7.73931 19.5 7.86649 19.5 7.9991ZM19.5 11.9991V13.9991C19.5 14.1317 19.4473 14.2589 19.3536 14.3527C19.2598 14.4464 19.1326 14.4991 19 14.4991C18.8674 14.4991 18.7402 14.4464 18.6464 14.3527C18.5527 14.2589 18.5 14.1317 18.5 13.9991V11.9991C18.5 11.8665 18.5527 11.7393 18.6464 11.6455C18.7402 11.5518 18.8674 11.4991 19 11.4991C19.1326 11.4991 19.2598 11.5518 19.3536 11.6455C19.4473 11.7393 19.5 11.8665 19.5 11.9991Z" fill="#01A6A1"/>
</svg>
