<svg width="30" height="30" viewBox="0 0 30 30" fill="none" xmlns="http://www.w3.org/2000/svg">
<path d="M0.494743 9.96077H6.71614V30H0.494743V9.96077ZM3.60544 0C5.59678 0 7.21088 1.61677 7.21088 3.6114C7.21088 5.60603 5.59678 7.2228 3.60544 7.2228C1.6141 7.2228 0 5.60603 0 3.6114C0 1.61677 1.60792 0 3.60544 0ZM10.6184 30H16.8275V20.0888C16.8275 17.4747 17.3222 14.9412 20.5566 14.9412C23.791 14.9412 23.791 17.9331 23.791 20.256V30H30V19.0109C30 13.6155 28.8374 9.46521 22.5479 9.46521C19.5238 9.46521 17.4954 11.1253 16.6667 12.7049H16.5801V9.96696H10.6184V30Z" fill="#FE6D60"/>
</svg>
