<svg width="44" height="44" viewBox="0 0 44 44" fill="none" xmlns="http://www.w3.org/2000/svg">
<g clip-path="url(#clip0_838_4090)">
<path d="M11.9005 28.9648C11.8673 28.8734 11.8237 28.7862 11.7705 28.7048C11.7124 28.6236 11.649 28.5464 11.5805 28.4738C11.2932 28.2045 10.9142 28.0547 10.5205 28.0547C10.1268 28.0547 9.74778 28.2045 9.46051 28.4738C9.32106 28.6131 9.21043 28.7785 9.13493 28.9605C9.05943 29.1426 9.02055 29.3377 9.02051 29.5348C9.02124 29.7297 9.05855 29.9227 9.13051 30.1038C9.28673 30.4734 9.58089 30.7676 9.95051 30.9238C10.3161 31.0718 10.7249 31.0718 11.0905 30.9238C11.3647 30.809 11.599 30.6162 11.7644 30.3692C11.9298 30.1222 12.0188 29.832 12.0205 29.5348C12.021 29.4373 12.0109 29.3401 11.9905 29.2448C11.9714 29.1483 11.9412 29.0543 11.9005 28.9648V28.9648Z" fill="#01A6A1"/>
<path d="M18.9005 28.9638C18.8673 28.8724 18.8237 28.7851 18.7705 28.7038C18.606 28.4567 18.3718 28.2639 18.0977 28.15C17.8235 28.0361 17.5217 28.0061 17.2305 28.0638C17.1357 28.0846 17.0422 28.111 16.9505 28.1428C16.8597 28.1816 16.7726 28.2288 16.6905 28.2838C16.6076 28.3387 16.5305 28.402 16.4605 28.4728C16.3897 28.5433 16.3261 28.6207 16.2705 28.7038C16.2179 28.7871 16.1712 28.874 16.1305 28.9638C16.0977 29.0552 16.0709 29.1487 16.0505 29.2438C16.0301 29.3391 16.02 29.4363 16.0205 29.5338C16.0213 29.7286 16.0586 29.9216 16.1305 30.1028C16.2868 30.4724 16.5809 30.7665 16.9505 30.9228C17.1318 30.9955 17.3252 31.0332 17.5205 31.0338C17.818 31.0319 18.1083 30.9427 18.3555 30.7772C18.6026 30.6117 18.7956 30.3771 18.9105 30.1028C18.9825 29.9216 19.0198 29.7286 19.0205 29.5338C19.021 29.4363 19.011 29.3391 18.9905 29.2438C18.9714 29.1473 18.9412 29.0533 18.9005 28.9638V28.9638Z" fill="#01A6A1"/>
<path d="M42.9743 37.1693L40.6743 27.9623C40.5778 27.5763 40.3318 27.2445 39.9906 27.0398C39.6494 26.8351 39.2408 26.7743 38.8548 26.8708C38.4688 26.9674 38.1369 27.2133 37.9322 27.5545C37.7275 27.8958 37.6668 28.3043 37.7633 28.6903L39.4633 35.4703L32.6823 33.7703C32.3101 33.6765 31.9161 33.7298 31.5823 33.9193C29.9326 34.847 28.1358 35.4846 26.2703 35.8043C27.4434 33.6723 28.041 31.2715 28.0042 28.8384C27.9674 26.4052 27.2974 24.0236 26.0603 21.928C24.8232 19.8325 23.0617 18.0953 20.9491 16.8876C18.8365 15.6799 16.4457 15.0432 14.0123 15.0403C11.6486 15.0344 9.32226 15.6301 7.2523 16.7713C7.65104 14.3092 8.61292 11.9723 10.063 9.94293C11.5131 7.91352 13.4122 6.24635 15.6123 5.07134C18.1997 3.62371 21.134 2.91199 24.097 3.01335C27.0601 3.11471 29.9389 4.02528 32.4213 5.64634C35.9423 7.89423 38.4755 11.3982 39.5063 15.4463C39.6118 15.8238 39.8609 16.145 40.2003 16.3411C40.5396 16.5373 40.9422 16.5928 41.322 16.4959C41.7018 16.3989 42.0285 16.1571 42.2323 15.8223C42.436 15.4875 42.5007 15.0862 42.4123 14.7043C41.1961 9.9219 38.2044 5.78206 34.0453 3.12634C31.112 1.20873 27.7097 0.130829 24.2073 0.00954666C20.7049 -0.111736 17.2362 0.728228 14.1773 2.43834C11.1302 4.06588 8.57898 6.4858 6.79286 9.44273C5.00674 12.3996 4.05196 15.7839 4.0293 19.2383C3.22414 20.0658 2.52235 20.9879 1.9393 21.9843C0.745788 23.994 0.0812553 26.2735 0.00780575 28.6097C-0.0656438 30.9459 0.454387 33.2626 1.5193 35.3433L0.0603005 41.1723C-0.0025925 41.4237 0.000715539 41.6871 0.0699022 41.9369C0.139089 42.1866 0.271794 42.4141 0.455085 42.5973C0.638375 42.7805 0.865998 42.9131 1.11577 42.9822C1.36554 43.0512 1.62894 43.0544 1.8803 42.9913L7.7113 41.5323C10.3118 42.8521 13.2612 43.3218 16.143 42.875C19.0248 42.4282 21.6935 41.0876 23.7723 39.0423C26.8209 39.0046 29.8171 38.2448 32.5153 36.8253L41.1553 38.9883C41.4066 39.0512 41.6699 39.0478 41.9195 38.9787C42.1691 38.9095 42.3966 38.7769 42.5797 38.5938C42.7629 38.4106 42.8955 38.1832 42.9647 37.9335C43.0338 37.6839 43.0371 37.4206 42.9743 37.1693ZM8.6453 38.6303C8.31118 38.4418 7.91753 38.3885 7.5453 38.4813L3.5793 39.4733L4.5713 35.5073C4.66443 35.1352 4.61146 34.7416 4.4233 34.4073C3.48983 32.7339 3.00949 30.8457 3.02982 28.9295C3.05016 27.0134 3.57046 25.1358 4.53924 23.4825C5.50802 21.8293 6.8917 20.4576 8.55336 19.5032C10.215 18.5489 12.0971 18.045 14.0133 18.0413C15.9856 18.0446 17.9207 18.5778 19.6163 19.5852C21.3119 20.5927 22.7056 22.0372 23.6516 23.7678C24.5976 25.4984 25.0611 27.4514 24.9937 29.4225C24.9262 31.3937 24.3303 33.3104 23.2683 34.9723C21.7587 37.3338 19.403 39.0283 16.684 39.7085C13.9651 40.3886 11.0889 40.0029 8.6453 38.6303Z" fill="#01A6A1"/>
<path d="M41.169 19.5538C41.0698 19.5751 40.9728 19.6052 40.879 19.6438C40.7903 19.6805 40.7063 19.7278 40.629 19.7848C40.5438 19.8331 40.4663 19.8937 40.399 19.9648C40.3303 20.0368 40.2668 20.1137 40.209 20.1948C40.1564 20.2781 40.1096 20.365 40.069 20.4548C40.0376 20.5467 40.0109 20.6401 39.989 20.7348C39.9396 20.9761 39.9513 21.226 40.0229 21.4617C40.0945 21.6974 40.2238 21.9116 40.399 22.0848C40.6802 22.3657 41.0615 22.5234 41.459 22.5234C41.8565 22.5234 42.2377 22.3657 42.519 22.0848C42.659 21.9461 42.77 21.781 42.8455 21.599C42.9211 21.417 42.9596 21.2218 42.959 21.0248C42.9571 20.6274 42.7991 20.2467 42.519 19.9648C42.3427 19.7941 42.1283 19.6678 41.8936 19.5964C41.6588 19.5249 41.4105 19.5103 41.169 19.5538V19.5538Z" fill="#01A6A1"/>
</g>
<defs>
<clipPath id="clip0_838_4090">
<rect width="43.019" height="43.04" fill="white"/>
</clipPath>
</defs>
</svg>
