<svg width="17" height="17" viewBox="0 0 17 17" fill="none" xmlns="http://www.w3.org/2000/svg">
<g clip-path="url(#clip0_312_6875)">
<path d="M6.73768 13.4703C3.02404 13.4703 0 10.4513 0 6.73768C0 3.02404 3.02404 0 6.73768 0C10.4513 0 13.4754 3.02404 13.4754 6.73768C13.4754 10.4513 10.4513 13.4754 6.73768 13.4754V13.4703ZM6.73768 2.17097C4.21935 2.17097 2.17097 4.21935 2.17097 6.73768C2.17097 9.25601 4.21935 11.3044 6.73768 11.3044C9.25601 11.3044 11.3044 9.25601 11.3044 6.73768C11.3044 4.21935 9.2509 2.17097 6.73768 2.17097Z" fill="#FE6D60"/>
<path d="M15.9174 17.0004C15.6416 17.0004 15.3607 16.8931 15.1512 16.6837L9.96642 11.4989C9.54244 11.0749 9.54244 10.3904 9.96642 9.96642C10.3904 9.54244 11.0749 9.54244 11.4989 9.96642L16.6837 15.1512C17.1076 15.5752 17.1076 16.2597 16.6837 16.6837C16.4742 16.8931 16.1933 17.0004 15.9174 17.0004Z" fill="#FE6D60"/>
</g>
<defs>
<clipPath id="clip0_312_6875">
<rect width="17" height="17" fill="white"/>
</clipPath>
</defs>
</svg>
