<svg width="12" height="13" viewBox="0 0 12 13" fill="none" xmlns="http://www.w3.org/2000/svg">
<g clip-path="url(#clip0_394_4042)">
<path d="M8.5 0C8.19087 0.00230974 7.8899 0.0994421 7.63775 0.278276C7.38559 0.45711 7.1944 0.709028 7.09 1H0V2H7.09C7.19048 2.29415 7.38044 2.5495 7.63328 2.73031C7.88611 2.91112 8.18917 3.00834 8.5 3.00834C8.81083 3.00834 9.11389 2.91112 9.36672 2.73031C9.61956 2.5495 9.80952 2.29415 9.91 2H12V1H9.91C9.8056 0.709028 9.61441 0.45711 9.36225 0.278276C9.1101 0.0994421 8.80913 0.00230974 8.5 0V0ZM8.5 1C8.59889 1 8.69556 1.02932 8.77779 1.08427C8.86001 1.13921 8.9241 1.2173 8.96194 1.30866C8.99978 1.40002 9.00969 1.50055 8.99039 1.59755C8.9711 1.69454 8.92348 1.78363 8.85355 1.85355C8.78363 1.92348 8.69454 1.9711 8.59755 1.99039C8.50056 2.00969 8.40002 1.99978 8.30866 1.96194C8.2173 1.9241 8.13921 1.86001 8.08426 1.77779C8.02932 1.69556 8 1.59889 8 1.5C8 1.36739 8.05268 1.24021 8.14645 1.14645C8.24021 1.05268 8.36739 1 8.5 1ZM3.5 5C3.19087 5.00231 2.8899 5.09944 2.63775 5.27828C2.38559 5.45711 2.1944 5.70903 2.09 6H0V7H2.09C2.19048 7.29415 2.38044 7.5495 2.63328 7.73031C2.88611 7.91112 3.18916 8.00834 3.5 8.00834C3.81084 8.00834 4.11389 7.91112 4.36672 7.73031C4.61956 7.5495 4.80952 7.29415 4.91 7H12V6H4.91C4.8056 5.70903 4.61441 5.45711 4.36225 5.27828C4.1101 5.09944 3.80913 5.00231 3.5 5ZM3.5 6C3.59889 6 3.69556 6.02932 3.77779 6.08427C3.86001 6.13921 3.9241 6.2173 3.96194 6.30866C3.99978 6.40002 4.00969 6.50055 3.99039 6.59755C3.9711 6.69454 3.92348 6.78363 3.85355 6.85355C3.78363 6.92348 3.69454 6.9711 3.59755 6.99039C3.50055 7.00969 3.40002 6.99978 3.30866 6.96194C3.2173 6.9241 3.13921 6.86001 3.08427 6.77779C3.02932 6.69556 3 6.59889 3 6.5C3 6.36739 3.05268 6.24021 3.14645 6.14645C3.24021 6.05268 3.36739 6 3.5 6ZM8.5 10C8.19087 10.0023 7.8899 10.0994 7.63775 10.2783C7.38559 10.4571 7.1944 10.709 7.09 11H0V12H7.09C7.19048 12.2941 7.38044 12.5495 7.63328 12.7303C7.88611 12.9111 8.18917 13.0083 8.5 13.0083C8.81083 13.0083 9.11389 12.9111 9.36672 12.7303C9.61956 12.5495 9.80952 12.2941 9.91 12H12V11H9.91C9.8056 10.709 9.61441 10.4571 9.36225 10.2783C9.1101 10.0994 8.80913 10.0023 8.5 10ZM8.5 11C8.59889 11 8.69556 11.0293 8.77779 11.0843C8.86001 11.1392 8.9241 11.2173 8.96194 11.3087C8.99978 11.4 9.00969 11.5006 8.99039 11.5975C8.9711 11.6945 8.92348 11.7836 8.85355 11.8536C8.78363 11.9235 8.69454 11.9711 8.59755 11.9904C8.50056 12.0097 8.40002 11.9998 8.30866 11.9619C8.2173 11.9241 8.13921 11.86 8.08426 11.7778C8.02932 11.6956 8 11.5989 8 11.5C8 11.3674 8.05268 11.2402 8.14645 11.1464C8.24021 11.0527 8.36739 11 8.5 11Z" fill="#FE6D60"/>
</g>
<defs>
<clipPath id="clip0_394_4042">
<rect width="12" height="13" fill="white"/>
</clipPath>
</defs>
</svg>
