<svg width="32" height="41" viewBox="0 0 32 41" fill="none" xmlns="http://www.w3.org/2000/svg">
<g clip-path="url(#clip0_727_3992)">
<path d="M11 22H21C21.55 22 22 21.55 22 21C22 19 20.81 17.28 19.11 16.48C19.66 15.8 20 14.94 20 14C20 11.79 18.21 10 16 10C13.79 10 12 11.79 12 14C12 14.94 12.34 15.8 12.89 16.48C11.19 17.28 10 19 10 21C10 21.55 10.45 22 11 22ZM16 12C17.1 12 18 12.9 18 14C18 15.1 17.1 16 16 16C14.9 16 14 15.1 14 14C14 12.9 14.9 12 16 12ZM15 18H17C18.3 18 19.42 18.84 19.83 20H12.17C12.58 18.84 13.7 18 15 18Z" fill="#01A6A1"/>
<path d="M16.51 40H31C31.55 40 32 39.55 32 39V3C32 2.45 31.55 2 31 2H22V1C22 0.45 21.55 0 21 0H11C10.45 0 10 0.45 10 1V2H1C0.45 2 0 2.45 0 3V39C0 39.55 0.45 40 1 40H12.96H16.51ZM12 2H20V4H12V2ZM30 38H2V4H10V5C10 5.55 10.45 6 11 6H21C21.55 6 22 5.55 22 5V4H30V38Z" fill="#01A6A1"/>
<path d="M6 27C6 27.55 6.45 28 7 28H25C25.55 28 26 27.55 26 27C26 26.45 25.55 26 25 26H7C6.45 26 6 26.45 6 27Z" fill="#01A6A1"/>
<path d="M25 32H7C6.45 32 6 32.45 6 33C6 33.55 6.45 34 7 34H25C25.55 34 26 33.55 26 33C26 32.45 25.55 32 25 32Z" fill="#01A6A1"/>
<path d="M25.7798 37.75H20.7598V40.05H25.7798V37.75Z" fill="white"/>
<path d="M21.1104 38H19.8904C19.3436 38 18.9004 38.4432 18.9004 38.99V39.01C18.9004 39.5568 19.3436 40 19.8904 40H21.1104C21.6572 40 22.1004 39.5568 22.1004 39.01V38.99C22.1004 38.4432 21.6572 38 21.1104 38Z" fill="#01A6A1"/>
<path d="M26.9405 38.0098H25.7205C25.1737 38.0098 24.7305 38.453 24.7305 38.9998V39.0198C24.7305 39.5665 25.1737 40.0098 25.7205 40.0098H26.9405C27.4872 40.0098 27.9305 39.5665 27.9305 39.0198V38.9998C27.9305 38.453 27.4872 38.0098 26.9405 38.0098Z" fill="#01A6A1"/>
</g>
<defs>
<clipPath id="clip0_727_3992">
<rect width="32" height="40.05" fill="white"/>
</clipPath>
</defs>
</svg>
