<svg width="20" height="18" viewBox="0 0 20 18" fill="none" xmlns="http://www.w3.org/2000/svg">
<path d="M4.25 0C4.05109 1.98876e-05 3.86034 0.0790439 3.71969 0.219692C3.57904 0.36034 3.50002 0.551094 3.5 0.75V7.5H5V1.5H9.5V7.5H11V1.5H15.5V7.5H17V0.75C17 0.551094 16.921 0.36034 16.7803 0.219692C16.6397 0.0790439 16.4489 1.98876e-05 16.25 0H4.25ZM2.75 9C1.5162 9 0.5 10.0162 0.5 11.25V12H2V11.25C2 10.8278 2.3278 10.5 2.75 10.5H3.5V13.5V16.5H2V18H18.5V16.5H17V10.5H17.75C18.1722 10.5 18.5 10.8278 18.5 11.25V12H20V11.25C20 10.0162 18.9838 9 17.75 9H2.75ZM5 10.5H6.5V16.5H5V13.5V10.5ZM8 10.5H9.5V16.5H8V10.5ZM11 10.5H12.5V16.5H11V10.5ZM14 10.5H15.5V16.5H14V10.5Z" fill="#01A6A1"/>
</svg>
