<svg width="15" height="15" viewBox="0 0 15 15" fill="none" xmlns="http://www.w3.org/2000/svg">
<g clip-path="url(#clip0_391_4027)">
<path d="M7.96914 11.0293C6.28633 11.0293 5.2832 9.70745 5.2832 7.49964C5.2832 5.29183 6.26758 3.96995 7.96914 3.96995C8.41287 3.9395 8.85783 4.00778 9.27201 4.16989C9.68619 4.33199 10.0593 4.58389 10.3645 4.90745C10.4397 5.00691 10.4723 5.13217 10.4551 5.25568C10.438 5.37919 10.3725 5.49083 10.273 5.56605C10.1736 5.64126 10.0483 5.67388 9.92482 5.65674C9.80131 5.6396 9.68967 5.5741 9.61445 5.47464C9.39634 5.2685 9.13675 5.11127 8.85302 5.01346C8.56929 4.91565 8.26795 4.87951 7.96914 4.90745C6.4457 4.90745 6.2207 6.53402 6.2207 7.49964C6.2207 8.46527 6.4457 10.0918 7.96914 10.0918C8.27041 10.1171 8.57359 10.0774 8.85822 9.97554C9.14286 9.87366 9.40234 9.71191 9.61914 9.5012C9.65669 9.45227 9.70351 9.4112 9.75693 9.38036C9.81035 9.34952 9.86932 9.3295 9.93048 9.32144C9.99163 9.31339 10.0538 9.31746 10.1134 9.33343C10.1729 9.34939 10.2288 9.37693 10.2777 9.41448C10.3267 9.45203 10.3677 9.49885 10.3986 9.55227C10.4294 9.60569 10.4494 9.66466 10.4575 9.72582C10.4655 9.78698 10.4615 9.84912 10.4455 9.9087C10.4295 9.96829 10.402 10.0241 10.3645 10.0731C10.061 10.4 9.6887 10.6554 9.27443 10.8208C8.86016 10.9862 8.41431 11.0574 7.96914 11.0293Z" fill="#FE6D60"/>
<path d="M8.57344 7.06445H4.42969C4.30537 7.06445 4.18614 7.01507 4.09823 6.92716C4.01032 6.83925 3.96094 6.72002 3.96094 6.5957C3.96094 6.47138 4.01032 6.35215 4.09823 6.26425C4.18614 6.17634 4.30537 6.12695 4.42969 6.12695H8.57344C8.69776 6.12695 8.81699 6.17634 8.90489 6.26425C8.9928 6.35215 9.04219 6.47138 9.04219 6.5957C9.04219 6.72002 8.9928 6.83925 8.90489 6.92716C8.81699 7.01507 8.69776 7.06445 8.57344 7.06445Z" fill="#FE6D60"/>
<path d="M8.57344 8.87305H4.42969C4.30537 8.87305 4.18614 8.82366 4.09823 8.73575C4.01032 8.64784 3.96094 8.52862 3.96094 8.4043C3.96094 8.27998 4.01032 8.16075 4.09823 8.07284C4.18614 7.98493 4.30537 7.93555 4.42969 7.93555H8.57344C8.69776 7.93555 8.81699 7.98493 8.90489 8.07284C8.9928 8.16075 9.04219 8.27998 9.04219 8.4043C9.04219 8.52862 8.9928 8.64784 8.90489 8.73575C8.81699 8.82366 8.69776 8.87305 8.57344 8.87305Z" fill="#FE6D60"/>
<path d="M7.5 15C6.01664 15 4.5666 14.5601 3.33323 13.736C2.09986 12.9119 1.13856 11.7406 0.570907 10.3701C0.00324961 8.99968 -0.145275 7.49168 0.144114 6.03683C0.433503 4.58197 1.14781 3.2456 2.1967 2.1967C3.2456 1.14781 4.58197 0.433503 6.03683 0.144114C7.49168 -0.145275 8.99968 0.00324961 10.3701 0.570907C11.7406 1.13856 12.9119 2.09986 13.736 3.33323C14.5601 4.5666 15 6.01664 15 7.5C15 9.48913 14.2098 11.3968 12.8033 12.8033C11.3968 14.2098 9.48913 15 7.5 15ZM7.5 0.937503C6.20206 0.937503 4.93327 1.32239 3.85407 2.04348C2.77488 2.76458 1.93374 3.7895 1.43704 4.98864C0.940344 6.18778 0.810384 7.50728 1.0636 8.78028C1.31682 10.0533 1.94183 11.2226 2.85962 12.1404C3.7774 13.0582 4.94672 13.6832 6.21972 13.9364C7.49272 14.1896 8.81222 14.0597 10.0114 13.563C11.2105 13.0663 12.2354 12.2251 12.9565 11.1459C13.6776 10.0667 14.0625 8.79794 14.0625 7.5C14.0625 5.75952 13.3711 4.09032 12.1404 2.85962C10.9097 1.62891 9.24049 0.937503 7.5 0.937503Z" fill="#FE6D60"/>
</g>
<defs>
<clipPath id="clip0_391_4027">
<rect width="15" height="15" fill="white"/>
</clipPath>
</defs>
</svg>
