<svg width="17" height="14" viewBox="0 0 17 14" fill="none" xmlns="http://www.w3.org/2000/svg">
<path d="M9.07143 11.0695H2.78571C2.48261 11.0695 2.19192 10.9467 1.97759 10.7282C1.76326 10.5097 1.64286 10.2133 1.64286 9.90429V2.33042C1.64286 2.02139 1.76326 1.72501 1.97759 1.50649C2.19192 1.28797 2.48261 1.16521 2.78571 1.16521H5.81429C6.01178 1.16845 6.20508 1.22383 6.37534 1.32593C6.54559 1.42804 6.68698 1.57339 6.78571 1.74782L7.5 2.96546C7.70632 3.30878 7.99637 3.59173 8.34187 3.78675C8.68737 3.98177 9.07653 4.08219 9.47143 4.07824H13.0714C13.3745 4.07824 13.6652 4.201 13.8795 4.41952C14.0939 4.63804 14.2143 4.93441 14.2143 5.24345V6.40866C14.2143 6.56317 14.2745 6.71136 14.3817 6.82062C14.4888 6.92988 14.6342 6.99126 14.7857 6.99126C14.9373 6.99126 15.0826 6.92988 15.1898 6.82062C15.2969 6.71136 15.3571 6.56317 15.3571 6.40866V5.24345C15.3571 4.62538 15.1163 4.03263 14.6877 3.59559C14.259 3.15855 13.6776 2.91303 13.0714 2.91303H9.47143C9.27393 2.90978 9.08063 2.85441 8.91038 2.7523C8.74012 2.65019 8.59874 2.50484 8.5 2.33042L7.77428 1.13025C7.57106 0.78539 7.28374 0.500039 6.94027 0.301973C6.5968 0.103908 6.20889 -0.000124524 5.81429 1.11858e-07H2.78571C2.1795 1.11858e-07 1.59812 0.245526 1.16947 0.682564C0.740816 1.1196 0.5 1.71235 0.5 2.33042L0.5 9.90429C0.5 10.5224 0.740816 11.1151 1.16947 11.5521C1.59812 11.9892 2.1795 12.2347 2.78571 12.2347H9.07143C9.22298 12.2347 9.36833 12.1733 9.47549 12.0641C9.58265 11.9548 9.64286 11.8066 9.64286 11.6521C9.64286 11.4976 9.58265 11.3494 9.47549 11.2401C9.36833 11.1309 9.22298 11.0695 9.07143 11.0695Z" fill="#01A6A1"/>
<path d="M16.1457 9.25141L15.4257 8.51733C15.1963 8.28956 14.8887 8.16211 14.5685 8.16211C14.2483 8.16211 13.9408 8.28956 13.7114 8.51733L11.4885 10.7837C11.3061 10.968 11.1809 11.2031 11.1285 11.4595L10.7857 13.3005C10.7714 13.3849 10.7755 13.4714 10.7978 13.554C10.82 13.6365 10.8598 13.7131 10.9144 13.7782C10.9689 13.8432 11.0369 13.8953 11.1134 13.9305C11.1899 13.9658 11.2731 13.9834 11.3571 13.9822H11.4714L13.2714 13.6151C13.525 13.5632 13.7578 13.4354 13.94 13.2481L16.1628 10.9817C16.3842 10.7493 16.5066 10.437 16.5034 10.113C16.5002 9.78894 16.3716 9.4793 16.1457 9.25141ZM15.3571 10.1661L13.1342 12.4324C13.1097 12.4547 13.0803 12.4707 13.0485 12.479L12.0885 12.6713L12.2771 11.6925C12.2853 11.6601 12.301 11.6301 12.3228 11.6051L14.5285 9.32132C14.5419 9.3118 14.5579 9.3067 14.5742 9.3067C14.5906 9.3067 14.6065 9.3118 14.62 9.32132L15.3571 10.0729C15.3683 10.0857 15.3746 10.1023 15.3746 10.1195C15.3746 10.1367 15.3683 10.1533 15.3571 10.1661Z" fill="#01A6A1"/>
</svg>
