<svg width="53" height="46" viewBox="0 0 53 46" fill="none" xmlns="http://www.w3.org/2000/svg">
<path d="M2 35.81C2 40.4286 5.79177 44.1727 10.4691 44.1727H42.5309C47.2082 44.1727 51 40.4286 51 35.81V17.89C51 13.2715 47.2082 9.52738 42.5309 9.52738H36.8271L35.7839 4.72023C35.4851 3.34317 34.2527 2.35938 32.8264 2.35938H20.1736C18.7473 2.35938 17.5149 3.34317 17.2161 4.72023L16.1728 9.52738H10.4691C5.79177 9.52738 2 13.2715 2 17.89V25.8794" stroke="#01A6A1" stroke-width="3.5" stroke-linecap="round" stroke-linejoin="round"/>
<path d="M37.9336 18.041H42.5069" stroke="#01A6A1" stroke-width="3.5" stroke-linecap="round"/>
<path d="M33.5697 26.5343C33.5697 30.1969 30.4672 33.2777 26.4997 33.2777C22.5322 33.2777 19.4297 30.1969 19.4297 26.5343C19.4297 22.8718 22.5322 19.791 26.4997 19.791C30.4672 19.791 33.5697 22.8718 33.5697 26.5343Z" stroke="#01A6A1" stroke-width="3.5"/>
</svg>
