<svg width="18" height="13" viewBox="0 0 18 13" fill="none" xmlns="http://www.w3.org/2000/svg">
<path d="M17.2329 5.14913C17.0931 4.95548 16.9041 4.79692 16.6828 4.68748C16.4615 4.57804 16.2145 4.52112 15.9639 4.52174H5.80643C5.49601 4.52103 5.19271 4.60824 4.93679 4.77178C4.68087 4.93532 4.48443 5.16747 4.37357 5.43739L2.84357 9.39391C2.81381 9.46422 2.7995 9.53937 2.80148 9.61492C2.80347 9.69047 2.8217 9.76488 2.85511 9.83376C2.88852 9.90263 2.93643 9.96457 2.996 10.0159C3.05557 10.0672 3.1256 10.1069 3.20193 10.1326C3.27827 10.1583 3.35937 10.1695 3.44043 10.1656C3.5215 10.1616 3.60088 10.1425 3.67389 10.1095C3.74689 10.0764 3.81204 10.0301 3.86548 9.9732C3.91892 9.91631 3.95956 9.85002 3.985 9.77826L5.50893 5.82174C5.53635 5.77028 5.57882 5.72706 5.63144 5.69707C5.68407 5.66707 5.74472 5.65151 5.80643 5.65217H15.9639C16.0166 5.65139 16.0686 5.66287 16.1152 5.68558C16.1619 5.70828 16.2017 5.74149 16.2311 5.78217C16.2577 5.82923 16.2716 5.88161 16.2716 5.93478C16.2716 5.98796 16.2577 6.04033 16.2311 6.08739L14.1607 11.4965C14.1186 11.6049 14.042 11.6986 13.9411 11.7653C13.8402 11.832 13.7198 11.8684 13.5961 11.8696H2.92857C2.60652 11.8696 2.29766 11.7505 2.06994 11.5385C1.84222 11.3265 1.71429 11.0389 1.71429 10.7391V2.26087C1.71429 1.96106 1.84222 1.67353 2.06994 1.46153C2.29766 1.24953 2.60652 1.13043 2.92857 1.13043H4.34321C4.54205 1.12797 4.7385 1.17101 4.91529 1.25577C5.09208 1.34052 5.24381 1.4644 5.35714 1.61652L6.34679 2.9787C6.56987 3.28001 6.86819 3.52641 7.21612 3.69673C7.56405 3.86705 7.95119 3.9562 8.34429 3.95652H13.25C13.411 3.95652 13.5655 3.89697 13.6793 3.79097C13.7932 3.68497 13.8571 3.54121 13.8571 3.3913C13.8571 3.2414 13.7932 3.09763 13.6793 2.99164C13.5655 2.88564 13.411 2.82609 13.25 2.82609H8.34429C8.14852 2.82579 7.95573 2.78143 7.78236 2.69679C7.60898 2.61215 7.46016 2.48974 7.34857 2.34L6.34071 0.977826C6.11763 0.676509 5.81931 0.430108 5.47138 0.259788C5.12345 0.0894683 4.73631 0.000319719 4.34321 0L2.92857 0C2.28447 0 1.66676 0.238198 1.21131 0.662193C0.755867 1.08619 0.5 1.66125 0.5 2.26087L0.5 10.7391C0.502448 11.1535 0.627199 11.5593 0.860623 11.9122C1.09405 12.2651 1.42716 12.5514 1.82357 12.74C1.8773 12.818 1.95081 12.8825 2.03763 12.9279C2.12445 12.9732 2.22191 12.998 2.32143 13H13.6204C13.9961 12.999 14.3624 12.8899 14.6689 12.6875C14.9755 12.4851 15.2072 12.1994 15.3325 11.8696L17.3907 6.47739C17.4821 6.26067 17.5154 6.02652 17.4879 5.79512C17.4604 5.56372 17.3729 5.34202 17.2329 5.14913Z" fill="#01A6A1"/>
</svg>
